<?xml version="1.0" encoding="UTF-8"?><svg id="Layer_1" xmlns="http://www.w3.org/2000/svg" viewBox="0 0 141.73 141.73"><defs><style>.cls-1{fill:#fff;}.cls-2{fill:#233d4d;}.cls-3{fill:#fcca46;}.cls-4{fill:#f57e30;}.cls-5{fill:#a1c181;}.cls-6{fill:#579c87;}</style></defs><polygon class="cls-3" points="70.09 29.81 50.6 33.63 34.89 46.82 26.35 64.01 26.35 81.83 34.29 98.87 54.07 113.31 70.87 117.01 89 112.59 104.59 100.66 110.51 86.34 109.93 76.19 96.18 66.4 84.09 61.93 83.51 56.99 86.23 46.81 84.38 40.27 82.55 34.78 70.09 29.81"/><g><path class="cls-6" d="M77.95,81.92c-4.59-3.19-11.17,.47-10.28,8,.91,7.72-5.85,12.44-3.01,12.64,3.89,.27,25.06-12.47,13.29-20.64Z"/><path class="cls-1" d="M85.63,81.62c4.01-5.06,8.46-11.21,12.98-18.15,12.28-18.88,19.25-36.31,16.55-38.05-2.71-1.74-14.85,12.15-27.13,31.04-4.51,6.94-8.41,13.59-11.41,19.31l9.01,5.86Z"/><circle class="cls-3" cx="49.47" cy="56.99" r="7.01"/><circle class="cls-6" cx="41.86" cy="74.84" r="5.29"/><circle class="cls-4" cx="50.6" cy="94.48" r="6.15"/><circle class="cls-5" cx="66.87" cy="47.67" r="6.15"/><g><path class="cls-2" d="M79.07,80.38c-2.48-1.73-5.62-1.84-8.2-.3-3.02,1.81-4.53,5.35-4.04,9.48,.47,4.03-1.37,7.19-2.59,9.28-.85,1.45-1.46,2.5-.93,3.51,.21,.4,.67,.88,1.67,.95,.05,0,.11,0,.17,0,3.47,0,15.06-6.57,17.5-13.52,.89-2.54,1-6.24-3.58-9.41Zm1.21,8.58c-1.9,5.41-10.81,10.77-14.2,11.7,.11-.19,.22-.38,.32-.56,1.31-2.24,3.49-5.98,2.92-10.84-.37-3.12,.7-5.74,2.84-7.03,.8-.48,1.69-.72,2.57-.72,1.01,0,2.02,.31,2.9,.92,2.67,1.85,3.53,3.99,2.64,6.52Z"/><path class="cls-2" d="M99.8,67.32c-.74-.35-1.54-.7-2.41-1.05,.58-.87,1.15-1.74,1.72-2.62,9.42-14.49,19.07-32.41,17.98-37.5-.19-.89-.66-1.36-1.02-1.59-1.37-.88-3.93-.77-11.6,8.01-5.16,5.9-11.29,14.21-17.26,23.39-.93,1.43-1.84,2.86-2.73,4.28-.09-.13-.18-.27-.26-.41-.42-.79,.39-3.14,1.11-5.22,.93-2.69,2.09-6.04,2.06-9.38,0-.69-.57-1.25-1.25-1.25h0c-.69,0-1.25,.57-1.25,1.26,.02,2.91-1.01,5.9-1.93,8.55-1.05,3.05-1.88,5.46-.95,7.21,.28,.52,.64,1.02,1.08,1.48-2.75,4.49-5.25,8.86-7.35,12.88-.3,.57-.11,1.28,.43,1.64l6.97,4.49c-.4,2.78,.53,5.56,2.5,7.34,1.44,1.31,3.31,1.99,5.36,1.99,.99,0,2.02-.16,3.07-.48,6.1-1.86,7.06-6.84,6.04-10.53-1.17-4.21-4.24-6.53-7.27-6.94,1.03-1.46,2.07-2.96,3.11-4.48,1.02,.4,1.93,.79,2.76,1.18,3.75,1.78,6.38,3.89,8.28,6.63,4.35,6.25,2.32,15.62-5.42,25.05-8.08,9.84-20.47,14.79-34,13.57-15.12-1.36-28.78-9.85-35.64-22.17-6.69-12.01-6.5-26.94,.52-39.94,6.76-12.51,18.51-20.53,31.45-21.47,12.83-.92,17.8,3.88,19.72,8.08,.29,.63,1.03,.91,1.66,.62,.63-.29,.91-1.03,.62-1.66-4.29-9.38-15.74-10.01-22.18-9.54-13.8,1-26.31,9.51-33.48,22.78-7.43,13.75-7.62,29.59-.51,42.35,7.26,13.03,21.67,22.02,37.6,23.45,1.43,.13,2.84,.19,4.24,.19,12.7,0,24.17-5.22,31.93-14.67,8.49-10.35,10.56-20.84,5.54-28.07-2.13-3.07-5.16-5.51-9.27-7.46Zm5.84-32.26c5.97-6.97,8.37-8.11,9.02-8.3,.09,.67,.02,3.32-3.92,11.59-1.19,2.5-2.6,5.23-4.18,8.1-2.33-1.2-4.58-2.61-6.69-4.18,2.01-2.65,3.95-5.08,5.78-7.21Zm-7.93,45.43c1.46,5.24-2.97,7.03-4.36,7.46-2.39,.73-4.53,.39-6.02-.97-1.23-1.12-1.86-2.83-1.75-4.62,.17-.08,.33-.2,.45-.36,1.63-2.05,3.31-4.27,5.01-6.61,3.07-.64,5.84,2.1,6.67,5.09Zm-12.94-.93l-6.26-4.03c3-5.63,6.72-11.9,10.81-18.19,3.01-4.63,6.08-9.05,9.04-13.05,2.2,1.64,4.55,3.1,6.97,4.36-2.46,4.35-5.28,8.98-8.31,13.64-4.09,6.3-8.31,12.25-12.25,17.28Z"/><path class="cls-2" d="M82.62,109.66c.18,.52,.67,.84,1.18,.84,.14,0,.28-.02,.41-.07,6.04-2.1,11.38-5.82,15.44-10.77,4.14-5.05,6.63-10.28,7.02-14.73,.06-.69-.45-1.3-1.14-1.36-.69-.06-1.3,.45-1.36,1.14-.34,3.95-2.64,8.69-6.46,13.35-3.82,4.65-8.64,8.01-14.32,9.99-.65,.23-1,.94-.77,1.6Z"/><path class="cls-2" d="M48.44,65.13c4.49,0,8.14-3.65,8.14-8.14s-3.65-8.14-8.14-8.14-8.14,3.65-8.14,8.14,3.65,8.14,8.14,8.14Zm0-13.77c3.1,0,5.63,2.53,5.63,5.63s-2.53,5.63-5.63,5.63-5.63-2.53-5.63-5.63,2.53-5.63,5.63-5.63Z"/><path class="cls-2" d="M50.6,102.62c4.49,0,8.14-3.65,8.14-8.14s-3.65-8.14-8.14-8.14-8.14,3.65-8.14,8.14,3.65,8.14,8.14,8.14Zm0-13.77c3.1,0,5.63,2.53,5.63,5.63s-2.53,5.63-5.63,5.63-5.63-2.53-5.63-5.63,2.53-5.63,5.63-5.63Z"/><path class="cls-2" d="M34.89,75.74c0,3.68,2.99,6.67,6.67,6.67s6.67-2.99,6.67-6.67-2.99-6.67-6.67-6.67-6.67,2.99-6.67,6.67Zm6.67-4.16c2.29,0,4.16,1.87,4.16,4.16s-1.87,4.16-4.16,4.16-4.16-1.87-4.16-4.16,1.87-4.16,4.16-4.16Z"/><path class="cls-2" d="M73.53,47.67c0-3.68-2.99-6.67-6.67-6.67s-6.67,2.99-6.67,6.67,2.99,6.67,6.67,6.67,6.67-2.99,6.67-6.67Zm-10.83,0c0-2.29,1.87-4.16,4.16-4.16s4.16,1.87,4.16,4.16-1.87,4.16-4.16,4.16-4.16-1.87-4.16-4.16Z"/></g></g><path class="cls-2" d="M83.74,39.5c.77,1.96,1.38,2.56,1.14,6.17-.05,.69,.66,1.2,1.36,1.14s1.1-.66,1.14-1.36c.15-2.18-.69-5.95-1.81-7.89-.65-1.14-.41,.37-1.08,.55-.67,.18-1.35-.14-.76,1.39Z"/></svg>