<?xml version="1.0" encoding="UTF-8"?><svg id="Layer_1" xmlns="http://www.w3.org/2000/svg" viewBox="0 0 141.73 141.73"><defs><style>.cls-1{fill:#fff;}.cls-2{fill:#233d4d;}.cls-3{fill:#fcca46;}.cls-4{fill:#f57e30;}.cls-5{fill:#579c87;}</style></defs><path class="cls-2" d="M92.81,76.68v8.61h2.13v-8.61h-2.13Zm0,0v8.61h2.13v-8.61h-2.13Zm0,0v8.61h2.13v-8.61h-2.13Zm0,0v8.61h2.13v-8.61h-2.13Zm0,0v8.61h2.13v-8.61h-2.13Zm0,0v8.61h2.13v-8.61h-2.13Zm0,0v8.61h2.13v-8.61h-2.13Zm0,0v8.61h2.13v-8.61h-2.13Zm0,0v8.61h2.13v-8.61h-2.13Zm0,0v8.61h2.13v-8.61h-2.13Zm0,0v8.61h2.13v-8.61h-2.13Zm0,0v8.61h2.13v-8.61h-2.13Zm0,0v8.61h2.13v-8.61h-2.13Zm0,0v8.61h2.13v-8.61h-2.13Zm0,0v8.61h2.13v-8.61h-2.13Zm0,0v8.61h2.13v-8.61h-2.13Zm0,0v8.61h2.13v-8.61h-2.13Zm0,0v8.61h2.13v-8.61h-2.13Zm0,0v8.61h2.13v-8.61h-2.13Zm0,0v8.61h2.13v-8.61h-2.13Zm34.75,27.79h-5.95V46.22c0-.22-.07-.44-.2-.62l-10.67-15.11c-.2-.28-.52-.45-.87-.45H31.76c-.34,0-.67,.17-.87,.45l-10.68,15.11c-.12,.18-.2,.4-.2,.62v58.25h-5.84c-.59,0-1.07,.48-1.07,1.07v5.09c0,.59,.48,1.06,1.07,1.06H127.56c.59,0,1.07-.48,1.07-1.06v-5.09c0-.59-.48-1.07-1.07-1.07Zm-37-43.77c2.18-.32,4.04-1.61,5.14-3.41,1.28,2.09,3.58,3.5,6.21,3.5s4.93-1.41,6.21-3.5c1.28,2.09,3.58,3.5,6.21,3.5,2.01,0,3.83-.82,5.14-2.13v45.81h-28.91V60.7Zm-1.06-2.05c-2.84,0-5.14-2.31-5.14-5.14v-6.22h10.28v6.22c0,2.83-2.31,5.14-5.14,5.14Zm7.28-5.14v-6.22h10.28v6.22c0,2.83-2.31,5.14-5.14,5.14s-5.14-2.31-5.14-5.14Zm17.56,5.14c-2.83,0-5.14-2.31-5.14-5.14v-6.22h10.29v6.22c0,2.83-2.31,5.14-5.14,5.14Zm-5.02-26.48l9.17,12.98h-9.71l-6.76-12.98h7.31Zm-9.71,0l6.76,12.98h-9.95l-5.54-12.98h8.73Zm-11.05,0l5.54,12.98h-10.09l-3.5-12.98h8.05Zm-16.61,0h6.35l3.5,12.98h-9.85v-12.98Zm0,15.11h10.28v6.22c0,2.83-2.31,5.14-5.14,5.14s-5.14-2.31-5.14-5.14v-6.22Zm-2.14-15.11v12.98h-9.95l3.5-12.98h6.46Zm0,15.11v6.22c0,2.83-2.31,5.14-5.14,5.14s-5.14-2.31-5.14-5.14v-6.22h10.28Zm-8.67-15.11l-3.5,12.98h-10.09l5.54-12.98h8.05Zm-3.85,15.11v6.22c0,2.83-2.31,5.14-5.14,5.14s-5.14-2.31-5.14-5.14v-6.22h10.29Zm-6.52-15.11l-5.54,12.98h-9.95l6.76-12.98h8.73Zm-5.9,15.11v6.22c0,2.83-2.31,5.14-5.14,5.14s-5.14-2.31-5.14-5.14v-6.22h10.28Zm-12.54-15.11h7.3l-6.76,12.98h-9.71l9.17-12.98Zm-10.16,15.11h10.28v6.22c0,2.83-2.31,5.14-5.14,5.14s-5.14-2.31-5.14-5.14v-6.22Zm0,11.37c1.32,1.32,3.13,2.13,5.14,2.13,2.63,0,4.93-1.41,6.21-3.5,1.28,2.09,3.58,3.5,6.21,3.5s4.93-1.41,6.21-3.5c1.28,2.09,3.58,3.5,6.21,3.5s5-1.45,6.26-3.59c1.27,2.14,3.6,3.59,6.26,3.59s4.93-1.41,6.21-3.5c1.28,2.09,3.58,3.5,6.21,3.5s4.93-1.41,6.21-3.5c1.1,1.81,2.97,3.09,5.14,3.41v20.96h-2.76v-1.77c0-3.54-2.88-6.42-6.42-6.42h-5.13c-3.54,0-6.42,2.88-6.42,6.42v1.77h-1.25v-1.77c0-3.54-2.88-6.42-6.42-6.42h-5.13c-3.54,0-6.42,2.88-6.42,6.42v1.77h-3.63v-4.98c0-.59-.48-1.07-1.07-1.07H26.31c-.59,0-1.07,.48-1.07,1.07v4.98h-3.09v-23Zm61.38,21.23v1.77h-13.7v-1.77c0-2.36,1.92-4.28,4.28-4.28h5.13c2.37,0,4.29,1.92,4.29,4.28Zm-19.22,0v1.77h-13.7v-1.77c0-2.36,1.92-4.28,4.28-4.28h5.13c2.37,0,4.29,1.92,4.29,4.28Zm-21.6-2.13v3.91h-15.34v-3.91h15.34Zm-20.57,6.04H88.43v20.68H22.15v-20.68Zm104.35,25.76H15.24v-2.95H126.5v2.95Zm-33.69-24.26h2.13v-8.61h-2.13v8.61Zm0-8.61v8.61h2.13v-8.61h-2.13Zm0,0v8.61h2.13v-8.61h-2.13Zm0,0v8.61h2.13v-8.61h-2.13Zm0,0v8.61h2.13v-8.61h-2.13Zm0,0v8.61h2.13v-8.61h-2.13Zm0,0v8.61h2.13v-8.61h-2.13Zm0,0v8.61h2.13v-8.61h-2.13Zm0,0v8.61h2.13v-8.61h-2.13Zm0,0v8.61h2.13v-8.61h-2.13Zm0,0v8.61h2.13v-8.61h-2.13Zm0,0v8.61h2.13v-8.61h-2.13Zm0,0v8.61h2.13v-8.61h-2.13Zm0,0v8.61h2.13v-8.61h-2.13Zm0,0v8.61h2.13v-8.61h-2.13Zm0,0v8.61h2.13v-8.61h-2.13Zm0,0v8.61h2.13v-8.61h-2.13Zm0,0v8.61h2.13v-8.61h-2.13Zm0,0v8.61h2.13v-8.61h-2.13Z"/><rect class="cls-3" x="15.24" y="106.6" width="111.26" height="2.95"/><path class="cls-5" d="M114.33,60.79c-2.63,0-4.93-1.41-6.21-3.5-1.28,2.09-3.58,3.5-6.21,3.5s-4.93-1.41-6.21-3.5c-1.1,1.81-2.97,3.09-5.14,3.41v43.77h28.91V58.66c-1.32,1.32-3.14,2.13-5.14,2.13Zm-19.39,24.51h-2.13v-8.61h2.13v8.61Z"/><rect class="cls-4" x="22.15" y="83.79" width="66.28" height="20.68"/><path class="cls-1" d="M50.76,32.18l-5.54,12.98h-9.95l6.76-12.98h8.73Zm12.58,0l-3.5,12.98h9.95v-12.98h-6.46Zm25.21,0h-8.05l3.5,12.98h10.09l-5.54-12.98Zm20.76,0h-7.31l6.76,12.98h9.71l-9.17-12.98Z"/><polygon class="cls-5" points="106.36 45.15 96.41 45.15 90.87 32.18 99.6 32.18 106.36 45.15"/><polygon class="cls-5" points="81.78 45.15 71.93 45.15 71.93 32.18 78.29 32.18 81.78 45.15"/><polygon class="cls-5" points="61.13 32.18 57.63 45.15 47.54 45.15 53.08 32.18 61.13 32.18"/><polygon class="cls-5" points="39.62 32.18 32.85 45.15 23.14 45.15 32.31 32.18 39.62 32.18"/><path class="cls-1" d="M119.48,47.29v6.22c0,2.83-2.31,5.14-5.14,5.14s-5.14-2.31-5.14-5.14v-6.22h10.29Zm-35.12,0v6.22c0,2.83,2.31,5.14,5.14,5.14s5.14-2.31,5.14-5.14v-6.22h-10.28Zm-24.84,0v6.22c0,2.83,2.31,5.14,5.14,5.14s5.14-2.31,5.14-5.14v-6.22h-10.28Zm-24.94,0v6.22c0,2.83,2.31,5.14,5.14,5.14s5.14-2.31,5.14-5.14v-6.22h-10.28Z"/><path class="cls-5" d="M107.06,47.29v6.22c0,2.83-2.31,5.14-5.14,5.14s-5.14-2.31-5.14-5.14v-6.22h10.28Zm-35.12,0v6.22c0,2.83,2.31,5.14,5.14,5.14s5.14-2.31,5.14-5.14v-6.22h-10.28Zm-24.95,0v6.22c0,2.83,2.31,5.14,5.14,5.14s5.14-2.31,5.14-5.14v-6.22h-10.29Zm-24.84,0v6.22c0,2.83,2.31,5.14,5.14,5.14s5.14-2.31,5.14-5.14v-6.22h-10.28Z"/></svg>