<?xml version="1.0" encoding="UTF-8"?><svg id="Layer_1" xmlns="http://www.w3.org/2000/svg" viewBox="0 0 141.73 141.73"><defs><style>.cls-1{fill:#fff;}.cls-2{fill:#233d4d;}.cls-3{fill:#fcca46;}.cls-4{fill:#f57e30;}.cls-5{fill:#a1c181;}</style></defs><g><g><g><path class="cls-5" d="M120.88,66.16l3.21-4.03c1.28-1.6,1.12-3.91-.36-5.32l-19.61-18.69c-.65-.61-1.71-.1-1.62,.79l.51,5.04c-7.42,1.42-12.73,7.54-13.49,14.67-.2,1.86,.12,3.72,.6,5.52,.08,.3,.15,.6,.21,.91,1.63,8.47-3.92,16.66-12.39,18.28-6.88,1.32-13.57-2.09-16.72-7.96l-19.51,4.83c-1.73,.43-3.03,2.03-2.84,3.81,.22,2.06,2.14,3.45,4.14,3.07l7.94-1.52,3.49,18.19v.02l9.29,3,2.63-10.75c.29-1.29,1.58-2.05,2.86-1.74,11.58,2.81,21.89-4.27,25.96-7.61,1.03-.85,2.57-.64,3.35,.44l7.35,10.1,9.59-7.11-9-24.49,.06,.08,10.57,1.88c1.42,.25,2.87-.29,3.77-1.42Z"/><path class="cls-2" d="M64.57,108.3l-11.16-3.61-3.41-17.74-6.78,1.3c-1.28,.24-2.61-.06-3.66-.83-1.05-.77-1.73-1.96-1.87-3.26-.25-2.31,1.35-4.49,3.72-5.08l20.4-5.05,.43,.81c3,5.6,9.21,8.56,15.46,7.36,3.79-.73,7.07-2.89,9.23-6.08,2.16-3.19,2.96-7.04,2.23-10.83-.05-.28-.12-.56-.19-.84-.62-2.37-.81-4.2-.63-5.94,.8-7.54,6.12-13.63,13.38-15.47l-.4-4c-.09-.9,.38-1.74,1.19-2.13,.81-.4,1.76-.25,2.41,.37l19.61,18.69c1.94,1.85,2.14,4.81,.47,6.9l-3.21,4.03c-1.17,1.47-3.05,2.17-4.9,1.85l-8.58-1.53,8.57,23.31-11.25,8.34-8.05-11.06c-.19-.26-.47-.43-.79-.47-.32-.05-.62,.05-.86,.25-4.07,3.34-14.84,10.8-26.99,7.85-.32-.08-.66-.03-.93,.14-.26,.16-.44,.41-.5,.71l-2.94,12.01Zm-9.11-5.42l7.42,2.4,2.33-9.53c.2-.9,.75-1.68,1.55-2.17,.82-.51,1.78-.66,2.73-.43,11.12,2.7,21.14-4.26,24.93-7.38,.75-.62,1.69-.89,2.65-.76,.96,.12,1.83,.64,2.4,1.42l6.65,9.14,7.93-5.88-11.38-30.96,4.51,5.9,10.12,1.8c1,.18,2.01-.21,2.65-1l.92,.73-.92-.73,3.21-4.03c.9-1.13,.79-2.73-.25-3.73l-19.19-18.29,.56,5.53-1.06,.2c-6.77,1.3-11.81,6.78-12.54,13.64-.15,1.45,.02,3.02,.56,5.1,.09,.33,.16,.65,.22,.99,.85,4.41-.07,8.88-2.59,12.59-2.52,3.71-6.33,6.22-10.74,7.07-6.96,1.33-13.88-1.77-17.52-7.76l-18.65,4.62c-1.21,.3-2.07,1.42-1.95,2.54,.07,.66,.4,1.23,.93,1.62,.53,.39,1.17,.54,1.82,.41l9.09-1.75,3.59,18.68Z"/></g><g><path class="cls-3" d="M90.59,68.12l-29.37,7.27c3.14,5.87,9.83,9.28,16.72,7.96,8.47-1.63,14.02-9.81,12.39-18.28"/><path class="cls-2" d="M74.94,84.81c-6.11,0-11.79-3.32-14.76-8.87l-.71-1.33,29.94-7.42c-.04-.63-.12-1.27-.24-1.91l2.31-.44c.85,4.41-.07,8.88-2.59,12.59-2.52,3.71-6.33,6.22-10.74,7.07-1.08,.21-2.15,.31-3.21,.31Zm-11.89-8.67c3.22,4.74,8.92,7.15,14.66,6.05,3.79-.73,7.07-2.89,9.23-6.08,1.33-1.97,2.15-4.18,2.4-6.48l-26.3,6.51Z"/></g></g><path class="cls-1" d="M74.43,119.9c-12.85,0-25.41-3.81-36.3-11.16-.78-.53-1.16-1.46-.97-2.37,.19-.91,.89-1.6,1.8-1.78l13.47-2.59,.34,.16c9.93,4.57,20.86,5.9,31.61,3.84,10.74-2.06,20.41-7.34,27.94-15.27l.26-.27,13.47-2.59c.91-.17,1.83,.21,2.34,.98,.51,.78,.5,1.79-.03,2.57-9.76,14.34-24.52,24.03-41.54,27.3-4.13,.79-8.28,1.18-12.39,1.18Zm-34.86-13.03c13.84,9.29,30.46,12.68,46.81,9.54,16.36-3.14,30.54-12.44,39.95-26.19l-12.57,2.41c-7.84,8.13-17.83,13.55-28.94,15.68-11.11,2.13-22.4,.8-32.69-3.85l-12.57,2.41Z"/><path class="cls-1" d="M75.88,127.5c-12.85,0-25.41-3.81-36.3-11.16-.54-.36-.68-1.1-.32-1.63,.36-.54,1.09-.68,1.63-.32,13.86,9.35,30.53,12.77,46.93,9.62,16.41-3.15,30.62-12.49,40.03-26.31,.37-.54,1.1-.68,1.64-.31,.54,.37,.68,1.1,.31,1.63-9.76,14.34-24.51,24.03-41.54,27.3-4.13,.79-8.28,1.18-12.39,1.18Z"/></g><g><g><g><g><path class="cls-4" d="M27.32,59.36c.97-.38,1.99,.43,1.84,1.47l-.51,3.39-.51,3.39c-.16,1.03-1.37,1.51-2.19,.86l-2.68-2.14-2.68-2.14c-.82-.65-.62-1.94,.35-2.32l3.2-1.25,3.2-1.25Z"/><path class="cls-2" d="M26.78,69.95c-.56,0-1.11-.19-1.57-.56l-5.37-4.28c-.72-.57-1.06-1.45-.93-2.36,.14-.91,.73-1.65,1.58-1.98l6.39-2.51c.85-.33,1.79-.19,2.5,.38,.72,.57,1.06,1.45,.93,2.36l-1.02,6.79c-.14,.91-.73,1.65-1.58,1.98-.31,.12-.62,.18-.94,.18Zm.96-9.49l-6.39,2.51s-.1,.04-.11,.14c-.02,.1,.05,.15,.07,.17l5.37,4.28s.08,.06,.18,.03c.1-.04,.11-.11,.11-.14l1.02-6.79s.02-.1-.07-.17c-.08-.06-.15-.04-.18-.03h0Z"/></g><g><path class="cls-4" d="M27.75,57.39l7.68-37.54c.21-1,1.04-1.76,2.06-1.87l24.26-2.55c1.25-.13,2.38,.74,2.57,1.98l3.83,24.98c.16,1.06-.42,2.1-1.41,2.52l-35.78,15.12c-1.74,.74-3.6-.78-3.22-2.64Z"/><path class="cls-2" d="M30.05,61.39c-.8,0-1.59-.27-2.23-.8-1.02-.83-1.48-2.15-1.22-3.44l7.68-37.54c.31-1.51,1.55-2.64,3.09-2.8l24.27-2.55c1.88-.2,3.57,1.11,3.86,2.97l3.83,24.98c.25,1.6-.62,3.15-2.11,3.78l-35.78,15.12c-.44,.19-.91,.28-1.38,.28ZM62.01,16.59s-.08,0-.12,0l-24.27,2.55c-.51,.05-.92,.43-1.03,.93l-7.68,37.54c-.13,.63,.24,1.01,.41,1.14,.16,.14,.61,.42,1.2,.17l35.78-15.12c.5-.21,.79-.73,.7-1.26l-3.83-24.98c-.09-.58-.59-1-1.16-1Z"/></g><rect class="cls-2" x="17.45" y="36.62" width="57.01" height="2.35" transform="translate(-12.25 50.16) rotate(-51.42)"/><path class="cls-2" d="M46.99,28.56c-.26,0-.52-.08-.73-.26l-10.31-8.22c-.51-.41-.59-1.15-.19-1.65,.41-.51,1.15-.59,1.65-.19l10.31,8.22c.51,.41,.59,1.15,.19,1.65-.23,.29-.57,.44-.92,.44Z"/><path class="cls-2" d="M67.15,44.48c-.26,0-.52-.08-.73-.26l-11.06-8.81c-.51-.41-.59-1.15-.19-1.65,.41-.51,1.15-.59,1.65-.19l11.06,8.81c.51,.41,.59,1.15,.19,1.65-.23,.29-.57,.44-.92,.44Z"/></g><path class="cls-2" d="M18.06,99.19c-3-1.81-5.11-4.68-5.95-8.09-.84-3.4-.3-6.93,1.51-9.93l.56-.93h0l8.47-14.02,2.01,1.22-9.21,15.24c-1.35,2.4-1.73,5.17-1.07,7.86,.69,2.79,2.42,5.15,4.89,6.63l-1.22,2.02Z"/></g><path class="cls-2" d="M34.81,65.42c-.47,0-.92-.28-1.1-.75-.24-.61,.06-1.29,.67-1.52l35.53-13.87c2.49-.97,3.96-3.58,3.51-6.21l-4.22-24.35c-.11-.64,.32-1.25,.96-1.36,.65-.11,1.25,.32,1.36,.96l4.22,24.35c.65,3.73-1.44,7.43-4.97,8.81l-35.53,13.87c-.14,.05-.29,.08-.43,.08Z"/></g></svg>