<?xml version="1.0" encoding="UTF-8"?><svg id="Layer_1" xmlns="http://www.w3.org/2000/svg" viewBox="0 0 141.73 141.73"><defs><style>.cls-1{fill:#fff;}.cls-2{fill:#233d4d;}.cls-3{fill:#fcca46;}.cls-4{fill:#579c87;}</style></defs><path class="cls-1" d="M65.18,26.86l-.68,12.02s2.69,6.49,2.5,6.68-3.72,3.91-3.72,3.91l-2.48,40.75,25.19-.52-5.91-10.78,6.29-24.6-9.86-6.79-1.98-5.03,3.88-5.06-1.97-10.59-5.7-3.34-5.58,3.34Z"/><polygon class="cls-4" points="114.73 105.02 27.31 105.12 22.45 116.57 120.08 116.57 114.73 105.02"/><g><path class="cls-3" d="M102.88,84.95c-4.06-2-13,1.31-19.43,2.1,7.4-3.2,13.32-8.61,12.77-10.87-1.02-4.17-7.19-19.44-8.33-22.93,0,0-11.51,7.28-25.1-2.45-2.47,.87-7.56,2.27-8.2,4.24-.82,2.54-3.69,16.89-2.71,23.96,.37,2.65,2.37,3.77,3.82,3.59,1.26-.16,3.47-.86,5.62-1.77-.45,2.2-1.19,4.39-1.93,6.22,0,0-11.16-3.64-17.54-2.18-5.45,1.61-5.9,7.02-4.37,8.69,2.08,2.27,7.18,5.05,14.14,7.68l-1.92,2.91c-1.5,2.22-2.58,5.11-2.58,5.11,0,0,8.43-.39,21.46-2.8,0,0,11.69,3.41,26.15,2.82,.66-.03,1.12-.64,.91-1.26-.6-1.77-1.82-5.03-3.32-7.09,1.86-.71,3.06-1.24,3.06-1.24,4.99-2.14,8.62-4.3,10.3-6.13,.93-1.02,1.26-6.59-2.8-8.59Zm-35.79-19.08c.68-1.92,1.4-4.85,3.58-6.36,2.66,3.61,7.29-.98,7.6,.29,1.24,7.62-8.11,11.3-8.11,11.3,0,0-3.75-3.32-3.07-5.24Zm-.08,20.42c5.78-4.43,2.97-5.68,4.41-6.77,3.34-.99,8.44,1.1,8.44,1.1,0,0,2.41,3.63,1.87,4.46-.54,.84-8.13,5.38-14.72,1.21Zm14.48-7.17c-.53-7.26,1.84-15.73,1.84-15.73,0,0,2.04,7.45,3.48,11.58,.29,.84-3.16,2.87-5.32,4.15Z"/><g><path class="cls-2" d="M122.25,116.88l-6.03-12.63c-.22-.46-.68-.75-1.19-.75h-22.19c-.73,0-1.32,.59-1.32,1.32s.59,1.32,1.32,1.32h21.36l4.76,9.99H22.78l4.76-9.99h19.82c.73,0,1.32-.59,1.32-1.32s-.59-1.32-1.32-1.32H26.71c-.51,0-.97,.29-1.19,.75l-6.03,12.63c-.2,.41-.17,.89,.08,1.28s.66,.62,1.12,.62H121.05c.45,0,.88-.23,1.12-.62s.27-.87,.08-1.28Z"/><path class="cls-2" d="M82.64,88.74c.24,.69,1,1.05,1.69,.81,5.1-1.79,13.69-3.26,15.13-3.26,1.86,0,3.96,1.47,4.79,3.35,.36,.81,.6,1.99-.31,2.98-1.53,1.67-5.03,3.74-9.84,5.81-.67,.29-.98,1.07-.69,1.74,.22,.5,.7,.8,1.22,.8,.17,0,.35-.03,.52-.11,3.65-1.57,8.47-3.96,10.75-6.46,1.44-1.57,1.72-3.7,.78-5.84-1.26-2.86-4.29-4.93-7.21-4.93-1.78,0-10.61,1.51-16,3.41-.69,.24-1.05,1-.81,1.69Z"/><path class="cls-2" d="M94.4,90.93c-.05-.73-.69-1.26-1.42-1.22-6.36,.47-13.62,4.5-18.92,7.45-.64,.35-.87,1.16-.51,1.8,.24,.44,.69,.68,1.16,.68,.22,0,.44-.05,.64-.17,5.09-2.83,12.05-6.69,17.83-7.12,.73-.05,1.28-.69,1.22-1.42Z"/><path class="cls-2" d="M72.17,68.11c-.67,.3-.97,1.08-.67,1.75,.22,.49,.7,.78,1.21,.78,.18,0,.36-.04,.54-.11,3.32-1.48,5.45-3.47,6.32-5.9,1.02-2.86-.14-5.25-.19-5.35-.19-.37-.54-.63-.95-.71-.41-.07-.83,.05-1.13,.33-.01,.01-1.49,1.3-3.63,1.1-.73-.07-1.37,.47-1.44,1.19-.07,.73,.46,1.37,1.19,1.44,1.6,.15,2.94-.23,3.92-.68,.03,.52-.03,1.13-.26,1.78-.62,1.73-2.27,3.2-4.91,4.37Z"/><path class="cls-2" d="M55.83,74.79c.21,.5,.7,.8,1.22,.8,.17,0,.35-.03,.52-.11,7.31-3.12,10.87-8.2,11.15-10.22,.35-2.51,1.16-4.12,2.22-4.41,.71-.19,1.12-.91,.94-1.62s-.92-1.13-1.62-.94c-2.2,.59-3.64,2.87-4.16,6.6-.08,.58-1.33,2.68-4.03,4.86l-.97-9.39c-.08-.73-.73-1.26-1.45-1.18-.73,.08-1.26,.73-1.18,1.45l1.12,10.85c-.91,.55-1.93,1.08-3.06,1.56-.67,.29-.98,1.06-.7,1.74Z"/><path class="cls-2" d="M64.02,106.71c-7.08,1-12.81,1.18-15.66,1.2,.43-.93,1.02-2.07,1.68-3.06,.41-.61,.25-1.43-.36-1.84-.61-.41-1.43-.25-1.84,.36-1.56,2.32-2.68,5.26-2.73,5.38-.15,.4-.1,.85,.14,1.2,.24,.35,.63,.57,1.05,.59,.09,0,.67,.02,1.65,.02,3.39,0,11.63-.23,21.73-2.1,.24-.05,.46-.16,.63-.31,10.77,2.16,19.72,2.41,23.32,2.41,.99,0,1.58-.02,1.69-.02,.43-.02,.82-.23,1.05-.59,.24-.35,.29-.8,.14-1.2-.72-1.91-3.32-8.15-6.66-8.45-1.38-.12-2.96,.2-4.78,.57-2.28,.47-4.87,1-7.71,.8-1.91-.14-5.52-2.14-9.34-4.27-5.79-3.22-13-7.22-19.36-7.7-.73-.05-1.36,.49-1.42,1.22-.05,.73,.49,1.36,1.22,1.42,5.78,.43,12.71,4.28,18.27,7.37,4.44,2.47,7.94,4.42,10.44,4.59,3.21,.23,6.1-.37,8.43-.84,1.62-.33,3.02-.62,4.02-.53,.77,.07,2.33,2.05,3.68,4.98-4.4-.03-15.78-.46-28.42-3.71-14.91-3.83-24.54-8.69-27.18-11.57-.91-.99-.67-2.17-.31-2.98,.83-1.88,2.93-3.35,4.79-3.35,3.92,0,12.4,1.92,15.37,2.63,.65,.15,2.33,.35,2.63-.61,.62-1.62,1.73-6.74,1.73-6.78,1.04-.8,2.14-1.74,3.28-2.83,2.98-2.84,5.2-5.64,5.29-5.75,.45-.57,.36-1.41-.22-1.86-.57-.45-1.41-.36-1.86,.22-.02,.03-2.19,2.76-5.04,5.48-3.56,3.4-6.64,5.28-8.67,5.3h0c-.6,0-1.86-.66-2.06-2.16-.1-1.4,1.78-21.18,2.86-24.5,.37-1.13,2.94-2.6,6.08-3.87,1.95,1.7,8.13,6.39,17.01,6.39,2.52,0,5.26-.38,8.17-1.31,1.16,2.38,3.05,6.77,4.64,11.03,2.56,6.86,3.24,10.38,3.02,11.39-.52,2.38-7.06,3.74-10.2,4.39-.67,.14-1.28,.27-1.79,.38-.02,0-.05,.01-.07,.02-1.7,.5-3.01,1.17-4.18,1.77-1.01,.52-1.88,.96-2.69,1.12-3.16,.6-5.45-.11-6.84-.84,1.03-.62,2.22-1.55,3.06-2.83,.4-.61,.23-1.43-.38-1.83-.61-.4-1.43-.23-1.83,.38-1.26,1.92-3.82,2.79-3.84,2.8-.43,.14-.76,.49-.87,.93-.11,.44,0,.9,.32,1.23,.13,.14,2.91,3.03,8.07,3.03,.87,0,1.81-.08,2.81-.27,1.19-.23,2.27-.78,3.4-1.36,1.1-.57,2.24-1.15,3.68-1.57,.49-.11,1.06-.23,1.69-.36,4.53-.94,11.37-2.36,12.25-6.42,.97-4.46-6.6-21.78-8.36-25.14-.49-1.33-1.86-2.59-4.2-3.84-.64-.34-1.45-.1-1.79,.54-.34,.64-.1,1.45,.54,1.79,.97,.52,1.63,.97,2.07,1.34-10.04,2.9-17.59-1.42-20.78-3.82,.77-.25,1.55-.48,2.3-.69,.57-.16,.97-.67,.98-1.27l.04-4.8c1.19,.65,2.32,1.01,2.98,1.01s1.86-.38,3.09-1.07l.04,4.86c0,.59,.4,1.11,.98,1.27,.02,0,2.07,.56,4.44,1.46,.15,.06,.31,.09,.47,.09,.53,0,1.04-.33,1.24-.86,.26-.68-.09-1.45-.77-1.7-1.5-.56-2.85-1-3.71-1.26l-.04-5.85c1.12-1.16,1.94-2.6,1.94-4.25,0-.51,0-1.08,.02-1.69,.07-4.92,0-8.81-1.64-10.47-2.25-2.3-5.89-2.33-6.04-2.33s-3.79,.03-6.04,2.33c-1.63,1.67-1.71,5.56-1.64,10.47,0,.61,.02,1.18,.02,1.69,0,1.69,.87,3.17,2.05,4.35l-.04,5.74c-3.15,.93-11,3.56-12.14,7.07-1.17,3.62-3.19,23.96-2.97,25.64,.37,2.78,2.71,4.49,4.69,4.49h.04c1.23-.01,2.6-.42,4.11-1.21-.25,.96-.54,1.97-.8,2.78-3.16-.75-11.66-2.67-15.86-2.67-2.92,0-5.95,2.07-7.21,4.93-.94,2.14-.66,4.26,.78,5.84,3.57,3.91,14.92,8.84,28.27,12.3Zm2.6-79.57c1.45-1.48,4.06-1.53,4.15-1.53,.08,0,2.71,.06,4.15,1.53,.99,1.01,.92,5.94,.88,8.58,0,.62-.02,1.2-.02,1.73,0,2.59-4.19,4.62-5.01,4.66-.84-.04-5.02-2.07-5.02-4.66,0-.53,0-1.11-.02-1.73-.04-2.65-.11-7.57,.88-8.58Z"/><path class="cls-2" d="M69.52,80.36c.43,.59,1.26,.72,1.85,.29,.98-.72,3.01-.05,4.64,.48,.3,.1,.6,.2,.87,.28,.62,.19,1.29,.28,1.98,.28,3.57,0,7.79-2.28,9.31-4.27,.26-.35,.34-.8,.21-1.21l-3.98-12.25c-.02-.07-.05-.13-.08-.19,.28-1.81,.49-3.01,.49-3.05,.12-.72-.36-1.4-1.08-1.53-.72-.12-1.4,.36-1.53,1.08-.09,.54-2.17,12.59-2.1,18.66-.89,.16-1.74,.18-2.45-.04-.26-.08-.54-.17-.83-.27-2.09-.69-4.95-1.63-7.02-.11-.59,.43-.72,1.26-.29,1.85Zm13.96-10.67l2.15,6.6c-.66,.6-1.71,1.26-2.88,1.78,.04-2.34,.36-5.45,.73-8.39Z"/></g></g><path class="cls-2" d="M78.15,50.85s5.43,1.88,7.1,3.47v-3.21s-4.67-2.46-7-3.03l-.09,2.77Z"/></svg>