<?xml version="1.0" encoding="UTF-8"?><svg id="Layer_1" xmlns="http://www.w3.org/2000/svg" viewBox="0 0 141.73 141.73"><defs><style>.cls-1{fill:#233d4d;}.cls-2{fill:#f57e30;}.cls-3{fill:#a1c181;}.cls-4{fill:#e7e4e0;}.cls-5{fill:#283741;}</style></defs><g><g id="color"><g><g><path class="cls-3" d="M62.63,75.81c2.73,0,4.94,2.21,4.94,4.94,0,1.29-.5,2.45-1.31,3.33,1.66,.17,2.96,1.56,2.96,3.26,0,1.82-1.48,3.29-3.29,3.29-.91,0-1.65,.74-1.65,1.65v3.29h-4.94c0,2.73-2.21,4.94-4.94,4.94-1.43,0-2.71-.62-3.61-1.59-.7,1.89-2.49,3.24-4.62,3.24-2.42,0-4.42-1.74-4.85-4.03-1.21,1.45-3,2.38-5.03,2.38-2.66,0-4.94-1.59-5.98-3.86-.68,.35-1.44,.57-2.25,.57-2.73,0-4.94-2.21-4.94-4.94,0-.59,.12-1.15,.31-1.68-.1,0-.21,.03-.31,.03-1.82,0-3.29-1.48-3.29-3.29s1.48-3.29,3.29-3.29c.11,0,.21,.02,.31,.03-.19-.53-.31-1.09-.31-1.68,0-2.73,2.21-4.94,4.94-4.94,.72,0,1.4,.16,2.02,.44-.22-.66-.37-1.35-.37-2.09,0-3.64,2.95-6.59,6.59-6.59s6.59,2.95,6.59,6.59c0-1.82,1.48-3.29,3.29-3.29h16.47v3.29Z"/><path class="cls-3" d="M69.22,87.34c0,1.81-1.48,3.29-3.29,3.29-.91,0-1.65,.74-1.65,1.65v3.29h-4.94c0,.92-.25,1.78-.68,2.5-12.87-2.88-22.39-13.23-22.39-25.57,0-1.1,.08-2.21,.23-3.28,3.54,.12,6.36,3.01,6.36,6.57,0-1.81,1.48-3.29,3.29-3.29h16.47v3.29c2.73,0,4.94,2.21,4.94,4.94,0,1.28-.51,2.45-1.32,3.33,1.66,.16,2.97,1.57,2.97,3.26Z"/></g><g><path class="cls-3" d="M112.49,89.47c1.72-1.19,2.85-3.17,2.85-5.42,0-3.64-2.95-6.59-6.59-6.59-2.05,0-3.86,.96-5.07,2.43-.38-1.4-1.65-2.43-3.17-2.43-.66,0-1.27,.2-1.79,.53-.51-2.19-2.46-3.83-4.8-3.83s-4.18,1.55-4.75,3.66c-.57-.23-1.19-.36-1.84-.36-2.73,0-4.94,2.21-4.94,4.94-1.82,0-3.29,1.48-3.29,3.29,0,.89,.35,1.69,.92,2.28-.26,.14-.5,.31-.73,.49l-.03,.02c-.21,.17-.41,.36-.59,.57-.03,.04-.06,.07-.09,.11-.15,.18-.29,.37-.41,.58-.05,.08-.09,.17-.14,.26-.09,.17-.18,.34-.25,.53-.01,.04-.04,.07-.05,.11v.02c-.17,.51-.29,1.05-.29,1.63,0,2.14,1.37,3.95,3.28,4.64v.03c.15,.05,.3,.08,.45,.11,.1,.02,.19,.06,.28,.07,.3,.06,.61,.09,.93,.09,.34,0,.67-.03,.98-.1,.31-.06,.61-.16,.9-.28h.02c.28,.68,.8,1.23,1.44,1.59-.01,.15-.04,.28-.04,.43,0,2.73,2.21,4.94,4.94,4.94,1.87,0,3.47-1.05,4.31-2.57,.59,.57,1.39,.92,2.28,.92s1.69-.35,2.28-.92c.84,1.53,2.45,2.57,4.31,2.57,2.73,0,4.94-2.21,4.94-4.94,0-.11-.02-.21-.03-.31,.53,.19,1.09,.31,1.68,.31,2.73,0,4.94-2.21,4.94-4.94,0-1.98-1.17-3.67-2.85-4.46Z"/><path class="cls-3" d="M115.35,93.93c0,2.73-2.21,4.94-4.94,4.94-.59,0-1.15-.12-1.68-.31,0,.1,.03,.21,.03,.31,0,.49-.08,.99-.23,1.43-12.32-1.45-22.14-10.43-24.1-21.89,.81-.59,1.83-.96,2.92-.96,.66,0,1.27,.13,1.85,.36,.56-2.11,2.45-3.66,4.74-3.66s4.3,1.63,4.81,3.82c.51-.33,1.12-.53,1.78-.53,1.52,0,2.78,1.04,3.16,2.42,1.22-1.47,3.01-2.42,5.07-2.42,3.64,0,6.59,2.95,6.59,6.59,0,2.26-1.14,4.23-2.85,5.42,1.68,.79,2.85,2.49,2.85,4.46Z"/></g><g><path class="cls-3" d="M77.46,70.87c0-2.73-2.21-4.94-4.94-4.94s-4.94,2.21-4.94,4.94-2.21,4.94-4.94,4.94c-1.65,0-3.09-.81-3.99-2.05-1.07,2.18-3.3,3.7-5.89,3.7-3.64,0-6.59-2.95-6.59-6.59,0-.17,.04-.32,.05-.48-.5,.3-1.07,.48-1.7,.48-1.58,0-2.9-1.12-3.22-2.6-.99,.59-2.13,.96-3.37,.96-3.64,0-6.59-2.95-6.59-6.59-1.82,0-3.29-1.48-3.29-3.29,0-.82,.31-1.56,.81-2.14-2.41-.98-4.1-3.34-4.1-6.1,0-3.64,2.95-6.59,6.59-6.59,1.23,0,2.38,.36,3.36,.95,.34-2.4,2.38-4.25,4.87-4.25,.59,0,1.15,.12,1.68,.31,0-.1-.03-.21-.03-.31,0-1.35,.81-2.5,1.97-3.01-.19-.61-.32-1.25-.32-1.93,0-3.64,2.95-6.59,6.59-6.59,.65,0,1.26,.12,1.86,.3,.59-2.07,2.47-3.59,4.73-3.59,.67,0,1.32,.14,1.9,.38,.5-1.19,1.67-2.03,3.04-2.03,.63,0,1.21,.19,1.71,.49-.02-.16-.07-.32-.07-.49,0-2.73,2.95-4.94,6.59-4.94,2.88,0,5.31,1.4,6.2,3.33,.13-.02,.25-.04,.39-.04,1.82,0,3.29,1.48,3.29,3.29,0,.25-.03,.5-.09,.73,1.21-1.44,3-2.38,5.03-2.38,3.64,0,6.59,2.95,6.59,6.59,0,.11-.03,.21-.03,.31,.53-.19,1.09-.31,1.68-.31,2.73,0,4.94,2.21,4.94,4.94,0,.59-.12,1.15-.31,1.68,.1,0,.21-.03,.31-.03,1.7,0,3.09,1.3,3.26,2.96,.88-.81,2.04-1.31,3.33-1.31,1.98,0,3.67,1.17,4.46,2.85,1.07-.75,2.37-1.2,3.78-1.2,3.64,0,6.59,2.95,6.59,6.59,0,1.28-.38,2.46-1.01,3.47,.32-.1,.65-.17,1.01-.17,1.82,0,3.29,1.48,3.29,3.29,0,1.58-1.12,2.9-2.6,3.22,.59,.99,.96,2.13,.96,3.37,0,3.64-2.95,6.59-6.59,6.59-1.23,0-2.38-.36-3.36-.95-.34,2.4-2.38,4.25-4.87,4.25-2.13,0-3.93-1.35-4.62-3.24-.9,.97-2.18,1.59-3.61,1.59-1.29,0-2.45-.5-3.33-1.31-.17,1.66-1.56,2.96-3.26,2.96,0,3.64-2.95,6.59-6.59,6.59s-6.59-2.95-6.59-6.59Z"/><path class="cls-3" d="M119.33,57.6c.59,.99,.96,2.14,.96,3.38,0,3.64-2.95,6.59-6.59,6.59-1.24,0-2.37-.36-3.36-.96-.35,2.41-2.39,4.25-4.88,4.25-2.13,0-3.92-1.35-4.63-3.25-.89,.97-2.17,1.6-3.61,1.6-1.29,0-2.45-.51-3.33-1.32-.16,1.66-1.56,2.97-3.26,2.97,0,1.93-.82,3.67-2.16,4.86-4.09-1.83-7.92-4.13-11.43-6.82-1.2-.91-2.36-1.86-3.48-2.87-10.94-9.82-18.12-23.77-19.06-39.41,.48-.16,.99-.25,1.53-.25,.68,0,1.32,.13,1.89,.38,.51-1.19,1.68-2.03,3.05-2.03,.63,0,1.22,.18,1.71,.49-.02-.16-.07-.33-.07-.49,0-2.73,2.95-4.94,6.59-4.94,2.88,0,5.3,1.4,6.19,3.33,.13-.02,.26-.03,.4-.03,1.81,0,3.29,1.48,3.29,3.29,0,.25-.03,.49-.08,.72,1.2-1.43,3-2.37,5.02-2.37,3.64,0,6.59,2.95,6.59,6.59,0,.1-.03,.21-.03,.31,.53-.2,1.09-.31,1.68-.31,2.73,0,4.94,2.21,4.94,4.94,0,.59-.12,1.15-.31,1.68,.1-.02,.21-.03,.31-.03,1.7,0,3.1,1.3,3.26,2.97,.87-.81,2.04-1.32,3.33-1.32,1.98,0,3.67,1.17,4.46,2.85,1.07-.76,2.37-1.2,3.77-1.2,3.64,0,6.59,2.95,6.59,6.59,0,1.28-.38,2.45-1,3.48,.31-.12,.66-.18,1-.18,1.81,0,3.29,1.48,3.29,3.29,0,1.58-1.12,2.9-2.6,3.21Z"/></g></g><path class="cls-2" d="M55.63,121.94c10.54-6.59,10.54-18.12,10.54-18.12,0-2.22-1.11-4.19-2.9-5.6-2.09-1.65-4.95-2.3-7.48-3.22-6.27-2.27-12.82-5.39-16.12-11.21-1.06-1.87-1.61-4.68-1.61-6.33,0-.91,.79-1.65,1.76-1.65s1.76,.74,1.76,1.65c0,1.65,1.04,3.66,1.72,4.68,1.68,2.53,4.25,4.41,7.06,5.76,2.61,1.25,5.33,1.84,8.16,2.38,3.85,.73,7.87,1.59,11.16,3.65,0,0,3.51-4.94,3.51-11.53,0-3.17-.53-6.59-2.53-9.22-1.95-2.58-5.37-3.67-8.25-5.05-2.78-1.33-5.03-4.14-5.03-7.14,0-.91,.79-1.65,1.76-1.65s1.76,.74,1.76,1.65c0,0,1.76,4.94,8.78,4.94,0,0,10.54,0,10.54-16.47,0-.91,.79-1.65,1.76-1.65s1.76,.74,1.76,1.65c-.03,3.72-.77,7.51-1.79,11.09-1.62,5.65-5.23,10.91-5.23,16.92v14.83c3.4-3.13,9.7-6.59,19.32-6.59,.97,0,1.76,.74,1.76,1.65s-.79,1.65-1.76,1.65c-7.02,0-12.59,4.67-16.37,9.8-2.11,2.86-3.96,6.04-4.98,9.43-1.13,3.75-1.36,7.8-1.46,11.68-.02,.68-.03,1.36-.03,2.04h-17.57Z"/><path class="cls-5" d="M92.28,123.58H46.16c-.91,0-1.65-.74-1.65-1.65s.74-1.65,1.65-1.65h46.13c.91,0,1.65,.74,1.65,1.65s-.74,1.65-1.65,1.65Z"/><g><path class="cls-4" d="M90.63,60.98c-.91,0-1.65-.74-1.65-1.65v-1.65c0-.91,.74-1.65,1.65-1.65s1.65,.74,1.65,1.65v1.65c0,.91-.74,1.65-1.65,1.65Z"/><path class="cls-4" d="M56.04,84.05c-.91,0-1.65-.74-1.65-1.65v-1.65c0-.91,.74-1.65,1.65-1.65s1.65,.74,1.65,1.65v1.65c0,.91-.74,1.65-1.65,1.65Z"/><path class="cls-4" d="M102.17,85.69c-.91,0-1.65-.74-1.65-1.65v-1.65c0-.91,.74-1.65,1.65-1.65s1.65,.74,1.65,1.65v1.65c0,.91-.74,1.65-1.65,1.65Z"/><path class="cls-4" d="M112.05,49.45c-.91,0-1.65-.74-1.65-1.65v-1.65c0-.91,.74-1.65,1.65-1.65s1.65,.74,1.65,1.65v1.65c0,.91-.74,1.65-1.65,1.65Z"/><path class="cls-4" d="M64.28,47.8c-.91,0-1.65-.74-1.65-1.65v-1.65c0-.91,.74-1.65,1.65-1.65s1.65,.74,1.65,1.65v1.65c0,.91-.74,1.65-1.65,1.65Z"/></g></g><g id="line"><g><path class="cls-1" d="M85.87,78.88c-4.15,0-7.53-3.38-7.53-7.53v-1.51h3.01v1.51c0,2.49,2.03,4.52,4.52,4.52s4.52-2.03,4.52-4.52c0-.83,.67-1.51,1.51-1.51,.7,0,1.51-.8,1.51-1.51h3.01c0,1.88-1.37,3.63-3.12,4.27-.6,3.56-3.7,6.28-7.43,6.28Z"/><path class="cls-1" d="M113.7,69.22c-1.42,0-2.85-.39-4.12-1.14l1.66-2.85c.78,.46,1.61,.69,2.47,.69,2.73,0,4.94-2.22,4.94-4.94,0-.88-.24-1.73-.72-2.52-.27-.46-.31-1.02-.1-1.5,.21-.49,.65-.84,1.17-.95,.75-.16,1.3-.84,1.3-1.61,0-.91-.74-1.65-1.65-1.65-.14,0-.3,.03-.5,.09-.65,.21-1.38,0-1.8-.56-.42-.54-.46-1.3-.1-1.88,.5-.8,.76-1.7,.76-2.6,0-2.73-2.22-4.94-4.94-4.94-1.01,0-1.99,.31-2.83,.9-.4,.28-.9,.37-1.37,.24-.47-.13-.86-.45-1.07-.89-.55-1.17-1.69-1.9-2.97-1.9-.81,0-1.6,.31-2.22,.88-.46,.42-1.12,.54-1.7,.33-.58-.22-.99-.75-1.05-1.37-.09-.84-.79-1.48-1.62-1.48-.56,.05-1.19-.17-1.54-.62-.35-.45-.52-1.03-.32-1.56,.14-.4,.21-.76,.21-1.12,0-1.82-1.48-3.29-3.29-3.29-.36,0-.72,.07-1.12,.21-.52,.19-1.09,.1-1.54-.22-.44-.33-.69-.85-.67-1.4,0-.05,.02-.24,.03-.3,0-2.67-2.22-4.88-4.94-4.88-1.44,0-2.81,.65-3.77,1.79-.49,.58-1.31,.76-1.99,.42-.68-.34-1.04-1.1-.87-1.84,.03-.14,.05-.26,.05-.37,0-.91-.74-1.65-1.65-1.65-.01,0-.19,.03-.2,.03-.71,.08-1.38-.3-1.68-.95-.65-1.4-2.58-2.38-4.71-2.38-2.68,0-4.94,1.51-4.94,3.29l.05,.28c.08,.63-.2,1.25-.74,1.6-.53,.35-1.22,.35-1.76,.02-.53-.33-1.17-.32-1.67-.03l-1.65-2.85c.82-.48,1.77-.71,2.73-.66,.91-2.84,4.14-4.95,7.98-4.95,3.02,0,5.7,1.28,7.14,3.33,1.66,.19,3.07,1.19,3.82,2.6,1.18-.64,2.5-.98,3.87-.98,3.98,0,7.31,2.84,8.07,6.59,3.65-.13,6.75,2.9,6.75,6.59,0,.09,0,.19,0,.28,.99,.35,1.84,1.01,2.43,1.88,.79-.33,1.65-.51,2.52-.51,1.94,0,3.76,.87,5,2.32,1.02-.44,2.12-.67,3.24-.67,4.54,0,8.24,3.7,8.24,8.24,0,.63-.07,1.25-.22,1.86,2.03,.61,3.51,2.5,3.51,4.73,0,1.62-.81,3.11-2.07,4.02,.28,.83,.43,1.7,.43,2.57,0,4.54-3.7,8.24-8.24,8.24Z"/><path class="cls-1" d="M52.74,79.1c-3.98,0-7.31-2.84-8.07-6.59-1.69,.06-3.24-.76-4.18-2.07-.83,.28-1.7,.43-2.57,.43-4.06,0-7.45-2.96-8.12-6.83-1.98-.65-3.41-2.51-3.41-4.7,0-.51,.08-1,.23-1.48-2.19-1.52-3.53-4.01-3.53-6.75,0-4.54,3.7-8.24,8.24-8.24,.8,0,1.59,.12,2.36,.36,1.13-2.26,3.52-3.75,6.16-3.65,.29-.82,.8-1.56,1.46-2.12-.07-.4-.1-.79-.1-1.18,0-2.93,1.58-5.67,4.12-7.13l1.65,2.85c-1.52,.88-2.47,2.52-2.47,4.28,0,.44,.08,.9,.25,1.44,.25,.8-.14,1.66-.91,1.99-.6,.26-.99,.85-.99,1.5,.05,.56-.17,1.19-.62,1.54-.45,.35-1.02,.52-1.56,.32-.4-.14-.76-.21-1.12-.21-1.62,0-3.01,1.22-3.24,2.83-.08,.55-.42,1.02-.92,1.25-.5,.24-1.08,.21-1.56-.07-.8-.48-1.64-.72-2.52-.72-2.73,0-4.94,2.22-4.94,4.94,0,2.01,1.21,3.81,3.08,4.57,.49,.2,.86,.63,.98,1.14,.12,.52,0,1.06-.35,1.46-.19,.22-.41,.58-.41,1.06,0,.91,.74,1.65,1.65,1.65s1.65,.74,1.65,1.65c0,2.73,2.22,4.94,4.94,4.94,.88,0,1.73-.24,2.52-.72,.46-.27,1.02-.31,1.5-.1,.49,.21,.84,.65,.95,1.17,.22,1.04,1.47,1.65,2.45,1.05,.53-.32,1.19-.32,1.71,0,.53,.32,.83,.91,.79,1.52,0,.1-.02,.21-.03,.31-.01,2.79,2.21,5,4.93,5,1.88,0,3.57-1.06,4.42-2.78,.25-.52,.76-.86,1.34-.91,.58-.06,1.13,.21,1.47,.67,.63,.87,1.6,1.37,2.66,1.37,1.82,0,3.29-1.48,3.29-3.29h3.29c0,3.63-2.96,6.59-6.59,6.59-1.34,0-2.63-.42-3.71-1.16-1.54,1.77-3.76,2.81-6.17,2.81Z"/><g><path class="cls-1" d="M65.92,92.28h-3.29c0-1.82,1.48-3.29,3.29-3.29,.91,0,1.65-.74,1.65-1.65,0-.84-.64-1.54-1.48-1.62-.62-.06-1.15-.47-1.37-1.05-.22-.58-.09-1.24,.33-1.7,.57-.62,.88-1.4,.88-2.22,0-1.82-1.48-3.29-3.29-3.29v-3.29c3.63,0,6.59,2.96,6.59,6.59,0,.87-.18,1.72-.51,2.52,1.31,.89,2.16,2.39,2.16,4.07,0,2.73-2.22,4.94-4.94,4.94Z"/><path class="cls-1" d="M46.16,103.81c-1.63,0-3.19-.6-4.4-1.69l2.2-2.45c.6,.54,1.38,.84,2.19,.84,1.36,0,2.6-.87,3.08-2.16,.2-.54,.66-.93,1.22-1.05,.56-.11,1.14,.08,1.53,.49,.64,.69,1.49,1.07,2.41,1.07,1.82,0,3.29-1.48,3.29-3.29h3.29c0,3.63-2.96,6.59-6.59,6.59-1.12,0-2.18-.28-3.13-.8-1.23,1.51-3.1,2.45-5.1,2.45Z"/><path class="cls-1" d="M28.03,98.87c-3.63,0-6.59-2.96-6.59-6.59,0-.09,0-.19,0-.28-1.92-.68-3.3-2.51-3.3-4.66s1.38-3.98,3.3-4.66c0-.09,0-.19,0-.28,0-3.63,2.96-6.59,6.59-6.59,0-4.54,3.7-8.24,8.24-8.24,3.05,0,5.71,1.66,7.14,4.13,.79-.53,1.73-.83,2.75-.83v3.29c-.91,0-1.65,.74-1.65,1.65s-.74,1.65-1.65,1.65-1.65-.74-1.65-1.65c0-2.73-2.22-4.94-4.94-4.94s-4.94,2.22-4.94,4.94c0,.48,.09,.99,.28,1.56,.21,.62,.03,1.31-.46,1.74-.49,.44-1.19,.55-1.78,.28-.43-.2-.89-.29-1.34-.29-1.82,0-3.29,1.48-3.29,3.29,0,.36,.07,.72,.21,1.12,.19,.53,.1,1.12-.25,1.57-.34,.45-.89,.69-1.46,.63-.02,0-.16-.02-.18-.02h0c-.89,0-1.62,.74-1.62,1.64s.74,1.65,1.65,1.65c.56-.05,1.19,.17,1.54,.62,.35,.45,.52,1.03,.32,1.56-.14,.4-.21,.76-.21,1.12,0,1.82,1.48,3.29,3.29,3.29v3.29Z"/></g><path class="cls-1" d="M105.01,105.46c-1.8,0-3.49-.75-4.72-2.02-1.18,.48-2.57,.48-3.75,0-1.22,1.27-2.92,2.02-4.72,2.02-3.51,0-6.38-2.75-6.58-6.21-.17-.15-.33-.32-.48-.49-1.12,.2-2.3,.11-3.38-.27l1.1-3.1c.75,.27,1.61,.25,2.36-.07,.4-.17,.86-.17,1.26,0,.4,.17,.73,.49,.89,.89,.14,.32,.39,.61,.72,.79,.56,.32,.89,.94,.83,1.58,0,.03-.02,.21-.03,.23,0,1.87,1.47,3.35,3.29,3.35,1.18,0,2.28-.66,2.87-1.72,.25-.45,.69-.76,1.2-.83,.51-.07,1.02,.09,1.39,.44,.62,.6,1.65,.6,2.27,0,.37-.36,.88-.51,1.39-.44,.51,.08,.95,.38,1.2,.83,.59,1.06,1.68,1.72,2.87,1.72,1.82,0,3.29-1.48,3.29-3.29,0-.04-.03-.17-.03-.21-.03-.55,.21-1.09,.66-1.42,.44-.33,1.03-.42,1.55-.23,.4,.14,.76,.21,1.12,.21v3.29c-.07,0-.14,0-.21,0-.73,2.84-3.32,4.95-6.38,4.95Zm-24.52-14.27l-3.1-1.11c.34-.96,.91-1.81,1.63-2.51-.24-.59-.37-1.22-.37-1.87,0-2.2,1.45-4.08,3.45-4.71,.65-2.96,3.29-5.17,6.44-5.17,.29,0,.58,.02,.87,.06,1.15-2.03,3.32-3.35,5.72-3.35s4.61,1.32,5.74,3.37c1.6-.28,3.28,.3,4.38,1.43,1.37-.97,3-1.5,4.7-1.5,4.54,0,8.24,3.7,8.24,8.24h-3.29c0-2.73-2.22-4.94-4.94-4.94-1.46,0-2.84,.67-3.8,1.83-.39,.48-1.01,.69-1.62,.57-.6-.13-1.08-.58-1.24-1.18-.28-1.02-1.57-1.53-2.47-.95-.45,.29-1.02,.35-1.51,.15-.5-.2-.87-.63-.99-1.16-.35-1.5-1.66-2.55-3.2-2.55s-2.77,1-3.16,2.44c-.12,.45-.43,.83-.86,1.04-.42,.21-.91,.23-1.35,.05-2.19-.88-4.52,.82-4.52,3.05,0,.91-.74,1.65-1.65,1.65s-1.65,.74-1.65,1.65c0,.42,.16,.83,.46,1.14,.35,.37,.52,.88,.44,1.39-.08,.51-.38,.95-.83,1.2-.72,.4-1.26,1.03-1.53,1.78Z"/><path class="cls-1" d="M74.98,123.58c-.91,0-1.65-.74-1.65-1.65,0-.69,0-1.38,.02-2.08,.09-3.72,.28-8.03,1.43-12.09,.91-3.22,2.52-6.46,4.9-9.92,3.31-4.8,8.89-10.51,16.71-10.51-9.34,0-14.64,3.83-16.97,6.12-.47,.47-1.18,.6-1.79,.34-.61-.26-1.01-.86-1.01-1.52v-14.83c0-4.18,1.49-7.95,2.93-11.59,.78-1.97,1.52-3.83,2.03-5.75,1.07-3.98,1.6-7.47,1.63-10.68,0-.9,.74-1.63,1.65-1.63h.01c.91,0,1.64,.75,1.63,1.66-.03,3.49-.6,7.25-1.74,11.5-.56,2.1-1.37,4.14-2.15,6.11-1.39,3.51-2.7,6.82-2.7,10.38v11.34c3.34-2.33,8.69-4.75,16.47-4.75,1.82,0,3.29,1.48,3.29,3.29s-1.48,3.29-3.29,3.29c-6.38,0-11.13,4.94-13.99,9.09-2.18,3.16-3.63,6.08-4.45,8.95-1.05,3.69-1.22,7.75-1.31,11.27-.02,.67-.02,1.33-.02,2,0,.91-.74,1.65-1.65,1.65Z"/><path class="cls-1" d="M56.04,123.58c-.53,0-1.05-.26-1.37-.73-.5-.76-.3-1.78,.46-2.28,9.05-6.03,9.15-16.64,9.15-16.75,0-1.64-.76-3.18-2.13-4.34-1.28-1.08-3-1.68-4.83-2.32-.58-.2-1.16-.41-1.72-.62-5.64-2.18-12.54-5.5-15.98-11.98-1.11-2.1-1.7-5.17-1.7-7.1,0-1.82,1.48-3.29,3.29-3.29s3.29,1.48,3.29,3.29c0,1.12,.7,2.76,1.36,3.81,1.28,2.05,3.29,3.79,5.97,5.16,2.3,1.17,4.73,1.73,7.24,2.24,3.35,.68,6.61,1.44,9.53,2.99,.89-1.8,2.26-5.21,2.26-9.25,0-3.61-.68-6.31-2.07-8.27-1.22-1.72-3.28-2.69-5.46-3.72-.57-.27-1.14-.54-1.69-.82-3.36-1.71-5.61-5.17-5.61-8.61,0-1.82,1.48-3.29,3.29-3.29,1.69,0,3.09,1.28,3.27,2.93,.32,.73,1.92,3.66,6.61,3.66,.32,0,8.24-.34,8.24-14.83v-3.29c0-.91,.74-1.65,1.65-1.65s1.65,.74,1.65,1.65v3.29c0,17.91-11.42,18.12-11.53,18.12-7.69,0-9.72-5.82-9.8-6.07-.06-.17-.08-.34-.08-.52,0,2.2,1.57,4.53,3.82,5.68,.52,.26,1.05,.52,1.6,.77,2.35,1.11,5.02,2.36,6.74,4.79,1.8,2.54,2.68,5.87,2.68,10.18,0,7.01-3.43,12.23-3.57,12.45-.24,.36-.62,.62-1.05,.7-.43,.09-.87,0-1.24-.24-2.79-1.86-6.27-2.68-9.89-3.41-2.63-.53-5.41-1.17-8.08-2.53-3.23-1.65-5.67-3.79-7.27-6.35-.31-.5-1.86-3.11-1.86-5.55,0,1.51,.49,4.01,1.32,5.56,2.9,5.48,8.83,8.36,14.25,10.45,.53,.2,1.07,.39,1.62,.59,2.03,.71,4.12,1.44,5.86,2.91,2.13,1.79,3.31,4.23,3.31,6.86,0,.51-.12,12.49-10.62,19.49-.28,.19-.6,.28-.91,.28Z"/><path class="cls-1" d="M92.28,123.58H46.16c-.91,0-1.65-.74-1.65-1.65s.74-1.65,1.65-1.65h46.13c.91,0,1.65,.74,1.65,1.65s-.74,1.65-1.65,1.65Z"/></g></g></g><path class="cls-1" d="M43.08,102.73c-.35,0-.71-.11-1.01-.34-.63-.49-1.11-1.1-1.47-1.69-1.97,1.22-3.94,1.66-5.85,1.3-2.39-.45-4.07-2.06-5.02-3.24-1.05,.28-1.93,.11-2.06,.07-.89-.2-1.45-1.09-1.25-1.98,.2-.88,1.07-1.43,1.95-1.25,.05,0,.51,.07,.87-.22,.38-.31,.89-.45,1.37-.35,.49,.1,.9,.4,1.14,.84,0,.02,1.37,2.47,3.63,2.88,1.46,.27,3.09-.37,4.85-1.88,.44-.38,1.04-.49,1.59-.31,.55,.18,.96,.64,1.09,1.2,.09,.37,.47,1.47,1.17,2,.72,.56,.86,1.6,.3,2.32-.33,.42-.82,.64-1.31,.64Z"/><path class="cls-1" d="M46.14,32.25c-.41,0-.83-.16-1.15-.47-.66-.63-.66-1.7-.03-2.36,.2-.21,1.88-1.84,5.35-1.34,.48-.91,1.31-2.02,2.65-2.73,1.16-.61,2.47-.81,3.89-.58,.46-.55,1.15-.95,2.07-1.19,.88-.23,1.79,.29,2.02,1.18,.23,.88-.3,1.79-1.18,2.02-.07,.02-.13,.03-.17,.05-.02,.38-.17,.76-.44,1.05-.45,.49-1.15,.66-1.77,.43-1.16-.42-2.12-.44-2.85-.06-1.18,.61-1.61,2.12-1.62,2.14-.12,.42-.4,.79-.78,1.01s-.84,.28-1.26,.16c-2.51-.7-3.52,.15-3.56,.18-.32,.33-.74,.5-1.16,.5Z"/><path class="cls-1" d="M105.6,72.54c-2.19,0-3.97-1.45-5.05-2.62-3.12,1.96-5.87,.69-7-.41-.65-.64-.67-1.68-.03-2.34,.63-.65,1.66-.67,2.32-.05,.38,.33,1.75,1.26,3.87-.72,.36-.33,.84-.49,1.33-.43,.49,.06,.92,.33,1.19,.74,.44,.68,2.05,2.56,3.49,2.51,1.02-.07,2.13-1.25,3.14-3.33,.4-.82,1.39-1.17,2.21-.77,.82,.4,1.17,1.39,.77,2.21-1.6,3.3-3.59,5.05-5.92,5.19-.1,0-.21,0-.31,0Z"/><path class="cls-1" d="M111.6,100.53c-.57,0-1.12-.29-1.43-.81-.46-.79-.2-1.8,.58-2.26,1.32-.78,2.91-1.99,2.95-3.36,.05-1.43-1.53-2.83-2.15-3.25-.57-.39-.83-1.09-.67-1.75,.16-.67,.71-1.17,1.39-1.25,2.73-.35,2.69-3.11,2.65-3.66-.06-.91,.62-1.7,1.53-1.76,.9-.07,1.7,.61,1.77,1.51,.13,1.68-.37,4.6-2.7,6.17,.81,1.04,1.54,2.44,1.49,4.09-.07,2.31-1.61,4.37-4.58,6.12-.26,.15-.55,.23-.84,.23Z"/></svg>