<?xml version="1.0" encoding="utf-8"?>
<!-- Generator: Adobe Illustrator 26.5.0, SVG Export Plug-In . SVG Version: 6.00 Build 0)  -->
<svg version="1.1" id="uuid-f316c342-eb61-4c7a-b334-3bc4cc141704"
	 xmlns="http://www.w3.org/2000/svg" xmlns:xlink="http://www.w3.org/1999/xlink" x="0px" y="0px" viewBox="0 0 141.7 141.7"
	 style="enable-background:new 0 0 141.7 141.7;" xml:space="preserve">
<style type="text/css">
	.st0{fill:#FFFFFF;}
	.st1{fill:#ABC27B;}
	.st2{fill:#233D4D;}
	.st3{fill:#310E31;}
	.st4{fill:#F0584B;}
	.st5{fill:#FCC945;}
	.st6{fill:none;}
	.st7{fill:#F47E30;}
	.st8{fill:#579B86;}
</style>
<g>
	<path class="st0" d="M54,119.9c0,0.6,0,1.1,0,1.6s0,0.9,0.1,1.4c0,0.5,0,1,0,1.6s0,1.2,0,1.9l-4.2,0l-0.4-17c1,0,1.8,0,2.6,0
		c0.8,0,1.5,0,2.3,0c0.8,0,1.5,0,2.4,0s1.8,0,2.8-0.1l-0.1,3.8l-5.7,0.1c0,0.3,0,0.6,0.1,0.9c0,0.3,0,0.6,0,0.9s0,0.5,0,0.8
		c0,0.2,0,0.4,0,0.5c0,0,0.1,0.1,0.2,0.1c0.1,0,0.3,0,0.5,0c0.2,0,0.4,0,0.7,0h0.8c0.6,0,1.3,0,2.1,0v3.6L54,119.9L54,119.9z"/>
	<path class="st0" d="M60.3,112.4c0-0.5,0-1,0-1.6c0-0.5,0-1.2,0-2.1c0.2,0,0.3,0,0.5,0c0.2,0,0.3,0,0.4,0c0.3,0,0.7,0,1,0
		s0.7,0,1.2,0h0.4c0.2,0,0.3,0,0.5,0c0.1,2.4,0.1,4.8,0.1,7c0,2.3,0,4.6,0,6.9v3.6l-4.2,0.1c0-1.5,0-3,0-4.3V114
		C60.3,113.4,60.3,112.9,60.3,112.4L60.3,112.4z"/>
	<path class="st0" d="M70.4,108.9l0.4,13.4c0.3,0,0.6,0,0.9,0s0.6,0,0.9,0s0.7,0,1,0c0.4,0,0.8,0,1.2,0c0,0.5,0,0.9,0,1.2v1.8
		c0,0.3,0,0.6,0,0.9l-7.5,0l-1.2-0.1L66,111.8l0-3.1L70.4,108.9L70.4,108.9z"/>
	<path class="st0" d="M83.2,125.2c-0.1-0.2-0.2-0.5-0.4-0.9c-0.2-0.4-0.3-0.8-0.5-1.2c-0.2-0.5-0.4-0.9-0.6-1.4s-0.4-1-0.6-1.4
		s-0.4-0.9-0.5-1.2c-0.1-0.1-0.1-0.3-0.2-0.5s-0.1-0.4-0.2-0.7s-0.2-0.6-0.3-1c-0.1-0.4-0.2-0.9-0.3-1.5c0.1,1,0.1,1.9,0.2,2.5
		c0,0.7,0,1.1,0,1.4c0,0.7,0,1.3,0,2.1s0,1.4,0,2.1v2.8h-0.9c-0.2,0-0.4,0-0.6,0c-0.2,0-0.4,0-0.5,0h-1.2c-0.2,0-0.5,0-0.9,0
		c0-1.1,0-2.2,0.1-3.3c0-0.9,0-1.9,0-3s0-2.1,0-3c0-0.8,0-1.7,0-2.6c0-0.9,0-1.8,0-2.7v-2.9c0.7,0,1.3,0,2,0s1.5,0,2.4,0
		c0.3,0.6,0.5,1.1,0.7,1.6c0.2,0.5,0.4,1,0.6,1.6c0.2,0.5,0.4,1.1,0.7,1.7s0.5,1.3,0.8,2.1c0.1,0.1,0.1,0.3,0.2,0.5
		c0.1,0.2,0.2,0.5,0.3,0.7c0.1,0.3,0.2,0.5,0.3,0.8c0.1,0.3,0.2,0.5,0.2,0.8c0-0.1,0.1-0.2,0.1-0.5c0.1-0.3,0.2-0.6,0.2-0.9
		s0.2-0.6,0.3-1c0.1-0.3,0.2-0.6,0.2-0.8c0.2-0.7,0.5-1.4,0.8-2.1c0.3-0.8,0.6-1.5,0.9-2.1s0.5-1.2,0.8-1.7s0.4-0.7,0.5-0.8
		c0,0,0.1-0.1,0.3-0.1s0.3,0,0.6,0c0.3,0,0.6,0,1,0s0.8,0,1.2,0h0.4c0.2,0,0.3,0,0.5,0l0,17.5h-4.2l0.1-6.4c0-0.8,0.1-1.7,0.2-2.5
		s0.2-1.6,0.2-2.3c-0.1,0.3-0.2,0.7-0.3,1.1c-0.1,0.4-0.2,0.8-0.3,1.2s-0.2,0.8-0.3,1.2s-0.2,0.8-0.4,1.1l-1.3,3.3
		c-0.1,0.2-0.2,0.4-0.3,0.7s-0.2,0.5-0.3,0.8s-0.2,0.5-0.3,0.7c-0.1,0.2-0.2,0.3-0.3,0.4c-0.1,0.2-0.3,0.2-0.5,0.2
		c-0.2,0-0.4-0.1-0.5-0.3C83.3,125.6,83.2,125.5,83.2,125.2L83.2,125.2z"/>
</g>
<g>
	<g>
		<path class="st1" d="M42.1,86.9V47.1c0-2.8,1.9-5.2,4.6-5.9l41.7-10.4c4.9-1.2,9.6,2.5,9.6,7.6v48.5c0,4.3-3.5,7.9-7.8,7.9H49.9
			C45.6,94.8,42.1,91.3,42.1,86.9z"/>
		<path class="st2" d="M90.3,96.2H49.9c-5.1,0-9.2-4.2-9.2-9.3V47.1c0-3.5,2.3-6.5,5.7-7.3l41.7-10.4c2.7-0.7,5.6-0.1,7.8,1.7
			c2.3,1.8,3.6,4.4,3.6,7.3v48.5C99.5,92,95.4,96.2,90.3,96.2L90.3,96.2z M90.3,32c-0.5,0-1,0.1-1.5,0.2L47.1,42.5
			c-2.1,0.5-3.5,2.4-3.5,4.5v39.9c0,3.6,2.8,6.4,6.3,6.4h40.4c3.5,0,6.3-2.9,6.3-6.4V38.4c0-2-0.9-3.9-2.5-5.1
			C93.1,32.4,91.7,32,90.3,32z"/>
	</g>
	<g>
		<g>
			<g>
				<path class="st0" d="M72.1,23.3C72,23.5,72,23.7,72,23.9c0,0.8,0.6,1.4,1.4,1.4s1.4-0.6,1.4-1.4c0-0.2,0-0.4-0.1-0.5
					c0.6-0.2,1.1-0.7,1.1-1.4c0-0.8-0.6-1.4-1.4-1.4c-0.4,0-0.7,0.1-0.9,0.4c-0.2-0.2-0.6-0.4-0.9-0.4c-0.8,0-1.4,0.6-1.4,1.4
					C71.1,22.6,71.5,23.2,72.1,23.3L72.1,23.3z"/>
				<path class="st2" d="M73.4,25.8c-1.1,0-1.9-0.9-1.9-1.9c0-0.1,0-0.2,0-0.2c-0.6-0.3-1-1-1-1.6c0-1,0.8-1.9,1.9-1.9
					c0.3,0,0.7,0.1,0.9,0.3c0.3-0.2,0.6-0.3,0.9-0.3c1.1,0,1.9,0.9,1.9,1.9c0,0.7-0.4,1.3-1,1.6c0,0.1,0,0.2,0,0.2
					C75.3,24.9,74.5,25.8,73.4,25.8L73.4,25.8z M72.5,21c-0.5,0-0.9,0.4-0.9,1c0,0.4,0.3,0.8,0.7,0.9c0.1,0,0.2,0.1,0.3,0.2
					c0.1,0.1,0.1,0.3,0,0.4c-0.1,0.1-0.1,0.2-0.1,0.4c0,0.5,0.4,1,0.9,1s0.9-0.4,0.9-1c0-0.1,0-0.2-0.1-0.4c-0.1-0.1-0.1-0.3,0-0.4
					c0.1-0.1,0.2-0.2,0.3-0.2c0.4-0.1,0.7-0.5,0.7-0.9c0-0.5-0.4-1-0.9-1c-0.2,0-0.5,0.1-0.6,0.2c-0.2,0.2-0.5,0.2-0.6,0
					S72.7,21,72.5,21L72.5,21z"/>
			</g>
			<circle class="st0" cx="70.1" cy="23.4" r="1.9"/>
			<path class="st2" d="M70,25.8c-1.3,0-2.3-1.1-2.3-2.4S68.8,21,70,21s2.3,1.1,2.3,2.4S71.3,25.8,70,25.8z M70,22
				c-0.8,0-1.4,0.6-1.4,1.4s0.6,1.4,1.4,1.4s1.4-0.6,1.4-1.4S70.8,22,70,22z"/>
			<circle class="st0" cx="87.2" cy="29.1" r="1.9"/>
			<path class="st2" d="M87.2,31.5c-1.3,0-2.4-1.1-2.4-2.4s1.1-2.4,2.4-2.4s2.4,1.1,2.4,2.4S88.5,31.5,87.2,31.5z M87.2,27.7
				c-0.8,0-1.4,0.6-1.4,1.4s0.6,1.4,1.4,1.4s1.4-0.6,1.4-1.4S88,27.7,87.2,27.7z"/>
			<g>
				<path class="st0" d="M80.6,24.3c0-1-0.8-1.9-1.9-1.9c-0.4,0-0.7,0.1-1,0.3c-0.1-0.7-0.7-1.2-1.4-1.2c-0.8,0-1.4,0.6-1.4,1.4
					c0,0.2,0.1,0.5,0.2,0.6c-0.7,0.3-1.1,1-1.1,1.7c0,1,0.8,1.9,1.9,1.9c0.5,0,0.9-0.2,1.3-0.5c0.3,0.3,0.7,0.5,1.1,0.5
					c0.7,0,1.3-0.5,1.4-1.2C80.2,25.7,80.6,25,80.6,24.3z"/>
				<path class="st2" d="M78.2,27.7c-0.4,0-0.8-0.1-1.1-0.4c-0.4,0.2-0.8,0.4-1.3,0.4c-1.3,0-2.4-1.1-2.4-2.4c0-0.8,0.4-1.5,1-1.9
					c0-0.1-0.1-0.3-0.1-0.4c0-1,0.8-1.9,1.9-1.9c0.7,0,1.4,0.4,1.7,1.1c0.2-0.1,0.4-0.1,0.7-0.1c1.3,0,2.4,1.1,2.4,2.4
					c0,0.8-0.4,1.5-1,2C79.8,27.1,79.1,27.7,78.2,27.7L78.2,27.7z M77.1,26.2C77.1,26.2,77.1,26.2,77.1,26.2c0.2,0,0.3,0.1,0.4,0.2
					c0.2,0.2,0.4,0.3,0.7,0.3c0.5,0,0.9-0.3,0.9-0.8c0-0.1,0.1-0.3,0.2-0.3c0.4-0.3,0.7-0.7,0.7-1.2c0-0.8-0.6-1.4-1.4-1.4
					c-0.2,0-0.5,0.1-0.7,0.2c-0.1,0.1-0.3,0.1-0.4,0c-0.1-0.1-0.2-0.2-0.3-0.4c-0.1-0.5-0.5-0.8-0.9-0.8c-0.5,0-0.9,0.4-0.9,1
					c0,0.1,0,0.3,0.1,0.4c0.1,0.1,0.1,0.2,0,0.4c0,0.1-0.1,0.2-0.2,0.3c-0.5,0.2-0.8,0.7-0.8,1.3c0,0.8,0.6,1.4,1.4,1.4
					c0.4,0,0.7-0.1,1-0.4C76.9,26.2,77,26.2,77.1,26.2z"/>
			</g>
			<path class="st0" d="M66.3,26.2C66.3,26.2,66.3,26.2,66.3,26.2c0,1.1,0.8,2,1.9,2s1.9-0.9,1.9-1.9c0-0.5-0.2-1-0.5-1.3
				c0.3-0.3,0.5-0.6,0.5-1.1c0-0.8-0.6-1.4-1.4-1.4c-0.7,0-1.2,0.5-1.4,1.1c-0.2-0.1-0.3-0.1-0.5-0.1c-0.8,0-1.4,0.6-1.4,1.4
				C65.3,25.4,65.7,26,66.3,26.2L66.3,26.2z"/>
			<path class="st2" d="M68.2,28.6c-1.2,0-2.3-1-2.4-2.2c-0.6-0.3-1-1-1-1.6c0-1.1,1-2,2.2-1.9c0.3-0.6,1-1,1.7-1
				c1.1,0,1.9,0.9,1.9,1.9c0,0.4-0.1,0.8-0.4,1.1c0.2,0.4,0.4,0.8,0.4,1.3C70.6,27.6,69.5,28.6,68.2,28.6L68.2,28.6z M66.8,23.9
				c-0.5,0-0.9,0.4-0.9,1c0,0.4,0.3,0.8,0.6,0.9c0.2,0.1,0.3,0.3,0.3,0.5c0,0,0,0.1,0,0.1c0,0.8,0.6,1.4,1.4,1.4s1.4-0.6,1.4-1.4
				c0-0.4-0.1-0.7-0.4-1c-0.1-0.1-0.1-0.2-0.1-0.4s0.1-0.2,0.2-0.3c0.2-0.2,0.3-0.4,0.3-0.7c0-0.5-0.4-1-0.9-1
				c-0.4,0-0.8,0.3-0.9,0.7c0,0.1-0.1,0.2-0.2,0.3s-0.3,0.1-0.4,0C67,23.9,66.9,23.9,66.8,23.9L66.8,23.9z"/>
			<g>
				<path class="st0" d="M65.8,30c0.8,0,1.4-0.6,1.4-1.4c0-0.7-0.4-1.2-1.1-1.4c0.1-0.2,0.1-0.3,0.1-0.5s0-0.4-0.1-0.5
					c0.6-0.2,1.1-0.7,1.1-1.4c0-0.8-0.6-1.4-1.4-1.4c-0.2,0-0.4,0-0.5,0.1c-0.2-0.6-0.7-1.1-1.4-1.1s-1.2,0.4-1.4,1
					c-0.6,0.2-1,0.7-1,1.4c0,0.4,0.1,0.7,0.4,1c-0.2,0.2-0.4,0.6-0.4,1c0,0.7,0.5,1.2,1.1,1.4c-0.1,0.2-0.1,0.3-0.1,0.5
					c0,0.8,0.6,1.4,1.4,1.4c0.4,0,0.7-0.1,1-0.4C65.1,29.9,65.5,30,65.8,30L65.8,30z"/>
				<path class="st2" d="M65.8,30.5c-0.3,0-0.7-0.1-0.9-0.3c-0.3,0.2-0.6,0.3-1,0.3c-1,0-1.9-0.9-1.9-1.9c0-0.1,0-0.2,0-0.2
					c-0.6-0.3-1-1-1-1.6c0-0.3,0.1-0.7,0.3-1c-0.2-0.3-0.3-0.6-0.3-1c0-0.8,0.4-1.4,1.1-1.7c0.3-0.7,1-1.1,1.7-1.1
					c0.7,0,1.3,0.4,1.6,1c1.1-0.1,2.2,0.8,2.2,1.9c0,0.7-0.4,1.3-1,1.6c0,0.1,0,0.2,0,0.2s0,0.2,0,0.2c0.6,0.3,1,1,1,1.6
					C67.7,29.7,66.9,30.5,65.8,30.5z M64.9,29.2c0.1,0,0.2,0,0.3,0.1c0.2,0.2,0.4,0.2,0.6,0.2c0.5,0,0.9-0.4,0.9-1
					c0-0.4-0.3-0.8-0.7-0.9c-0.1,0-0.2-0.1-0.3-0.2c-0.1-0.1-0.1-0.3,0-0.4c0.1-0.1,0.1-0.2,0.1-0.4s0-0.2-0.1-0.4
					c-0.1-0.1-0.1-0.3,0-0.4c0.1-0.1,0.2-0.2,0.3-0.2c0.4-0.1,0.7-0.5,0.7-0.9c0-0.6-0.7-1.1-1.3-0.9c-0.1,0-0.3,0-0.4,0
					c-0.1-0.1-0.2-0.2-0.2-0.3c-0.1-0.4-0.5-0.7-0.9-0.7s-0.8,0.3-0.9,0.7c0,0.1-0.2,0.3-0.3,0.3C62.3,24,62,24.4,62,24.8
					c0,0.2,0.1,0.5,0.2,0.6c0.2,0.2,0.2,0.5,0,0.6S62,26.5,62,26.7c0,0.4,0.3,0.8,0.7,0.9c0.1,0,0.2,0.1,0.3,0.2
					c0.1,0.1,0.1,0.3,0,0.4c0,0.1-0.1,0.2-0.1,0.4c0,0.5,0.4,1,1,1c0.2,0,0.5-0.1,0.6-0.2C64.6,29.2,64.7,29.2,64.9,29.2L64.9,29.2z
					"/>
			</g>
			<g>
				<path class="st0" d="M83,26.2c-0.2,0-0.5,0-0.7,0.1c-0.3-0.6-0.9-1.1-1.7-1.1c-1.1,0-1.9,0.9-1.9,1.9s0.8,1.9,1.9,1.9
					c0,0,0,0,0.1,0c0.2,1.1,1.2,1.9,2.3,1.9c1.3,0,2.4-1.1,2.4-2.4S84.3,26.3,83,26.2L83,26.2z"/>
				<path class="st2" d="M83,31.5c-1.2,0-2.3-0.8-2.7-1.9c-1.2-0.2-2.1-1.2-2.1-2.4c0-1.3,1.1-2.4,2.4-2.4c0.8,0,1.5,0.4,1.9,1
					c0.2,0,0.3,0,0.4,0c1.6,0,2.9,1.3,2.9,2.9S84.5,31.5,83,31.5L83,31.5z M80.6,25.8c-0.8,0-1.4,0.6-1.4,1.4s0.6,1.4,1.4,1.4
					c0.2,0,0.5,0.2,0.5,0.4c0.2,0.9,1,1.5,1.9,1.5c1.1,0,1.9-0.9,1.9-1.9S84,26.7,83,26.7c-0.2,0-0.3,0-0.5,0.1
					c-0.2,0.1-0.5,0-0.6-0.2C81.6,26.1,81.1,25.8,80.6,25.8z"/>
			</g>
			<g>
				<path class="st0" d="M65.2,29.2c0.1-0.2,0.1-0.3,0.1-0.5c0-0.8-0.6-1.4-1.4-1.4s-1.4,0.6-1.4,1.4c0,0.2,0,0.4,0.1,0.5
					c-0.6,0.2-1.1,0.7-1.1,1.4c0,0.8,0.6,1.4,1.4,1.4c0.4,0,0.7-0.1,1-0.4c0.2,0.2,0.6,0.4,0.9,0.4c0.8,0,1.4-0.6,1.4-1.4
					C66.3,29.9,65.8,29.3,65.2,29.2L65.2,29.2z"/>
				<path class="st2" d="M64.8,32.4c-0.3,0-0.7-0.1-1-0.3c-0.3,0.2-0.6,0.3-1,0.3c-1,0-1.9-0.9-1.9-1.9c0-0.7,0.4-1.3,1-1.6
					c0-0.1,0-0.2,0-0.2c0-1,0.8-1.9,1.9-1.9s1.9,0.9,1.9,1.9c0,0.1,0,0.2,0,0.2c0.6,0.3,1,1,1,1.6C66.8,31.6,65.9,32.4,64.8,32.4z
					 M63.9,31.1c0.1,0,0.2,0,0.3,0.1c0.2,0.2,0.4,0.2,0.6,0.2c0.5,0,0.9-0.4,0.9-1c0-0.4-0.3-0.8-0.7-0.9c-0.1,0-0.2-0.1-0.3-0.2
					c-0.1-0.1-0.1-0.3,0-0.4c0.1-0.1,0.1-0.2,0.1-0.4c0-0.5-0.4-1-1-1s-1,0.4-1,1c0,0.1,0,0.2,0.1,0.4c0,0.1,0,0.3,0,0.4
					c-0.1,0.1-0.2,0.2-0.3,0.2c-0.4,0.1-0.7,0.5-0.7,0.9c0,0.5,0.4,1,1,1c0.2,0,0.5-0.1,0.6-0.2C63.6,31.2,63.8,31.1,63.9,31.1
					L63.9,31.1z"/>
			</g>
			<g>
				<path class="st0" d="M75.8,28.6c0-0.8-0.4-1.5-0.9-1.9l0,0c0-0.8-0.6-1.4-1.4-1.4c-0.4,0-0.8,0.2-1.1,0.5
					c-0.3-0.3-0.8-0.5-1.3-0.5c-1.1,0-1.9,0.9-1.9,1.9c0,0.4,0.1,0.8,0.3,1.1c-0.7,0.3-1.3,1-1.3,1.8c0,1,0.8,1.9,1.9,1.9
					c0.5,0,0.9-0.2,1.3-0.5c0.3,0.3,0.7,0.5,1.1,0.5c0.6,0,1.2-0.4,1.3-1C75,30.8,75.8,29.8,75.8,28.6L75.8,28.6z"/>
				<path class="st2" d="M72.5,32.4c-0.4,0-0.8-0.1-1.1-0.4c-0.4,0.2-0.8,0.4-1.3,0.4c-1.3,0-2.4-1.1-2.4-2.4c0-0.8,0.4-1.6,1.1-2
					c-0.1-0.3-0.2-0.6-0.2-0.9c0-1.3,1.1-2.4,2.4-2.4c0.4,0,0.9,0.1,1.3,0.4c0.3-0.2,0.7-0.4,1.1-0.4c1,0,1.8,0.7,1.9,1.7
					c0.6,0.5,1,1.3,1,2.1c0,1.3-0.9,2.4-2.1,2.8C73.8,32,73.2,32.4,72.5,32.4z M71.4,31C71.4,31,71.4,31,71.4,31
					c0.2,0,0.3,0.1,0.4,0.2c0.5,0.5,1.4,0.3,1.6-0.3c0.1-0.2,0.2-0.3,0.4-0.3c0.9-0.2,1.6-0.9,1.6-1.9c0-0.6-0.3-1.1-0.8-1.5
					c-0.1-0.1-0.2-0.2-0.2-0.4c0-0.5-0.4-1-0.9-1c-0.3,0-0.5,0.1-0.7,0.3c-0.1,0.1-0.2,0.2-0.3,0.2s-0.3,0-0.3-0.1
					c-0.3-0.2-0.6-0.4-1-0.4c-0.8,0-1.4,0.6-1.4,1.4c0,0.3,0.1,0.6,0.2,0.8c0.1,0.1,0.1,0.3,0.1,0.4c-0.1,0.1-0.2,0.2-0.3,0.3
					c-0.6,0.2-1,0.7-1,1.3c0,0.8,0.6,1.4,1.4,1.4c0.4,0,0.7-0.1,1-0.4C71.2,31,71.3,31,71.4,31L71.4,31z"/>
			</g>
			<path class="st0" d="M79.6,29.2C79.6,29.2,79.6,29.1,79.6,29.2c0-1.1-0.8-2-1.9-2s-1.9,0.9-1.9,1.9c0,0.5,0.2,1,0.5,1.3
				c-0.3,0.3-0.5,0.6-0.5,1.1c0,0.8,0.6,1.4,1.4,1.4c0.7,0,1.2-0.5,1.4-1.1c0.2,0.1,0.3,0.1,0.5,0.1c0.8,0,1.4-0.6,1.4-1.4
				C80.5,29.9,80.1,29.4,79.6,29.2L79.6,29.2z"/>
			<path class="st2" d="M77.2,33.4c-1.1,0-1.9-0.9-1.9-1.9c0-0.4,0.1-0.8,0.4-1.1c-0.2-0.4-0.4-0.8-0.4-1.3c0-1.3,1.1-2.4,2.4-2.4
				c1.2,0,2.3,1,2.4,2.2c0.6,0.3,1,1,1,1.6c0,1.1-1,2-2.2,1.9C78.5,33,77.9,33.4,77.2,33.4L77.2,33.4z M77.7,27.7
				c-0.8,0-1.4,0.6-1.4,1.4c0,0.4,0.1,0.7,0.4,1c0.1,0.1,0.1,0.2,0.1,0.4c0,0.1-0.1,0.2-0.2,0.3c-0.2,0.2-0.3,0.4-0.3,0.7
				c0,0.5,0.4,0.9,0.9,0.9c0.4,0,0.8-0.3,0.9-0.7c0-0.1,0.1-0.2,0.2-0.3s0.3-0.1,0.4,0c0.6,0.2,1.3-0.2,1.3-0.9
				c0-0.4-0.3-0.8-0.6-0.9c-0.2-0.1-0.3-0.3-0.3-0.5c0,0,0-0.1,0-0.1C79.2,28.3,78.5,27.7,77.7,27.7L77.7,27.7z"/>
			<path class="st0" d="M91.1,32.4c0-1.3-1.1-2.4-2.4-2.4s-2.4,1.1-2.4,2.4c0,0.4,0.1,0.8,0.3,1.1c-0.2,0.2-0.3,0.5-0.3,0.8
				c0,0.8,0.6,1.4,1.4,1.4c0.6,0,1.2-0.4,1.3-1C90.2,34.6,91.1,33.6,91.1,32.4L91.1,32.4z"/>
			<path class="st2" d="M87.7,36.2c-1.1,0-1.9-0.9-1.9-1.9c0-0.3,0.1-0.6,0.2-0.9c-0.1-0.3-0.2-0.7-0.2-1c0-1.6,1.3-2.9,2.9-2.9
				s2.9,1.3,2.9,2.9c0,1.3-0.9,2.4-2.1,2.8C89.1,35.8,88.4,36.2,87.7,36.2L87.7,36.2z M88.7,30.5c-1.1,0-1.9,0.9-1.9,1.9
				c0,0.3,0.1,0.6,0.2,0.9c0.1,0.2,0.1,0.3,0,0.5c-0.1,0.2-0.2,0.4-0.2,0.5c0,0.5,0.4,1,0.9,1c0.4,0,0.8-0.3,0.9-0.7
				c0.1-0.2,0.2-0.3,0.4-0.3c0.9-0.2,1.6-0.9,1.6-1.9C90.6,31.4,89.7,30.5,88.7,30.5L88.7,30.5z"/>
			<path class="st0" d="M75.8,34.3c0-1.3-1.1-2.4-2.4-2.4s-2.4,1.1-2.4,2.4c0,0.4,0.1,0.8,0.3,1.1c-0.2,0.2-0.3,0.5-0.3,0.8
				c0,0.8,0.6,1.4,1.4,1.4c0.6,0,1.2-0.4,1.3-1C75,36.5,75.8,35.5,75.8,34.3L75.8,34.3z"/>
			<path class="st3" d="M72.5,38.2c-1.1,0-1.9-0.9-1.9-1.9c0-0.3,0.1-0.6,0.2-0.9c-0.1-0.3-0.2-0.7-0.2-1c0-1.6,1.3-2.9,2.9-2.9
				s2.9,1.3,2.9,2.9c0,1.3-0.9,2.4-2.1,2.8C73.8,37.7,73.2,38.1,72.5,38.2L72.5,38.2z M73.4,32.4c-1.1,0-1.9,0.9-1.9,1.9
				c0,0.3,0.1,0.6,0.2,0.9c0.1,0.2,0.1,0.3,0,0.5c-0.1,0.2-0.2,0.4-0.2,0.5c0,0.5,0.4,1,0.9,1c0.4,0,0.8-0.3,0.9-0.7
				c0.1-0.2,0.2-0.3,0.4-0.3c0.9-0.2,1.6-0.9,1.6-1.9C75.3,33.3,74.5,32.4,73.4,32.4L73.4,32.4z"/>
			<path class="st0" d="M56.8,30.5c0,1.3,1.1,2.4,2.4,2.4s2.4-1.1,2.4-2.4c0-0.4-0.1-0.8-0.3-1.1c0.2-0.2,0.3-0.5,0.3-0.8
				c0-0.8-0.6-1.4-1.4-1.4c-0.6,0-1.2,0.4-1.3,1C57.6,28.4,56.8,29.3,56.8,30.5L56.8,30.5z"/>
			<path class="st2" d="M59.1,33.4c-1.6,0-2.9-1.3-2.9-2.9c0-1.3,0.9-2.4,2.1-2.8c0.3-0.6,1-1.1,1.7-1.1c1,0,1.9,0.9,1.9,1.9
				c0,0.3-0.1,0.6-0.2,0.9c0.1,0.3,0.2,0.7,0.2,1C62,32.1,60.7,33.4,59.1,33.4L59.1,33.4z M60.1,27.7c-0.4,0-0.8,0.3-0.9,0.7
				c0,0.2-0.2,0.3-0.4,0.3c-0.9,0.2-1.6,0.9-1.6,1.9c0,1,0.8,1.9,1.9,1.9s1.9-0.9,1.9-1.9c0-0.3-0.1-0.6-0.2-0.9
				c-0.1-0.2-0.1-0.4,0-0.5C61,29,61,28.8,61,28.6C61,28.1,60.6,27.7,60.1,27.7L60.1,27.7z"/>
			<g>
				<path class="st0" d="M76.3,31c-0.2,0-0.5,0-0.7,0.1c-0.3-0.6-0.9-1.1-1.7-1.1c-1.1,0-1.9,0.9-1.9,1.9c0,1.1,0.8,1.9,1.9,1.9
					c0,0,0,0,0.1,0c0.2,1.1,1.2,1.9,2.3,1.9c1.3,0,2.4-1.1,2.4-2.4S77.6,31,76.3,31L76.3,31z"/>
				<path class="st2" d="M76.3,36.2c-1.2,0-2.3-0.8-2.7-1.9c-1.2-0.2-2.1-1.2-2.1-2.4c0-1.3,1.1-2.4,2.4-2.4c0.8,0,1.5,0.4,1.9,1
					c0.2,0,0.3,0,0.4,0c1.6,0,2.9,1.3,2.9,2.9S77.8,36.2,76.3,36.2L76.3,36.2z M73.9,30.5c-0.8,0-1.4,0.6-1.4,1.4
					c0,0.8,0.6,1.4,1.4,1.4c0.2,0,0.5,0.2,0.5,0.4c0.2,0.9,1,1.5,1.9,1.5c1.1,0,1.9-0.9,1.9-1.9s-0.8-1.9-1.9-1.9
					c-0.2,0-0.3,0-0.5,0.1c-0.2,0.1-0.5,0-0.6-0.2C74.9,30.8,74.5,30.5,73.9,30.5z"/>
			</g>
			<g>
				<path class="st0" d="M86.3,31.5c0-0.8-0.6-1.4-1.4-1.4c-0.7,0-1.2,0.5-1.4,1.1C83.3,31,83.2,31,83,31s-0.4,0-0.5,0.1
					c-0.2-0.6-0.7-1.1-1.4-1.1c-0.8,0-1.4,0.6-1.4,1.4c0,0.2,0,0.4,0.1,0.5c-0.6,0.2-1.1,0.7-1.1,1.4s0.4,1.2,1,1.4
					c0.2,0.6,0.7,1,1.4,1c0.4,0,0.7-0.1,0.9-0.4c0.2,0.2,0.6,0.4,0.9,0.4c0.7,0,1.2-0.5,1.4-1.1c0.2,0.1,0.3,0.1,0.5,0.1
					c0.8,0,1.4-0.6,1.4-1.4c0-0.4-0.1-0.7-0.4-1C86.1,32.2,86.3,31.8,86.3,31.5L86.3,31.5z"/>
				<path class="st2" d="M83,36.2c-0.3,0-0.7-0.1-0.9-0.3c-0.3,0.2-0.6,0.3-0.9,0.3c-0.8,0-1.4-0.4-1.7-1.1c-0.7-0.3-1.1-1-1.1-1.7
					c0-0.7,0.4-1.3,1-1.6c0-0.1,0-0.2,0-0.2c0-1,0.8-1.9,1.9-1.9c0.7,0,1.3,0.4,1.7,1c0.2,0,0.3,0,0.5,0c0.3-0.6,1-1,1.7-1
					c1.1,0,1.9,0.9,1.9,1.9c0,0.3-0.1,0.7-0.3,0.9c0.2,0.3,0.3,0.6,0.3,1c0,1.1-1,2-2.2,1.9C84.3,35.9,83.7,36.2,83,36.2L83,36.2z
					 M82,34.9c0.1,0,0.2,0,0.3,0.1c0.5,0.5,1.4,0.2,1.6-0.5c0-0.1,0.1-0.2,0.2-0.3c0.1-0.1,0.3-0.1,0.4,0c0.6,0.2,1.3-0.2,1.3-0.9
					c0-0.2-0.1-0.5-0.2-0.6c-0.2-0.2-0.2-0.5,0-0.6s0.2-0.4,0.2-0.6c0-0.5-0.4-1-0.9-1c-0.4,0-0.8,0.3-0.9,0.7
					c0,0.1-0.1,0.2-0.2,0.3s-0.3,0.1-0.4,0c-0.2-0.1-0.5-0.1-0.7,0c-0.1,0-0.3,0-0.4,0c-0.1-0.1-0.2-0.2-0.2-0.3
					c-0.1-0.4-0.5-0.7-0.9-0.7c-0.5,0-0.9,0.4-0.9,1c0,0.1,0,0.2,0.1,0.4c0.1,0.1,0.1,0.3,0,0.4c-0.1,0.1-0.2,0.2-0.3,0.2
					c-0.4,0.1-0.7,0.5-0.7,0.9s0.3,0.8,0.7,0.9c0.2,0,0.3,0.2,0.3,0.3c0.2,0.6,1,0.9,1.5,0.4C81.8,35,81.9,34.9,82,34.9L82,34.9z"/>
			</g>
			<g>
				<path class="st0" d="M65.3,34.3c0,0.8,0.6,1.4,1.4,1.4c0.7,0,1.2-0.5,1.4-1.1c0.2,0.1,0.3,0.1,0.5,0.1s0.4,0,0.5-0.1
					c0.2,0.6,0.7,1.1,1.4,1.1c0.8,0,1.4-0.6,1.4-1.4c0-0.2,0-0.4-0.1-0.5c0.6-0.2,1.1-0.7,1.1-1.4s-0.4-1.2-1-1.4
					c-0.2-0.6-0.7-1-1.4-1c-0.4,0-0.7,0.1-0.9,0.4c-0.2-0.2-0.6-0.4-0.9-0.4c-0.7,0-1.2,0.5-1.4,1.1C67.1,31,67,31,66.8,31
					c-0.8,0-1.4,0.6-1.4,1.4c0,0.4,0.1,0.7,0.4,1C65.5,33.6,65.3,34,65.3,34.3L65.3,34.3z"/>
				<path class="st2" d="M70.6,36.2c-0.7,0-1.3-0.4-1.7-1c-0.2,0-0.3,0-0.5,0c-0.3,0.6-1,1-1.7,1c-1.1,0-1.9-0.9-1.9-1.9
					c0-0.3,0.1-0.7,0.3-1c-0.2-0.3-0.3-0.6-0.3-1c0-1.1,1-2,2.2-1.9c0.5-0.9,1.7-1.2,2.6-0.7c0.3-0.2,0.6-0.3,0.9-0.3
					c0.8,0,1.4,0.4,1.7,1.1c0.7,0.3,1.1,1,1.1,1.7c0,0.7-0.4,1.3-1,1.7c0,0.1,0,0.2,0,0.2C72.5,35.4,71.6,36.2,70.6,36.2L70.6,36.2z
					 M69.2,34.2c0.1,0,0.2,0,0.2,0c0.1,0.1,0.2,0.2,0.2,0.3c0.1,0.4,0.5,0.7,0.9,0.7c0.5,0,0.9-0.4,0.9-1c0-0.1,0-0.2-0.1-0.3
					c-0.1-0.1-0.1-0.3,0-0.4c0.1-0.1,0.2-0.2,0.3-0.2c0.4-0.1,0.7-0.5,0.7-0.9s-0.3-0.8-0.7-0.9c-0.2,0-0.3-0.2-0.3-0.3
					c-0.2-0.6-1-0.9-1.5-0.4c-0.2,0.2-0.5,0.2-0.6,0c-0.5-0.5-1.4-0.2-1.6,0.5c0,0.1-0.1,0.2-0.2,0.3s-0.3,0.1-0.4,0
					c-0.6-0.2-1.3,0.2-1.3,0.9c0,0.2,0.1,0.5,0.2,0.6c0.2,0.2,0.2,0.5,0,0.6s-0.2,0.4-0.2,0.6c0,0.5,0.4,1,0.9,1
					c0.4,0,0.8-0.3,0.9-0.7c0-0.1,0.1-0.2,0.2-0.3c0.1-0.1,0.3-0.1,0.4,0c0.2,0.1,0.5,0.1,0.7,0C69.1,34.2,69.1,34.2,69.2,34.2
					L69.2,34.2z"/>
			</g>
			<path class="st0" d="M58.4,31.5c-0.9,0-1.6,0.5-2,1.3c-0.3-0.3-0.7-0.6-1.1-0.6c-0.8,0-1.4,0.6-1.4,1.4s0.6,1.4,1.4,1.4
				c0.5,0,0.9-0.2,1.1-0.6c0.3,0.8,1.1,1.3,2,1.3c1.2,0,2.1-1,2.1-2.1S59.6,31.5,58.4,31.5z"/>
			<path class="st2" d="M58.4,36.2c-0.8,0-1.6-0.4-2.1-1c-0.3,0.2-0.7,0.3-1,0.3c-1,0-1.9-0.9-1.9-1.9s0.8-1.9,1.9-1.9
				c0.4,0,0.7,0.1,1,0.3c0.5-0.6,1.2-1,2.1-1c1.5,0,2.6,1.2,2.6,2.6S59.8,36.2,58.4,36.2L58.4,36.2z M56.5,34
				C56.5,34,56.5,34,56.5,34c0.2,0,0.4,0.1,0.4,0.3c0.3,0.6,0.9,1,1.5,1c0.9,0,1.7-0.8,1.7-1.7s-0.8-1.7-1.7-1.7
				c-0.7,0-1.3,0.4-1.5,1c-0.1,0.2-0.2,0.3-0.4,0.3c-0.2,0-0.3,0-0.4-0.2c-0.2-0.2-0.5-0.4-0.8-0.4c-0.5,0-1,0.4-1,1s0.4,1,1,1
				c0.3,0,0.6-0.1,0.8-0.4C56.2,34.1,56.3,34,56.5,34L56.5,34z"/>
			<g>
				<path class="st0" d="M66.3,33.9c0-1-0.8-1.9-1.9-1.9c-0.4,0-0.7,0.1-1,0.3C63.3,31.5,62.7,31,62,31c-0.8,0-1.4,0.6-1.4,1.4
					c0,0.2,0.1,0.5,0.2,0.7c-0.7,0.3-1.1,1-1.1,1.7c0,1,0.8,1.9,1.9,1.9c0.5,0,1-0.2,1.3-0.5c0.3,0.3,0.7,0.5,1.1,0.5
					c0.7,0,1.3-0.5,1.4-1.2C65.9,35.2,66.3,34.6,66.3,33.9z"/>
				<path class="st2" d="M63.9,37.2c-0.4,0-0.8-0.1-1.1-0.4c-0.4,0.2-0.8,0.4-1.3,0.4c-1.3,0-2.4-1.1-2.4-2.4c0-0.8,0.4-1.5,1-1.9
					c0-0.2,0-0.3,0-0.4c0-1,0.8-1.9,1.9-1.9c0.7,0,1.4,0.4,1.7,1.1c0.2-0.1,0.5-0.1,0.7-0.1c1.3,0,2.4,1.1,2.4,2.4
					c0,0.8-0.4,1.5-1,2C65.5,36.6,64.8,37.2,63.9,37.2L63.9,37.2z M62.8,35.7C62.8,35.7,62.8,35.7,62.8,35.7c0.2,0,0.3,0.1,0.4,0.2
					c0.2,0.2,0.5,0.3,0.7,0.3c0.5,0,0.9-0.3,0.9-0.8c0-0.1,0.1-0.3,0.2-0.3c0.4-0.3,0.7-0.7,0.7-1.2c0-0.8-0.6-1.4-1.4-1.4
					c-0.2,0-0.5,0.1-0.7,0.2c-0.1,0.1-0.3,0.1-0.5,0c-0.1-0.1-0.2-0.2-0.3-0.4c-0.1-0.5-0.5-0.8-0.9-0.8c-0.5,0-1,0.4-1,1
					c0,0.2,0,0.3,0.1,0.4c0.1,0.1,0.1,0.2,0,0.4c0,0.1-0.1,0.2-0.2,0.3c-0.5,0.2-0.8,0.7-0.8,1.3c0,0.8,0.6,1.4,1.4,1.4
					c0.4,0,0.7-0.1,1-0.4C62.6,35.8,62.7,35.7,62.8,35.7z"/>
			</g>
			<polygon class="st0" points="68.9,77.7 62.8,77.7 60.6,39.6 68.2,39.6 			"/>
			<polygon class="st0" points="81.1,77.7 75,77.7 75.8,39.6 83.4,39.6 			"/>
			<polygon class="st4" points="87.2,77.7 81.1,77.7 83.4,39.6 91.1,39.6 			"/>
			<polygon class="st5" points="62.8,77.7 56.8,77.7 52.9,39.6 60.6,39.6 			"/>
			<polygon class="st5" points="75,77.7 68.9,77.7 68.2,39.6 75.8,39.6 			"/>
			<g>
				<path class="st0" d="M91.1,39.6H52.9c-1,0-1.9-0.8-1.9-1.9l0,0c0-1,0.8-1.9,1.9-1.9h38.1c1.1,0,1.9,0.8,1.9,1.9l0,0
					C93,38.7,92.1,39.6,91.1,39.6L91.1,39.6z"/>
				<path class="st2" d="M93.9,37.7c0-1.6-1.3-2.9-2.9-2.9H52.9c-1.6,0-2.9,1.3-2.9,2.9c0,1.3,0.8,2.3,2,2.7l3.7,37.4
					c0,0.5,0.5,0.9,1,0.9h30.5c0.5,0,0.9-0.4,0.9-0.9l3.7-37.4C93.1,40,93.9,38.9,93.9,37.7L93.9,37.7z M86.4,76.8H57.6L54,40.5h36
					L86.4,76.8L86.4,76.8z M91.1,38.6H52.9c-0.5,0-1-0.4-1-1s0.4-1,1-1h38.1c0.5,0,0.9,0.4,0.9,1S91.6,38.6,91.1,38.6L91.1,38.6z"/>
			</g>
			<polygon class="st5" points="81.2,76.8 86.4,76.8 89.9,41.5 90,40.5 83.4,40.5 			"/>
			<circle class="st0" cx="67.2" cy="29.1" r="1.9"/>
			<path class="st2" d="M67.2,31.5c-1.3,0-2.4-1.1-2.4-2.4s1.1-2.4,2.4-2.4s2.4,1.1,2.4,2.4S68.5,31.5,67.2,31.5z M67.2,27.7
				c-0.8,0-1.4,0.6-1.4,1.4s0.6,1.4,1.4,1.4s1.4-0.6,1.4-1.4S68,27.7,67.2,27.7z"/>
		</g>
		<g>
			<g>
				<path class="st0" d="M55.9,53.2l-5.8-5.8c-1.3-1.3-3.1-2-4.9-2h-4.8c-0.3,0-0.6,0.3-0.6,0.6v1.7c0,0.3,0.3,0.6,0.6,0.6H44
					c1.8,0,3.6,0.7,4.9,2l2.9,2.9"/>
				<path class="st2" d="M51.5,53.6l0.8-0.8l-2.9-2.9c-1.4-1.4-3.3-2.2-5.3-2.2h-3.7c0,0,0,0,0,0V46c0,0,0,0,0,0h4.8
					c1.7,0,3.3,0.7,4.5,1.9l5.8,5.8l0.8-0.8l-5.8-5.8c-1.4-1.4-3.3-2.2-5.3-2.2h-4.8c-0.6,0-1.1,0.5-1.1,1.1v1.7
					c0,0.6,0.5,1.1,1.1,1.1H44c1.7,0,3.3,0.7,4.5,1.9L51.5,53.6L51.5,53.6z"/>
			</g>
			<g>
				<line class="st6" x1="52.4" y1="49.3" x2="50.1" y2="51.5"/>
				
					<rect x="49.6" y="49.9" transform="matrix(0.7098 -0.7044 0.7044 0.7098 -20.6446 50.72)" class="st2" width="3.2" height="1.1"/>
			</g>
			<g>
				<line class="st6" x1="50.6" y1="47.6" x2="48.4" y2="49.8"/>
				
					<rect x="47.9" y="48.2" transform="matrix(0.7098 -0.7044 0.7044 0.7098 -19.9304 49.009)" class="st2" width="3.2" height="1.1"/>
			</g>
			<g>
				<g>
					<path class="st7" d="M49.7,88.2h12.1c1.2,0,2.2-0.9,2.3-2.1l3-27.7H44.4l3,27.7C47.5,87.3,48.5,88.2,49.7,88.2L49.7,88.2z"/>
					<path class="st2" d="M46.9,86.2l-3.1-28.3h23.9l-3.1,28.3c-0.2,1.5-1.4,2.6-2.9,2.6H49.7C48.3,88.7,47,87.6,46.9,86.2
						L46.9,86.2z M45,58.9L48,86c0.1,0.9,0.9,1.6,1.8,1.6h12.1c0.9,0,1.7-0.7,1.8-1.6l2.9-27.1C66.6,58.9,45,58.9,45,58.9z"/>
				</g>
				<g>
					<path class="st0" d="M43,58.4h25.6c0.5,0,0.9-0.5,0.8-1l-0.5-2.1c-0.3-1.3-1.5-2.2-2.8-2.2H45.5c-1.3,0-2.5,0.9-2.8,2.2
						l-0.5,2.1C42,57.9,42.4,58.4,43,58.4L43,58.4z"/>
					<path class="st2" d="M41.9,58.4c-0.3-0.3-0.3-0.8-0.2-1.2l0.5-2.1c0.4-1.5,1.7-2.6,3.3-2.6h20.6c1.6,0,2.9,1.1,3.3,2.6l0.5,2.1
						c0.1,0.4,0,0.8-0.2,1.2C69.4,58.8,69,59,68.6,59H43C42.6,59,42.2,58.8,41.9,58.4L41.9,58.4z M45.5,53.7c-1.1,0-2,0.7-2.2,1.8
						l-0.5,2.1c0,0.1,0,0.2,0,0.2s0.1,0.1,0.2,0.1h25.6c0.1,0,0.2-0.1,0.2-0.1s0.1-0.1,0.1-0.2l-0.5-2.1c-0.3-1-1.2-1.8-2.2-1.8
						H45.5L45.5,53.7z"/>
				</g>
				<g>
					<circle class="st0" cx="55.6" cy="71.1" r="6.1"/>
					<path class="st2" d="M49,71.1c0-3.6,3-6.6,6.6-6.6s6.6,3,6.6,6.6s-3,6.6-6.6,6.6S49,74.7,49,71.1z M50.1,71.1
						c0,3,2.5,5.5,5.5,5.5s5.5-2.5,5.5-5.5s-2.5-5.5-5.5-5.5S50.1,68,50.1,71.1z"/>
				</g>
			</g>
		</g>
		<g>
			<path class="st0" d="M96.7,90.6L96.7,90.6c-0.5-0.2-1-0.2-1.5-0.1l-0.4,0.1c-0.3,0.1-0.7,0-1.1-0.1l-8.4-2.7
				c-0.8-0.2-1.4-0.9-1.5-1.7l-0.7-3.2c-0.2-0.9-0.9-1.7-1.8-1.9l0,0c-0.9-0.3-1.9-0.1-2.6,0.6l-2.4,2.2c-0.6,0.6-1.5,0.7-2.2,0.5
				l-8.4-2.7c-0.3-0.1-0.7-0.3-0.9-0.5l-0.3-0.3c-0.4-0.3-0.8-0.6-1.3-0.8l0,0c-0.8-0.3-1.2-1.1-1-1.9l3-9.4c0.3-0.8,1.1-1.2,1.9-1
				l33.4,10.6c0.8,0.3,1.2,1.1,1,1.9l-3,9.4C98.4,90.4,97.5,90.9,96.7,90.6L96.7,90.6z"/>
			<path class="st8" d="M74.5,81.1l-8.3-2.6c-0.4-0.1-0.6-0.6-0.5-1l1.8-5.8c0.1-0.4,0.6-0.6,1-0.5l10.2,3.2c0.4,0.1,0.6,0.6,0.5,1
				l-0.9,2.7c0,0.1-0.1,0.2-0.2,0.3l-2.8,2.5C75,81.1,74.7,81.2,74.5,81.1L74.5,81.1z"/>
			<path class="st7" d="M86.9,85.1l8.3,2.6c0.4,0.1,0.8-0.1,1-0.5l1.8-5.8c0.1-0.4-0.1-0.8-0.5-1l-10.2-3.2c-0.4-0.1-0.8,0.1-1,0.5
				l-0.9,2.7c0,0.1-0.1,0.3,0,0.4l0.9,3.7C86.5,84.8,86.7,85,86.9,85.1L86.9,85.1z"/>
			<path class="st2" d="M93.6,91.2l-8.4-2.7c-1-0.3-1.8-1.2-2.1-2.3L82.4,83c-0.1-0.7-0.6-1.2-1.3-1.4s-1.3-0.1-1.8,0.4l-2.4,2.2
				c-0.8,0.7-1.9,1-3,0.7l-8.4-2.7c-0.4-0.1-0.9-0.4-1.2-0.7L64,81.2c-0.3-0.3-0.6-0.5-1-0.6c-1.2-0.4-1.9-1.7-1.5-2.9l3-9.4
				c0.4-1.2,1.7-1.9,2.9-1.5l33.4,10.6c1.2,0.4,1.9,1.7,1.5,2.9l-3,9.4c-0.4,1.2-1.7,1.9-2.9,1.5c-0.4-0.1-0.8-0.2-1.1-0.1l-0.4,0.1
				C94.5,91.3,94,91.3,93.6,91.2L93.6,91.2z M81.6,80.2c1.2,0.4,2,1.3,2.3,2.5l0.7,3.2c0.1,0.5,0.5,1,1,1.1l8.4,2.7
				c0.2,0.1,0.5,0.1,0.7,0.1l0.4-0.1c0.6-0.1,1.2-0.1,1.8,0.1c0.4,0.1,0.8-0.1,1-0.5l3-9.4c0.1-0.4-0.1-0.8-0.5-1L67,68.3
				c-0.4-0.1-0.8,0.1-1,0.5l-3,9.4c-0.1,0.4,0.1,0.8,0.5,1c0.6,0.2,1.1,0.5,1.6,0.9l0.3,0.3c0.2,0.2,0.4,0.3,0.6,0.4l8.4,2.7
				c0.5,0.2,1.1,0,1.5-0.3l2.4-2.2C79.2,80.1,80.5,79.8,81.6,80.2L81.6,80.2z"/>
			<path class="st2" d="M74.2,81.8l-8.3-2.6c-0.8-0.3-1.2-1.1-1-1.9l1.8-5.8c0.2-0.8,1.1-1.2,1.9-1l10.2,3.2c0.8,0.3,1.2,1.1,1,1.9
				L79,78.3c-0.1,0.3-0.2,0.5-0.4,0.7l-2.8,2.5C75.3,81.9,74.8,82,74.2,81.8z M68.3,71.9l-1.8,5.8l8.3,2.6l0,0l2.8-2.5l0.9-2.7
				L68.3,71.9z"/>
			<path class="st2" d="M95,88.4l-8.3-2.6c-0.5-0.2-0.9-0.6-1-1.1L84.8,81c-0.1-0.3-0.1-0.6,0-0.8l0.9-2.7c0.2-0.8,1.1-1.2,1.9-1
				l10.2,3.2c0.8,0.3,1.2,1.1,1,1.9l-1.8,5.8C96.7,88.3,95.8,88.7,95,88.4L95,88.4z M87.1,77.9l-0.9,2.7l0.9,3.7l8.3,2.6l1.8-5.8
				L87.1,77.9L87.1,77.9z"/>
		</g>
	</g>
</g>
</svg>
