<?xml version="1.0" encoding="utf-8"?>
<!-- Generator: Adobe Illustrator 26.3.1, SVG Export Plug-In . SVG Version: 6.00 Build 0)  -->
<svg version="1.1" id="Layer_1" xmlns="http://www.w3.org/2000/svg" xmlns:xlink="http://www.w3.org/1999/xlink" x="0px" y="0px"
	 viewBox="0 0 141.7 141.7" style="enable-background:new 0 0 141.7 141.7;" xml:space="preserve">
<style type="text/css">
	.st0{fill:#233D4D;}
	.st1{fill:#F57E2E;}
	.st2{fill:#579C87;}
	.st3{fill:#FCCA46;}
	.st4{fill:#A1C181;}
	.st5{fill:#8C9AA9;}
	.st6{fill:#ffffff;}
</style>
<g>
	<g>
		<g>
			<path class="st6" d="M112.7,102.9c-0.2,0.5-0.5,0.9-0.9,1.3c-0.2,0.2-0.4,0.3-0.7,0.4c-0.3,0.1-0.6,0.1-0.9,0.2
				c-0.3,0-0.6,0.1-0.9,0.1c-0.3,0-0.5,0-0.7,0c-0.6,0-1.2-0.1-1.6-0.3c-0.4-0.2-0.8-0.5-1.1-0.8c-0.3-0.3-0.5-0.7-0.8-1.1
				c-0.2-0.4-0.4-0.8-0.5-1.2c0.3-0.1,0.6-0.1,0.9-0.2s0.6,0,0.9-0.1c0.1,0.2,0.2,0.3,0.2,0.4c0,0.1,0.1,0.3,0.2,0.5
				c0.2,0.3,0.5,0.6,0.7,0.7c0.3,0.2,0.7,0.2,1.2,0.2c0.4,0,0.7,0,0.9-0.1c0.2,0,0.4-0.1,0.6-0.3c0.2-0.1,0.3-0.3,0.5-0.6
				c0.1-0.3,0.3-0.6,0.5-1l1.7,0.1C113.1,101.9,112.9,102.4,112.7,102.9z"/>
		</g>
	</g>
	<g>
		<g transform="translate(0, 2.5)">
			<path class="st6" d="M30.7,105.4c-0.4-0.3-0.7-0.6-1-0.9c-0.1,0.1-0.2,0.2-0.3,0.2l-0.2,0.2c-0.1,0.1-0.1,0.1-0.2,0.2
				c-0.1,0.1-0.2,0.2-0.3,0.3l-1.1,0.9c-0.2-0.2-0.5-0.5-0.8-0.8c-0.3-0.3-0.5-0.6-0.7-0.8l3.7-3c0.2,0.2,0.4,0.4,0.6,0.6
				s0.5,0.3,0.8,0.6c0.3,0.3,0.7,0.6,1.1,0.9c0.4,0.3,0.7,0.6,1,0.9l-1.5,1.7C31.4,106,31.1,105.7,30.7,105.4z M27.6,112.1
				c0-0.4,0-0.7,0-1s0-0.5,0-0.8c0-0.2,0-0.5,0-0.7c0-0.3,0-0.7,0-1c0-0.4,0-0.9,0.1-1.5c0.3,0,0.7-0.1,1-0.1c0.3,0,0.5,0,0.8,0
				c0.3,0,0.6,0,1,0H31c0.2,0,0.3,0,0.5,0c0,1.4,0.1,2.8,0.1,4.1c0,1.3,0.1,2.6,0.1,3.8s0,2.5,0.1,3.8c0,1.3,0,2.7,0,4.1l-4.1,0
				c0-1.4,0-2.7-0.1-3.9c0-0.5,0-1.1,0-1.6s0-1.1,0-1.5c0-0.5,0-0.9,0-1.3v-1C27.6,112.9,27.6,112.5,27.6,112.1z"/>
			<path class="st6" d="M37.1,116.9c0,0.8,0,1.6,0.1,2.4c0,0.8,0,1.5,0,2.1c0,0.6,0,1.2,0,1.5h-3.9l0.1-16.5h3.5
				c0.2,0.4,0.5,0.9,0.8,1.6s0.7,1.5,1.1,2.3c0.4,0.8,0.8,1.7,1.2,2.6c0.4,0.9,0.9,1.8,1.3,2.6l0.1-9l3.7,0.1c0,0.9,0,1.8,0,2.7v2.6
				c0,0.9,0,1.8,0,2.7c0,0.9,0,1.8,0,2.7s0,1.8-0.1,2.8c0,0.9,0,1.9-0.1,2.9c-0.3,0-0.5,0-0.8,0c-0.2,0-0.4,0-0.6,0
				c-0.4,0-0.7,0-1,0c-0.3,0-0.7,0-1.2,0c-0.2-0.3-0.4-0.8-0.7-1.4l-1.1-2.1c-0.4-0.8-0.8-1.6-1.3-2.4c-0.4-0.8-0.9-1.6-1.2-2.4
				C37,115.3,37,116,37.1,116.9z"/>
			<path class="st6" d="M52.3,122.9c0-1.4,0-2.8,0.1-4.1c0-1.4,0-2.7,0-4.1c0-1.4,0-2.7,0-4.1c0-1.4,0-2.8,0.1-4.3h2.2
				c0.7,0,1.4,0,2,0c0.6,0,1.1,0.1,1.6,0.1c0.4,0,0.7,0.1,0.9,0.2c0.4,0.2,0.8,0.4,1.1,0.7c0.3,0.3,0.5,0.6,0.7,1
				c0.1,0.3,0.2,0.8,0.3,1.4c0.1,0.6,0.1,1.3,0.1,1.9c0,0.7,0,1.4-0.1,2.1s-0.2,1.2-0.3,1.6c-0.2,0.4-0.3,0.7-0.5,0.9
				c-0.2,0.2-0.4,0.3-0.6,0.4c-0.2,0.1-0.4,0.2-0.6,0.2c-0.2,0-0.5,0.1-0.8,0.1c-0.2,0.1-0.5,0.1-0.7,0.1c-0.3,0-0.5,0-0.7,0
				c-0.3,0-0.5,0-0.8,0v5.8L52.3,122.9z M57.4,113.6c0.2-0.1,0.4-0.3,0.5-0.5c0.1-0.1,0.2-0.3,0.2-0.6c0-0.3,0.1-0.7,0.1-1.1
				c0-0.5,0-0.8-0.1-1.2c-0.1-0.3-0.3-0.6-0.7-0.7c-0.1,0-0.2,0-0.3,0c-0.2,0-0.5,0-1-0.1l0.2,4.3C56.8,113.8,57.1,113.8,57.4,113.6
				z"/>
			<path class="st6" d="M67.2,123.4h-0.4c-0.9,0-1.7-0.1-2.3-0.3c-0.6-0.2-1.1-0.6-1.4-1s-0.6-1-0.8-1.6c-0.2-0.7-0.3-1.4-0.4-2.2
				c0-0.4-0.1-0.8-0.1-1.2c0-0.4-0.1-0.8-0.1-1.3c0-0.4-0.1-0.8-0.1-1.2c0-0.4,0-0.7,0-1c0-0.5,0-1.1,0.1-1.6c0-0.6,0.1-1.2,0.1-1.8
				c0.1-0.7,0.2-1.4,0.5-1.9c0.3-0.5,0.7-0.9,1.4-1.2c0.4-0.2,0.9-0.3,1.5-0.4s1.3-0.2,2.1-0.2c0.6,0,1.2,0.1,1.8,0.2
				c0.6,0.1,1.1,0.3,1.5,0.6c0.6,0.4,1,0.9,1.3,1.4s0.5,1.1,0.5,1.7c0,0.5,0.1,1.2,0.1,2c0,0.8,0,1.7,0,2.6c0,0.2,0,0.4,0,0.6
				c0,0.2,0,0.4,0,0.6c0,0.6,0,1.1-0.1,1.7c0,0.5-0.1,1-0.1,1.5s-0.2,0.9-0.3,1.2c-0.1,0.4-0.3,0.7-0.5,0.9
				c-0.2,0.2-0.3,0.4-0.5,0.5c-0.2,0.2-0.3,0.3-0.5,0.5c-0.2,0.2-0.4,0.3-0.7,0.4s-0.6,0.3-1,0.4l-1.4,0.1
				C67.5,123.3,67.4,123.4,67.2,123.4z M68.6,116.1c0-0.6,0-1.2,0-1.7s0-1.1,0-1.7s-0.1-1.2-0.1-1.8c-0.1-0.5-0.2-0.8-0.5-0.9
				c-0.2-0.1-0.5-0.2-0.9-0.2c-0.3,0.1-0.6,0.2-0.8,0.4c-0.2,0.2-0.4,0.4-0.4,0.7c0,0.9,0,1.7,0,2.2c0,0.6,0,1.1,0,1.7
				c0,0.5,0.1,1.1,0.1,1.6c0,0.6,0.1,1.3,0.2,2.2c0,0.2,0.1,0.4,0.2,0.5c0.1,0.2,0.2,0.3,0.3,0.4c0.1,0.1,0.3,0.2,0.4,0.2
				c0.2,0,0.3,0,0.4,0c0.2,0,0.4-0.1,0.5-0.2c0.1-0.1,0.2-0.3,0.3-0.4c0.1-0.2,0.1-0.4,0.2-0.5c0-0.2,0.1-0.3,0.1-0.5
				C68.5,117.3,68.5,116.7,68.6,116.1z"/>
			<path class="st6" d="M73.7,109.7c0-0.5,0-1,0-1.5s0-1.2,0.1-1.9c0.2,0,0.3,0,0.5,0c0.1,0,0.3,0,0.4,0c0.3,0,0.6,0,0.9,0
				c0.3,0,0.7,0,1.1,0h0.4c0.2,0,0.3,0,0.5,0c0.1,2.3,0.1,4.5,0.1,6.7c0,2.1,0,4.3,0,6.6v3.4l-4,0.1c0-1.4,0-2.8,0-4.1v-7.7
				C73.7,110.7,73.7,110.2,73.7,109.7z"/>
			<path class="st6" d="M84.3,106.4c0.2,0,0.5,0,0.8,0h0.5c0.2,0,0.4,0,0.6,0c0.4,1.2,0.8,2.5,1.2,3.7s0.7,2.6,1,3.9s0.7,2.8,1,4.2
				c0.3,1.5,0.7,3,1.1,4.6l-4.2,0c-0.1-0.3-0.1-0.6-0.2-0.8c0-0.2-0.1-0.4-0.1-0.5c0-0.2-0.1-0.3-0.1-0.5c0-0.2-0.1-0.4-0.2-0.7
				c-0.2,0-0.4,0-0.7,0c-0.3,0-0.5,0-0.8,0s-0.5,0-0.8,0c-0.3,0-0.5,0-0.7,0l-0.6,2.5h-2c-0.3,0-0.6,0-0.9,0c-0.3,0-0.8,0-1.2,0
				l3.8-15.6l0.2-0.9c0.2,0,0.5,0,0.8,0h1.1C83.9,106.4,84.1,106.4,84.3,106.4z M83.3,117.1c0.1,0,0.3,0,0.5,0h0.7
				c0.2,0,0.4,0,0.6,0l-0.1-1c0-0.3-0.1-0.6-0.1-0.9c0-0.3-0.1-0.6-0.1-0.8c-0.1-0.3-0.1-0.7-0.2-1.1s-0.1-0.8-0.2-1.1l-0.2-1.2
				c-0.1,0.3-0.1,0.7-0.2,1.1s-0.1,0.8-0.2,1.3c-0.1,0.4-0.1,0.9-0.2,1.3s-0.1,0.8-0.2,1.2s-0.1,0.6-0.1,0.8l0,0.3
				C83.1,117.1,83.2,117.1,83.3,117.1z"/>
			<path class="st6" d="M94.4,116.9c0,0.8,0,1.6,0.1,2.4c0,0.8,0,1.5,0,2.1c0,0.6,0,1.2,0,1.5h-3.9l0.1-16.5h3.5
				c0.2,0.4,0.5,0.9,0.8,1.6s0.7,1.5,1.1,2.3c0.4,0.8,0.8,1.7,1.2,2.6c0.4,0.9,0.9,1.8,1.3,2.6l0.1-9l3.7,0.1c0,0.9,0,1.8,0,2.7v2.6
				c0,0.9,0,1.8,0,2.7c0,0.9,0,1.8,0,2.7s0,1.8-0.1,2.8c0,0.9,0,1.9-0.1,2.9c-0.3,0-0.5,0-0.8,0c-0.2,0-0.4,0-0.6,0
				c-0.4,0-0.7,0-1,0c-0.3,0-0.7,0-1.2,0c-0.2-0.3-0.4-0.8-0.7-1.4l-1.1-2.1c-0.4-0.8-0.8-1.6-1.3-2.4c-0.4-0.8-0.9-1.6-1.2-2.4
				C94.4,115.3,94.4,116,94.4,116.9z"/>
			<path class="st6" d="M108.9,106.4c0.2,0,0.5,0,0.8,0h0.5c0.2,0,0.4,0,0.6,0c0.4,1.2,0.8,2.5,1.2,3.7s0.7,2.6,1,3.9s0.7,2.8,1,4.2
				c0.3,1.5,0.7,3,1.1,4.6l-4.2,0c-0.1-0.3-0.1-0.6-0.2-0.8c0-0.2-0.1-0.4-0.1-0.5c0-0.2-0.1-0.3-0.1-0.5c0-0.2-0.1-0.4-0.2-0.7
				c-0.2,0-0.4,0-0.7,0c-0.3,0-0.5,0-0.8,0s-0.5,0-0.8,0c-0.3,0-0.5,0-0.7,0l-0.6,2.5h-2c-0.3,0-0.6,0-0.9,0c-0.3,0-0.8,0-1.2,0
				l3.8-15.6l0.2-0.9c0.2,0,0.5,0,0.8,0h1.1C108.5,106.4,108.7,106.4,108.9,106.4z M108,117.1c0.1,0,0.3,0,0.5,0h0.7
				c0.2,0,0.4,0,0.6,0l-0.1-1c0-0.3-0.1-0.6-0.1-0.9c0-0.3-0.1-0.6-0.1-0.8c-0.1-0.3-0.1-0.7-0.2-1.1s-0.1-0.8-0.2-1.1l-0.2-1.2
				c-0.1,0.3-0.1,0.7-0.2,1.1s-0.1,0.8-0.2,1.3c-0.1,0.4-0.1,0.9-0.2,1.3s-0.1,0.8-0.2,1.2s-0.1,0.6-0.1,0.8l0,0.3
				C107.8,117.1,107.8,117.1,108,117.1z"/>
		</g>
	</g>
	<g>
		<path class="st2" d="M70.2,20c-3.3,0.2-6.4,1.8-8.7,4.1L37.7,47.9c-2.3,2.3-3.9,5.4-4.1,8.7c-0.3,4,1.1,7.9,4,10.7l24,24
			c5.3,5.3,14,5.3,19.3,0l24-24c5.3-5.3,5.3-14,0-19.3l-24-24C78.1,21.2,74.3,19.7,70.2,20z"/>
		<g>
			<path class="st4" d="M60.6,84.7c-0.6,0.2-0.8,1-0.4,1.5l3.3,3.3c2.1,2.1,4.9,3.2,7.8,3.2s5.7-1.1,7.8-3.2l4-4
				c0.3-0.3,0.1-0.9-0.4-0.9c-3.3,0.3-4.7,1.9-6.8,1.9c-2.4,0-6.2-2.8-9.6-2.8C64.1,83.7,61.9,84.3,60.6,84.7z"/>
			<g>
				<path class="st0" d="M101.6,65.9c0.8-0.1,1.5-0.5,2.1-1c0,0,0,0,0,0c1.7-2,2.6-4.5,2.6-7.2c0-3-1.1-5.7-3.2-7.8l-0.2-0.2
					c-0.2,0-0.3,0-0.5,0c-0.8,0-1.5,0.2-2.1,0.6c-0.6-0.4-1.3-0.6-2.1-0.6c-0.9,0-1.7,0.3-2.3,0.8c-0.2-0.9-1-1.7-1.9-1.9
					c0.2-0.7,0.1-1.5-0.2-2.3C93.3,45,92,44.1,90.6,44c-0.8,0-1.6,0.2-2.3,0.6c-0.6-0.4-1.3-0.6-2.1-0.6c-1.8,0-3.2,1.2-3.6,2.9
					c-0.5-0.5-1.2-0.8-2-0.8c-0.3,0-0.7,0.1-1,0.2c-0.5-1.5-1.9-2.6-3.6-2.6c-0.8,0-1.5,0.2-2.1,0.6c-0.6-0.4-1.3-0.6-2.1-0.6
					c-1.8,0-3.2,1.2-3.6,2.9c-0.1-0.1-0.3-0.3-0.5-0.4c-0.4-1.6-1.9-2.8-3.6-2.8c-0.8,0-1.5,0.2-2.1,0.6c-0.6-0.4-1.3-0.6-2.1-0.6
					c-1.8,0-3.2,1.2-3.6,2.9c-0.5-0.5-1.2-0.8-2-0.8c-1.2,0-2.3,0.8-2.7,1.9c-0.3-0.4-0.8-0.7-1.3-0.8c0.1-0.3,0.1-0.5,0.1-0.8
					c0-1.9-1.4-3.4-3.2-3.7l-8,8c-1.6,1.6-2.6,3.6-3,5.7c-0.2,1,0.4,2,1.3,2.3C54.4,64.1,85.1,67.6,101.6,65.9z"/>
			</g>
			<g>
				<path class="st0" d="M71.3,97.9c-4.2,0-8.3-1.6-11.5-4.7l-24-24C32.7,66.1,31,62,31,57.7s1.7-8.4,4.8-11.5l24-24
					c3.1-3.1,7.1-4.8,11.5-4.8s8.4,1.7,11.5,4.8l24,24c6.3,6.3,6.3,16.6,0,23l-24,24C79.6,96.3,75.4,97.9,71.3,97.9z M70.2,20
					c-3.3,0.2-6.4,1.8-8.7,4.1L37.7,47.9c-2.3,2.3-3.9,5.4-4.1,8.7c-0.3,4,1.1,7.9,4,10.7l24,24c5.3,5.3,14,5.3,19.3,0l24-24
					c5.3-5.3,5.3-14,0-19.3l-24-24C78.1,21.2,74.3,19.7,70.2,20z"/>
			</g>
			<path class="st4" d="M89.7,78.9l0.8-0.8c0.4-0.4,0.1-1.2-0.5-1.2c-27.2-1.5-10-2.2,2.7-2.3c0.8,0,1.5-0.3,2.1-0.9l0.6-0.6
				c0.5-0.5,0.2-1.4-0.5-1.4c-17.3-1.7-3.9-2.3,3.2-2.3c0.7,0,1.4-0.3,1.9-0.8l0.5-0.5c0.4-0.4,0.1-1.1-0.5-1
				c-22.2,2.5-52.3-3.1-61.8-5.7c-0.7-0.2-1.2,0.5-0.9,1.1c0.5,1.1,1.2,2.1,2.1,2.9l0.7,0.7c0.5,0.5,1.2,0.8,1.9,0.8
				c7,0.1,17.1,0.7,3.1,2.2c-0.8,0.1-1.1,1-0.5,1.5l0.8,0.8c0.4,0.4,1,0.7,1.6,0.7c13,0,37.6,0.6,3.4,2.4c-0.7,0-1,0.9-0.5,1.4
				l0.8,0.8c0.4,0.4,0.8,0.6,1.3,0.6c8.8,0,23.9,0.6,3.4,2.3c-0.7,0.1-1,0.9-0.5,1.4l1.4,1.4c0.5,0.5,1.2,0.6,1.8,0.3h0
				c1.2-0.5,4.5-1.8,8.1-1.8c2.4,0,4.7,1,6.7,1.8c1.1,0.4,2.4,1,2.9,1c0.5,0,1-0.2,1.8-0.6c1.3-0.6,3.1-1.3,5.8-1.4
				c0.2,0,0.5-0.1,0-0.2c-13.4-1.3-4.1-1.8,4-2C88.3,79.8,89.1,79.5,89.7,78.9z"/>
			<circle class="st3" cx="71.4" cy="31.3" r="7.9"/>
			<g>
				<path class="st0" d="M52.7,43c0.6-0.2,1.2-0.3,1.8-0.3c0.3,0,0.6,0,0.9,0.1c1.2-1.3,2.9-2.1,4.7-2.1c0.7,0,1.4,0.1,2.1,0.3
					c0.7-0.2,1.4-0.3,2.1-0.3c1.5,0,2.9,0.5,4,1.5c1-0.7,2.3-1.2,3.7-1.2c0.7,0,1.4,0.1,2.1,0.3c0.7-0.2,1.4-0.3,2.1-0.3
					c2,0,3.9,1,5,2.5c0.1,0,0.3,0,0.4,0.1c1.2-1.3,2.9-2.1,4.7-2.1c0.7,0,1.4,0.1,2.1,0.3c0.7-0.2,1.4-0.3,2.1-0.3
					c3.3,0,6,2.5,6.3,5.7c0.1,0,0.1,0.1,0.2,0.1c0.5-0.1,0.9-0.2,1.4-0.2c0.8,0,1.5,0.1,2.2,0.4c0-0.1,0-0.1,0.1-0.1l-9-9
					c-0.4-0.4-1.1-0.2-1.2,0.4l0,0c-0.5-0.4-1.1-0.7-1.8-0.6c-0.3,0-0.6,0.1-0.8,0.2C87.3,37,86,36,84.5,36.1
					c-0.7,0-1.3,0.3-1.8,0.7c-0.6-0.3-1.2-0.5-1.9-0.5c-1.6,0.1-2.8,1.2-3.1,2.7c-0.1-0.1-0.3-0.2-0.4-0.3c-0.4-1.4-1.8-2.4-3.4-2.3
					c-0.7,0-1.3,0.3-1.8,0.7c-0.6-0.3-1.2-0.5-1.9-0.5c-1.6,0.1-2.8,1.2-3.1,2.7c-0.5-0.4-1.1-0.7-1.8-0.6c-1.1,0.1-2,0.8-2.3,1.8
					c-0.3-0.3-0.7-0.6-1.2-0.7c0.1-0.6,0.1-1.2-0.2-1.9c-0.6-1.2-1.7-2-3.1-2c-0.8,0-1.4,0.3-2,0.7c-0.6-0.3-1.2-0.5-1.9-0.5
					c-1.6,0.1-2.8,1.2-3.1,2.7c0,0,0,0,0,0c-0.3-0.2-0.7-0.2-0.9,0l-0.9,0.9C51,40.4,52.1,41.6,52.7,43z"/>
			</g>
		</g>
	</g>
</g>
</svg>
