<?xml version="1.0" encoding="utf-8"?>
<!-- Generator: Adobe Illustrator 26.3.1, SVG Export Plug-In . SVG Version: 6.00 Build 0)  -->
<svg version="1.1" id="Layer_1" xmlns="http://www.w3.org/2000/svg" xmlns:xlink="http://www.w3.org/1999/xlink" x="0px" y="0px"
	 viewBox="0 0 141.7 141.7" style="enable-background:new 0 0 141.7 141.7;" xml:space="preserve">
<style type="text/css">
	.st0{fill:#233D4D;}
	.st1{fill:#F57E2E;}
	.st2{fill:#579C87;}
	.st3{fill:#FCCA46;}
	.st4{fill:#A1C181;}
	.st5{fill:#8C9AA9;}
	.st6{fill:#ffffff;}
</style>
<g>
	<g>
		<g transform="translate(0, 2.5)">
			<path class="st6" d="M34,117c0.2,0.6,0.3,1.1,0.3,1.6c0,0.6-0.1,1.2-0.4,1.8c-0.3,0.6-0.7,1.2-1.3,1.9c-0.4,0.3-0.7,0.5-1.1,0.6
				c-0.4,0.2-0.8,0.3-1.2,0.3s-1,0.1-1.5,0.1c-0.6,0-1.3,0-2.1,0h-1.1l0-3.4c0.2,0,0.4,0,0.6,0s0.5,0,0.7,0c0.3,0,0.5,0,0.8,0
				s0.5,0,0.8-0.1c0.3-0.1,0.5-0.1,0.7-0.3c0.2-0.1,0.4-0.3,0.5-0.6c0.1-0.2,0.1-0.5,0.1-0.7c0-0.3-0.1-0.6-0.2-0.9
				s-0.3-0.5-0.5-0.8c-0.2-0.2-0.4-0.5-0.6-0.7c-0.2-0.2-0.4-0.5-0.7-0.7c-0.4-0.5-0.8-0.9-1.1-1.4s-0.4-0.9-0.5-1.5
				c0-0.2,0-0.3,0-0.5s0-0.3,0-0.5c0-0.3,0-0.7,0.1-1c0.1-0.4,0.2-0.7,0.3-1s0.4-0.7,0.6-1c0.3-0.3,0.6-0.6,1.1-0.9
				c0.2-0.1,0.5-0.3,0.8-0.4c0.3-0.1,0.7-0.2,1.1-0.3c0.4-0.1,0.9-0.2,1.4-0.2c0.5-0.1,1.2-0.1,1.9-0.2l0.6,3.5
				c-0.4,0-0.7,0.1-1,0.1c-0.3,0.1-0.5,0.1-0.7,0.1c-0.2,0-0.4,0.1-0.7,0.2c-0.2,0.1-0.4,0.2-0.5,0.4c-0.1,0.1-0.2,0.3-0.2,0.5
				c-0.1,0.2-0.1,0.4-0.1,0.7c0,0.2,0,0.3,0.1,0.5c0,0.2,0.1,0.3,0.2,0.5c0.3,0.4,0.6,0.8,0.9,1.2c0.3,0.4,0.5,0.8,0.8,1.2
				C33.5,115.9,33.8,116.5,34,117z"/>
			<path class="st6" d="M45.1,109.6v5.2c0,0.6,0,1.3,0,1.9s-0.1,1.3-0.1,1.9c0,0.6-0.1,1.2-0.2,1.6c-0.1,0.5-0.2,0.8-0.3,1
				c-0.3,0.4-0.5,0.8-0.8,1.1c-0.3,0.3-0.6,0.5-1,0.6s-0.7,0.3-1.1,0.3s-0.8,0.1-1.2,0.2c-1,0-1.8-0.1-2.5-0.2
				c-0.7-0.2-1.2-0.4-1.6-0.7c-0.4-0.3-0.7-0.8-0.9-1.3c-0.2-0.5-0.4-1.1-0.5-1.9c0-0.3-0.1-0.6-0.1-0.9c0-0.3,0-0.6,0-0.9v-0.6
				c0-0.2,0-0.4,0-0.5c0-0.7-0.1-1.5-0.1-2.2c0-0.8,0-1.6,0-2.5c0-0.7,0-1.4,0-2.2s0-1.6,0.1-2.5l3.8,0.2l0,9.2c0,0.5,0,0.9,0,1.4
				c0,0.4,0.1,0.8,0.2,1.1c0.1,0.3,0.2,0.6,0.4,0.8s0.4,0.3,0.7,0.3c0.2,0,0.5-0.1,0.6-0.3c0.2-0.2,0.3-0.5,0.4-0.8
				c0.1-0.3,0.2-0.7,0.2-1.1c0-0.4,0.1-0.8,0.1-1.2l0.1-9.4l4,0C45.1,108,45.1,108.8,45.1,109.6z"/>
			<path class="st6" d="M53.5,123.1c-0.5,0.3-1.1,0.4-1.7,0.4c-0.5,0-0.9,0-1.3,0c-0.4,0-0.9,0-1.4,0c-0.4,0-0.8,0-1.3,0
				c-0.5,0-1.1,0-1.7-0.1c0-2.2,0-4.2-0.1-6.1c0-1.9,0-3.8,0-5.5v-1.4c0-0.5,0-0.9,0-1.4l0-2.1c0.5,0,0.9,0,1.3-0.1s0.8,0,1.2,0h0.6
				c0.2,0,0.4,0,0.6,0c0.4,0,0.8,0.1,1.2,0.1c0.4,0,0.7,0.1,1.1,0.2c0.3,0.1,0.6,0.2,0.9,0.4c0.3,0.2,0.6,0.4,0.9,0.7
				c0.1,0.1,0.2,0.3,0.3,0.5s0.2,0.5,0.3,0.8c0.1,0.3,0.1,0.7,0.2,1.1c0,0.4,0.1,0.8,0.1,1.2c0,0.6-0.1,1.2-0.2,1.8
				c-0.2,0.6-0.4,1.1-0.8,1.5c0.6,0.5,0.9,1.1,1.1,1.8c0.2,0.7,0.3,1.4,0.3,2c0,0.4,0,0.8-0.1,1.1s-0.1,0.7-0.2,0.9
				c-0.1,0.3-0.1,0.6-0.2,0.9C54.4,122.5,54,122.8,53.5,123.1z M50.5,113.7c0.2,0,0.4-0.2,0.6-0.4c0.1-0.1,0.1-0.2,0.2-0.3
				s0.1-0.2,0.1-0.3c0-0.1,0-0.2,0-0.4v-1.2c0-0.2,0-0.4-0.1-0.6c-0.1-0.2-0.1-0.3-0.2-0.4s-0.3-0.2-0.5-0.2c-0.2,0-0.3,0-0.4,0
				c-0.1,0-0.2,0-0.4,0l0.1,3.7C50,113.7,50.2,113.7,50.5,113.7z M50.4,120.8c0.2,0,0.4-0.2,0.6-0.4c0.1-0.1,0.2-0.2,0.2-0.3
				s0.1-0.2,0.1-0.3c0-0.1,0-0.2,0-0.4v-1.1c0-0.2,0-0.3-0.1-0.5s-0.1-0.3-0.2-0.4c-0.1-0.1-0.3-0.2-0.4-0.2c-0.2,0-0.3,0-0.3-0.1
				c-0.1,0-0.1,0-0.2,0h-0.3v3.5C50,120.8,50.2,120.8,50.4,120.8z"/>
			<path class="st6" d="M66.6,113.7c0,0.6-0.1,1.2-0.1,1.7c0,0.5,0,1.1,0,1.6c0,0.5,0.1,1.1,0.1,1.7c0,0.2,0.1,0.4,0.2,0.6
				c0.1,0.1,0.3,0.3,0.4,0.3s0.4,0.1,0.6,0.2c0.2,0,0.4,0,0.6,0c0.3,0,0.7,0,1.1,0.1c0.4,0,0.8,0,1.3,0c0,0.4,0,0.8-0.1,1
				c0,0.3,0,0.6,0,0.8c0,0.3,0,0.5,0,0.8c0,0.3,0,0.7-0.1,1.1h-1c-0.4,0-0.7,0-1.1,0c-0.5,0-0.9,0-1.3-0.1c-0.4-0.1-0.8-0.1-1.3-0.2
				c-1-0.2-1.7-0.4-2.2-0.8c-0.5-0.4-0.8-0.8-1-1.5c-0.2-0.5-0.3-1.2-0.4-2.1c-0.1-0.9-0.1-1.8-0.1-2.8c0-1,0-2,0.1-3.1s0.2-2,0.4-3
				c0.1-0.5,0.2-0.8,0.4-1.1c0.2-0.3,0.4-0.6,0.6-0.8s0.5-0.4,0.8-0.5s0.7-0.3,1.2-0.4c0.2-0.1,0.4-0.1,0.6-0.1
				c0.2,0,0.5-0.1,0.7-0.1c0.3,0,0.6,0,0.9-0.1c0.3,0,0.7,0,1.2,0H70c0.3,0,0.7,0,1.1,0l-0.1,3.8c-0.7,0-1.2,0-1.7,0
				c-0.4,0-0.8,0-1.2,0c-0.3,0-0.6,0.1-0.8,0.2c-0.2,0.1-0.4,0.3-0.6,0.7C66.7,112.5,66.6,113.1,66.6,113.7z"/>
			<path class="st6" d="M77.2,124h-0.4c-0.9,0-1.7-0.1-2.3-0.3c-0.6-0.2-1.1-0.6-1.4-1s-0.6-1-0.8-1.6c-0.2-0.7-0.3-1.4-0.4-2.2
				c0-0.4-0.1-0.8-0.1-1.2s-0.1-0.8-0.1-1.3c0-0.4-0.1-0.8-0.1-1.2c0-0.4,0-0.7,0-1c0-0.5,0-1.1,0.1-1.6s0.1-1.2,0.1-1.8
				c0.1-0.7,0.2-1.4,0.5-1.9c0.3-0.5,0.7-0.9,1.4-1.2c0.4-0.2,0.9-0.3,1.5-0.4s1.3-0.2,2.1-0.2c0.6,0,1.2,0.1,1.8,0.2
				s1.1,0.3,1.5,0.6c0.6,0.4,1,0.9,1.3,1.4c0.3,0.6,0.5,1.1,0.5,1.7c0,0.5,0.1,1.2,0.1,2c0,0.8,0,1.7,0,2.6c0,0.2,0,0.4,0,0.6
				c0,0.2,0,0.4,0,0.6c0,0.6,0,1.1-0.1,1.7c0,0.5-0.1,1-0.1,1.5s-0.2,0.9-0.3,1.2c-0.1,0.4-0.3,0.7-0.5,0.9
				c-0.2,0.2-0.3,0.4-0.5,0.5c-0.2,0.2-0.3,0.3-0.5,0.5s-0.4,0.3-0.7,0.4s-0.6,0.3-1,0.4l-1.4,0.1C77.4,124,77.3,124,77.2,124z
				 M78.5,116.7c0-0.6,0-1.2,0-1.7s0-1.1,0-1.7c0-0.6-0.1-1.2-0.1-1.8c-0.1-0.5-0.2-0.8-0.5-0.9c-0.2-0.1-0.5-0.2-0.9-0.2
				c-0.3,0.1-0.6,0.2-0.8,0.4c-0.2,0.2-0.4,0.4-0.4,0.7c0,0.9,0,1.7,0,2.2c0,0.6,0,1.1,0,1.7c0,0.5,0.1,1.1,0.1,1.6
				c0,0.6,0.1,1.3,0.2,2.2c0,0.2,0.1,0.4,0.2,0.5c0.1,0.2,0.2,0.3,0.3,0.4c0.1,0.1,0.3,0.2,0.4,0.2c0.2,0,0.3,0,0.4,0
				c0.2,0,0.4-0.1,0.5-0.2c0.1-0.1,0.2-0.3,0.3-0.4c0.1-0.2,0.1-0.4,0.2-0.5c0-0.2,0.1-0.3,0.1-0.5
				C78.5,117.9,78.5,117.3,78.5,116.7z"/>
			<path class="st6" d="M93.4,112.9c0.1,0.8,0.2,1.6,0.2,2.3c0,0.7,0,1.4-0.1,2.1c-0.1,0.7-0.2,1.3-0.3,2c-0.1,0.7-0.5,1.3-1,1.9
				c-0.5,0.6-1.4,1.1-2.4,1.5c-0.9,0.3-1.8,0.6-2.9,0.6c-1.1,0.1-2.2,0.1-3.4,0.2c0-0.3,0-0.7,0-1.2s0-1,0-1.7c0-0.6,0-1.3,0-2v-2.2
				c0-0.9,0-1.9,0-2.9s0-1.9,0-2.7c0-0.9,0-1.6,0-2.3s0-1.3,0-1.7c1,0,2.1,0.1,3,0.2s1.9,0.3,2.8,0.6s1.6,0.6,2.2,1.1s1.1,1,1.5,1.7
				C93.1,111.2,93.3,112.1,93.4,112.9z M87.8,119.4c0.2,0,0.4-0.1,0.6-0.2c0.2-0.1,0.4-0.2,0.5-0.4s0.3-0.4,0.4-0.7
				c0.2-0.5,0.3-1,0.3-1.6c0.1-0.5,0.1-1.2,0.1-1.9c0-0.6,0-1.2-0.1-1.7c-0.1-0.5-0.3-1-0.8-1.3c-0.2-0.2-0.5-0.3-0.7-0.3
				s-0.5-0.1-0.9-0.1l-0.1,8.4C87.4,119.5,87.6,119.4,87.8,119.4z"/>
			<path class="st6" d="M101.4,122.2c-0.3-0.6-0.6-1.1-0.8-1.6c-0.2-0.5-0.4-0.9-0.6-1.4c-0.2-0.4-0.4-0.9-0.6-1.4h-1.1
				c0,1,0,1.9,0,2.7c0,0.3,0,0.7,0,1c0,0.3,0,0.6,0,0.9v1h-0.7c-0.2,0-0.3,0-0.5,0s-0.3,0-0.4,0h-0.4c-0.2,0-0.4,0-0.7,0
				c-0.3,0-0.6,0-1.1,0c0-2,0-4-0.1-5.9c0-1.9,0-3.8,0-5.7c0-1.6,0-3.3,0.1-5c0.3,0,0.7,0,1.1,0H97c0.4,0,0.9,0,1.4,0
				c0.5,0,1,0.1,1.6,0.2s1,0.2,1.4,0.4c0.4,0.2,0.8,0.4,1,0.6c0.6,0.7,1,1.4,1.1,2.2c0.2,0.7,0.3,1.5,0.3,2.4c0,0.6,0,1.1-0.1,1.7
				c0,0.6-0.2,1.2-0.4,1.7l-0.8,0.9l3.1,5.4l-3.1,1.8C102.1,123.5,101.7,122.8,101.4,122.2z M99.1,114.9c0.2,0,0.3-0.1,0.5-0.2
				c0.1-0.1,0.2-0.2,0.2-0.4c0.2-0.9,0.3-1.6,0.2-2.3c0-0.7-0.1-1.2-0.3-1.5c-0.1-0.2-0.2-0.3-0.4-0.3c-0.2-0.1-0.3-0.1-0.5-0.1
				s-0.3,0-0.5,0c-0.1,0-0.2,0-0.2,0c0,0,0,0.2,0,0.5s0,0.8,0,1.3c0,0.5,0,1,0.1,1.5c0,0.5,0,1,0.1,1.3C98.7,115,99,115,99.1,114.9z
				"/>
			<path class="st6" d="M116,109.6v5.2c0,0.6,0,1.3,0,1.9c0,0.7-0.1,1.3-0.1,1.9c0,0.6-0.1,1.2-0.2,1.6c-0.1,0.5-0.2,0.8-0.3,1
				c-0.3,0.4-0.5,0.8-0.8,1.1c-0.3,0.3-0.6,0.5-1,0.6s-0.7,0.3-1.1,0.3c-0.4,0.1-0.8,0.1-1.2,0.2c-1,0-1.8-0.1-2.5-0.2
				c-0.7-0.2-1.2-0.4-1.6-0.7c-0.4-0.3-0.7-0.8-0.9-1.3c-0.2-0.5-0.4-1.1-0.5-1.9c0-0.3-0.1-0.6-0.1-0.9c0-0.3,0-0.6,0-0.9v-0.6
				c0-0.2,0-0.4,0-0.5c0-0.7-0.1-1.5-0.1-2.2c0-0.8,0-1.6,0-2.5c0-0.7,0-1.4,0-2.2c0-0.8,0-1.6,0.1-2.5l3.8,0.2l0,9.2
				c0,0.5,0,0.9,0,1.4s0.1,0.8,0.2,1.1s0.2,0.6,0.4,0.8c0.2,0.2,0.4,0.3,0.7,0.3c0.2,0,0.5-0.1,0.6-0.3c0.2-0.2,0.3-0.5,0.4-0.8
				c0.1-0.3,0.2-0.7,0.2-1.1c0-0.4,0.1-0.8,0.1-1.2l0.1-9.4l4,0C116,108,116,108.8,116,109.6z"/>
		</g>
	</g>
	<g>
		<g>
			
				<rect x="45.9" y="28.7" transform="matrix(0.7071 0.7071 -0.7071 0.7071 62.6052 -35.9835)" class="st3" width="57.7" height="57.7"/>
			<path class="st0" d="M74.7,100.7L31.6,57.6l43.2-43.2l43.2,43.2L74.7,100.7z M36.3,57.6L74.7,96l38.5-38.5L74.7,19.1L36.3,57.6z"
				/>
		</g>
		<g>
			<g id="logo_00000080204880050449839850000005425397700306867885_">
				<path class="st0" d="M84.5,88.7L84.5,88.7l-0.8,0.8c-0.5-0.2-8-3.3-10.6-6.9c-0.9-1.3-1-2.7,0.7-4c2.3-1.6,4.2-3.6,5.3-5.8
					c6.6-1.6,9.4-6.2,10.3-12.5c-1.4-0.2-2-0.3-3.5-0.4c-0.8,3.3-2.9,5.1-5.9,6.3c-0.9-3.5-4-5.8-6.8-6.2c-2.5-2.3-1.9-5.5-1.5-6.5
					l-2-0.2c-1.4,2.1-1.9,4.6-1.5,6.9c-3.1,1.2-5.6,4.6-5.4,1.6c0.2-1.8,0.3-4.1-1.1-5.7l-0.7-0.8l-3.2,2.3c0.5,2,0.7,2.5,0.3,4.8
					c-0.4,2.1-1.1,4,0.1,5.5c4,4.7,11-5.1,14.8-1.7c0.8,0.7,1,1.8,0.8,2.9c-0.6,2.8-6.4,3.8-9.9,7.8c-5,5.7-1.7,10.9,1.5,13.3
					l8.4,8.3l8-7.6L84.5,88.7z"/>
				<path class="st0" d="M96.9,42.9c-0.5-5.3-6.6-8.4-12-8.4c-2.2-10.6-17.3-14.8-26.2-7.2c-3.6,3-5.4,7.5-4.3,12.1
					c-7.1,3.3-8.8,11.6-3.1,16.7c2.4,2.2,5.2,3.1,8.7,3.3c1.3-1.5,2.5-2.5,5-3.3c5.1-1.6,12.5-1.4,17.4,1.1c2.2,1.1,3.7,2.5,3.7,3.9
					l0,1c3.9,0.6,8,0.9,11.5-0.6c2.1-0.9,3.4-2.3,3.3-4.1c4.8-2.5,5.8-8.6,1.7-12.2C101.1,43.8,99.1,42.9,96.9,42.9"/>
				<path class="st4" d="M100.8,46.7c2,1.7,2.7,4.5,1,6.8c-1,1.4-2.2,1.8-3.7,2.4c0.4,1.3,1.1,2.2-1.4,3.3c-2.3,1-5.5,1-8.4,0.7
					c-2-7.9-22.6-10.2-29.5-3c-5.1-0.6-8.6-4.2-8.7-8.2c-0.1-7.7,8.4-9.5,14.5-8c0,0-2.9-2.8-7.9-2.1c-1.9-11.5,13.2-16.6,21.8-10
					c2.3,1.8,3.9,4.3,4.2,7.1l0.1,1.1c3.4-0.2,6.2,0.1,9,2c1.5,1,2.6,2.7,2.8,4.2c-1.5,0.4-3.3,1.2-4.7,3.3
					C93.1,44.8,98,44.4,100.8,46.7"/>
				<path class="st5" d="M102.4,48.9c0.6,1.5,0.5,3.2-0.6,4.6c-1,1.4-2.2,1.8-3.7,2.4C98,56,101.6,54.4,102.4,48.9"/>
				<path class="st2" d="M75.6,52.8c-6.3-0.7-13.3,0.5-16.8,4.1c-2.4-0.3-4.4-1.2-5.9-2.5C52.9,54.4,62.8,48.6,75.6,52.8L75.6,52.8z
					"/>
				<path class="st2" d="M64.1,40.4c-1-0.7-3.6-2.2-7.4-1.6c-1.2-7.4,4.6-12.2,11.3-12.8C57.5,28.2,62.9,38.4,64.1,40.4"/>
				<path class="st2" d="M85.8,36.9c2.1,0.1,4.1,0.7,5.9,2c1.5,1,2.6,2.7,2.8,4.2c-1.5,0.4-3.3,1.2-4.7,3.3
					C89.7,46.4,92.5,38.4,85.8,36.9"/>
				<path class="st1" d="M81.5,90.1l-6.8,6.5c-2.3-2.3-12.8-10.8-10.5-15c3.3-6,11.1-7,12.1-11.9c0.9-4.4-2.7-7-7.1-5.7
					c-3.3,1-8.2,4.8-9.4,3.2c-1.3-1.7,1.3-5.4,0.7-8.5c1.5,2.6-0.6,5.9,1.2,6.5c2.1,0.8,4.1-2.9,8.9-3.3c-1.1-1.4-1.4-3.3-0.5-6
					c-0.3,2.3,1.1,4.6,2.4,5.9c3.7-0.1,7.1,3.2,6.5,7c3.5-0.4,5.9-2.6,8.1-5.7c-1.4,5.4-5.1,7.8-8.8,7.8c-1.1,2.6-3.5,4.5-6,6.3
					c-6.6,4.7,1.2,9.4,5.5,11.9"/>
			</g>
		</g>
	</g>
</g>
</svg>
