<?xml version="1.0" encoding="utf-8"?>
<!-- Generator: Adobe Illustrator 26.3.1, SVG Export Plug-In . SVG Version: 6.00 Build 0)  -->
<svg version="1.1" id="Layer_1" xmlns="http://www.w3.org/2000/svg" xmlns:xlink="http://www.w3.org/1999/xlink" x="0px" y="0px"
	 viewBox="0 0 141.7 141.7" style="enable-background:new 0 0 141.7 141.7;" xml:space="preserve">
<style type="text/css">
	.st0{fill:#233D4D;}
	.st1{fill:#F57E2E;}
	.st2{fill:#579C87;}
	.st3{fill:#FCCA46;}
	.st4{fill:#A1C181;}
	.st5{fill:#8C9AA9;}
	.st6{fill:#ffffff;}
</style>
<g>
	<g>
		<g>
			<path class="st6" d="M34.6,119.1c0.2,0.6,0.3,1.1,0.3,1.6c0,0.6-0.1,1.2-0.4,1.8c-0.3,0.6-0.7,1.2-1.3,1.9
				c-0.4,0.3-0.7,0.5-1.1,0.6c-0.4,0.2-0.8,0.3-1.2,0.3s-1,0.1-1.5,0.1c-0.6,0-1.3,0-2.1,0h-1.1l0-3.4c0.2,0,0.4,0,0.6,0
				s0.5,0,0.7,0c0.3,0,0.5,0,0.8,0s0.5,0,0.8-0.1c0.3-0.1,0.5-0.1,0.7-0.3c0.2-0.1,0.4-0.3,0.5-0.6c0.1-0.2,0.1-0.5,0.1-0.7
				c0-0.3-0.1-0.6-0.2-0.9s-0.3-0.5-0.5-0.8c-0.2-0.2-0.4-0.5-0.6-0.7c-0.2-0.2-0.4-0.5-0.7-0.7c-0.4-0.5-0.8-0.9-1.1-1.4
				s-0.4-0.9-0.5-1.5c0-0.2,0-0.3,0-0.5s0-0.3,0-0.5c0-0.3,0-0.7,0.1-1c0.1-0.4,0.2-0.7,0.3-1s0.4-0.7,0.6-1
				c0.3-0.3,0.6-0.6,1.1-0.9c0.2-0.1,0.5-0.3,0.8-0.4c0.3-0.1,0.7-0.2,1.1-0.3c0.4-0.1,0.9-0.2,1.4-0.2c0.5-0.1,1.2-0.1,1.9-0.2
				l0.6,3.5c-0.4,0-0.7,0.1-1,0.1c-0.3,0.1-0.5,0.1-0.7,0.1c-0.2,0-0.4,0.1-0.7,0.2c-0.2,0.1-0.4,0.2-0.5,0.4
				c-0.1,0.1-0.2,0.3-0.2,0.5s-0.1,0.4-0.1,0.7c0,0.2,0,0.3,0.1,0.5c0,0.2,0.1,0.3,0.2,0.5c0.3,0.4,0.6,0.8,0.9,1.2
				c0.3,0.4,0.5,0.8,0.8,1.2C34.1,117.9,34.4,118.5,34.6,119.1z"/>
			<path class="st6" d="M45.7,111.6v5.2c0,0.6,0,1.3,0,1.9s-0.1,1.3-0.1,1.9c0,0.6-0.1,1.2-0.2,1.6c-0.1,0.5-0.2,0.8-0.3,1
				c-0.3,0.4-0.5,0.8-0.8,1.1c-0.3,0.3-0.6,0.5-1,0.6s-0.7,0.3-1.1,0.3s-0.8,0.1-1.2,0.2c-1,0-1.8-0.1-2.5-0.2
				c-0.7-0.2-1.2-0.4-1.6-0.7c-0.4-0.3-0.7-0.8-0.9-1.3c-0.2-0.5-0.4-1.1-0.5-1.9c0-0.3-0.1-0.6-0.1-0.9c0-0.3,0-0.6,0-0.9v-0.6
				c0-0.2,0-0.4,0-0.5c0-0.7-0.1-1.5-0.1-2.2c0-0.8,0-1.6,0-2.5c0-0.7,0-1.4,0-2.2c0-0.8,0-1.6,0.1-2.5l3.8,0.2l0,9.2
				c0,0.5,0,0.9,0,1.4c0,0.4,0.1,0.8,0.2,1.1c0.1,0.3,0.2,0.6,0.4,0.8s0.4,0.3,0.7,0.3c0.2,0,0.5-0.1,0.6-0.3
				c0.2-0.2,0.3-0.5,0.4-0.8c0.1-0.3,0.2-0.7,0.2-1.1c0-0.4,0.1-0.8,0.1-1.2l0.1-9.4l4,0C45.7,110,45.7,110.8,45.7,111.6z"/>
			<path class="st6" d="M54,125.1c-0.5,0.3-1.1,0.4-1.7,0.4c-0.5,0-0.9,0-1.3,0c-0.4,0-0.9,0-1.4,0c-0.4,0-0.8,0-1.3,0
				c-0.5,0-1.1,0-1.7-0.1c0-2.2,0-4.2-0.1-6.1c0-1.9,0-3.8,0-5.5v-1.4c0-0.5,0-0.9,0-1.4l0-2.1c0.5,0,0.9,0,1.3-0.1s0.8,0,1.2,0h0.6
				c0.2,0,0.4,0,0.6,0c0.4,0,0.8,0.1,1.2,0.1c0.4,0,0.7,0.1,1.1,0.2c0.3,0.1,0.6,0.2,0.9,0.4s0.6,0.4,0.9,0.7
				c0.1,0.1,0.2,0.3,0.3,0.5s0.2,0.5,0.3,0.8c0.1,0.3,0.1,0.7,0.2,1.1c0,0.4,0.1,0.8,0.1,1.2c0,0.6-0.1,1.2-0.2,1.8
				c-0.2,0.6-0.4,1.1-0.8,1.5c0.6,0.5,0.9,1.1,1.1,1.8c0.2,0.7,0.3,1.4,0.3,2c0,0.4,0,0.8-0.1,1.1s-0.1,0.7-0.2,0.9
				c-0.1,0.3-0.1,0.6-0.2,0.9C55,124.5,54.6,124.9,54,125.1z M51.1,115.7c0.2,0,0.4-0.2,0.6-0.4c0.1-0.1,0.1-0.2,0.2-0.3
				s0.1-0.2,0.1-0.3c0-0.1,0-0.2,0-0.4v-1.2c0-0.2,0-0.4-0.1-0.6c-0.1-0.2-0.1-0.3-0.2-0.4s-0.3-0.2-0.5-0.2c-0.2,0-0.3,0-0.4,0
				c-0.1,0-0.2,0-0.4,0l0.1,3.7C50.6,115.7,50.8,115.7,51.1,115.7z M51,122.8c0.2,0,0.4-0.2,0.6-0.4c0.1-0.1,0.2-0.2,0.2-0.3
				s0.1-0.2,0.1-0.3c0-0.1,0-0.2,0-0.4v-1.1c0-0.2,0-0.3-0.1-0.5s-0.1-0.3-0.2-0.4c-0.1-0.1-0.3-0.2-0.4-0.2c-0.2,0-0.3,0-0.3-0.1
				c-0.1,0-0.1,0-0.2,0h-0.3v3.5C50.6,122.8,50.8,122.8,51,122.8z"/>
			<path class="st6" d="M70.8,119.1c0.2,0.6,0.3,1.1,0.3,1.6c0,0.6-0.1,1.2-0.4,1.8c-0.3,0.6-0.7,1.2-1.3,1.9
				c-0.4,0.3-0.7,0.5-1.1,0.6c-0.4,0.2-0.8,0.3-1.2,0.3s-1,0.1-1.5,0.1c-0.6,0-1.3,0-2.1,0h-1.1l0-3.4c0.2,0,0.4,0,0.6,0
				s0.5,0,0.7,0c0.3,0,0.5,0,0.8,0s0.5,0,0.8-0.1c0.3-0.1,0.5-0.1,0.7-0.3c0.2-0.1,0.4-0.3,0.5-0.6c0.1-0.2,0.1-0.5,0.1-0.7
				c0-0.3-0.1-0.6-0.2-0.9s-0.3-0.5-0.5-0.8c-0.2-0.2-0.4-0.5-0.6-0.7c-0.2-0.2-0.4-0.5-0.7-0.7c-0.4-0.5-0.8-0.9-1.1-1.4
				s-0.4-0.9-0.5-1.5c0-0.2,0-0.3,0-0.5s0-0.3,0-0.5c0-0.3,0-0.7,0.1-1c0.1-0.4,0.2-0.7,0.3-1s0.4-0.7,0.6-1
				c0.3-0.3,0.6-0.6,1.1-0.9c0.2-0.1,0.5-0.3,0.8-0.4c0.3-0.1,0.7-0.2,1.1-0.3c0.4-0.1,0.9-0.2,1.4-0.2c0.5-0.1,1.2-0.1,1.9-0.2
				l0.6,3.5c-0.4,0-0.7,0.1-1,0.1c-0.3,0.1-0.5,0.1-0.7,0.1c-0.2,0-0.4,0.1-0.7,0.2c-0.2,0.1-0.4,0.2-0.5,0.4
				c-0.1,0.1-0.2,0.3-0.2,0.5c-0.1,0.2-0.1,0.4-0.1,0.7c0,0.2,0,0.3,0.1,0.5c0,0.2,0.1,0.3,0.2,0.5c0.3,0.4,0.6,0.8,0.9,1.2
				c0.3,0.4,0.5,0.8,0.8,1.2C70.4,117.9,70.6,118.5,70.8,119.1z"/>
			<path class="st6" d="M77,126h-0.4c-0.9,0-1.7-0.1-2.3-0.3c-0.6-0.2-1.1-0.6-1.4-1s-0.6-1-0.8-1.6c-0.2-0.7-0.3-1.4-0.4-2.2
				c0-0.4-0.1-0.8-0.1-1.2s-0.1-0.8-0.1-1.3c0-0.4-0.1-0.8-0.1-1.2c0-0.4,0-0.7,0-1c0-0.5,0-1.1,0.1-1.6s0.1-1.2,0.1-1.8
				c0.1-0.7,0.2-1.4,0.5-1.9c0.3-0.5,0.7-0.9,1.4-1.2c0.4-0.2,0.9-0.3,1.5-0.4s1.3-0.2,2.1-0.2c0.6,0,1.2,0.1,1.8,0.2
				c0.6,0.1,1.1,0.3,1.5,0.6c0.6,0.4,1,0.9,1.3,1.4c0.3,0.6,0.5,1.1,0.5,1.7c0,0.5,0.1,1.2,0.1,2c0,0.8,0,1.7,0,2.6
				c0,0.2,0,0.4,0,0.6c0,0.2,0,0.4,0,0.6c0,0.6,0,1.1-0.1,1.7c0,0.5-0.1,1-0.1,1.5s-0.2,0.9-0.3,1.2c-0.1,0.4-0.3,0.7-0.5,0.9
				c-0.2,0.2-0.3,0.4-0.5,0.5c-0.2,0.2-0.3,0.3-0.5,0.5s-0.4,0.3-0.7,0.4c-0.3,0.1-0.6,0.3-1,0.4l-1.4,0.1C77.2,126,77.1,126,77,126
				z M78.3,118.7c0-0.6,0-1.2,0-1.7s0-1.1,0-1.7s-0.1-1.2-0.1-1.8c-0.1-0.5-0.2-0.8-0.5-0.9s-0.5-0.2-0.9-0.2
				c-0.3,0.1-0.6,0.2-0.8,0.4c-0.2,0.2-0.4,0.4-0.4,0.7c0,0.9,0,1.7,0,2.2c0,0.6,0,1.1,0,1.7c0,0.5,0.1,1.1,0.1,1.6s0.1,1.3,0.2,2.2
				c0,0.2,0.1,0.4,0.2,0.5c0.1,0.2,0.2,0.3,0.3,0.4c0.1,0.1,0.3,0.2,0.4,0.2c0.2,0,0.3,0,0.4,0c0.2,0,0.4-0.1,0.5-0.2
				c0.1-0.1,0.2-0.3,0.3-0.4c0.1-0.2,0.1-0.4,0.2-0.5s0.1-0.3,0.1-0.5C78.3,120,78.3,119.3,78.3,118.7z"/>
			<path class="st6" d="M88.5,109c0.2,0,0.5,0,0.8,0h0.5c0.2,0,0.4,0,0.6,0c0.4,1.2,0.8,2.5,1.2,3.7c0.3,1.3,0.7,2.6,1,3.9
				s0.7,2.8,1,4.2c0.3,1.5,0.7,3,1.1,4.6l-4.2,0c-0.1-0.3-0.1-0.6-0.2-0.8c0-0.2-0.1-0.4-0.1-0.5s-0.1-0.3-0.1-0.5s-0.1-0.4-0.2-0.7
				c-0.2,0-0.4,0-0.7,0s-0.5,0-0.8,0c-0.3,0-0.5,0-0.8,0c-0.3,0-0.5,0-0.7,0l-0.6,2.5h-2c-0.3,0-0.6,0-0.9,0s-0.8,0-1.2,0l3.8-15.6
				l0.2-0.9c0.2,0,0.5,0,0.8,0H88C88.2,109,88.3,109,88.5,109z M87.6,119.7c0.1,0,0.3,0,0.5,0h0.7c0.2,0,0.4,0,0.6,0l-0.1-1
				c0-0.3-0.1-0.6-0.1-0.9c0-0.3-0.1-0.6-0.1-0.8c-0.1-0.3-0.1-0.7-0.2-1.1s-0.1-0.8-0.2-1.1l-0.2-1.2c-0.1,0.3-0.1,0.7-0.2,1.1
				s-0.1,0.8-0.2,1.3c-0.1,0.4-0.1,0.9-0.2,1.3c-0.1,0.4-0.1,0.8-0.2,1.2c-0.1,0.3-0.1,0.6-0.1,0.8l0,0.3
				C87.4,119.7,87.5,119.7,87.6,119.7z"/>
			<path class="st6" d="M101.8,124.3c-0.3-0.6-0.6-1.1-0.8-1.6c-0.2-0.5-0.4-0.9-0.6-1.4c-0.2-0.4-0.4-0.9-0.6-1.4h-1.1
				c0,1,0,1.9,0,2.7c0,0.3,0,0.7,0,1c0,0.3,0,0.6,0,0.9v1h-0.7c-0.2,0-0.3,0-0.5,0s-0.3,0-0.4,0h-0.4c-0.2,0-0.4,0-0.7,0
				c-0.3,0-0.6,0-1.1,0c0-2,0-4-0.1-5.9c0-1.9,0-3.8,0-5.7c0-1.6,0-3.3,0.1-5c0.3,0,0.7,0,1.1,0h1.4c0.4,0,0.9,0,1.4,0
				s1,0.1,1.6,0.2c0.5,0.1,1,0.2,1.4,0.4c0.4,0.2,0.8,0.4,1,0.6c0.6,0.7,1,1.4,1.1,2.2c0.2,0.7,0.3,1.5,0.3,2.4c0,0.6,0,1.1-0.1,1.7
				c0,0.6-0.2,1.2-0.4,1.7L103,119l3.1,5.4l-3.1,1.8C102.5,125.5,102.1,124.8,101.8,124.3z M99.6,117c0.2,0,0.3-0.1,0.5-0.2
				c0.1-0.1,0.2-0.2,0.2-0.4c0.2-0.9,0.3-1.6,0.2-2.3c0-0.7-0.1-1.2-0.3-1.5c-0.1-0.2-0.2-0.3-0.4-0.3s-0.3-0.1-0.5-0.1
				c-0.2,0-0.3,0-0.5,0c-0.1,0-0.2,0-0.2,0c0,0,0,0.2,0,0.5s0,0.8,0,1.3c0,0.5,0,1,0.1,1.5c0,0.5,0,1,0.1,1.3
				C99.1,117,99.4,117,99.6,117z"/>
			<path class="st6" d="M112.2,115.5c0.8,0,1.5,0,2.2,0.1c0,0.3,0,0.7,0,0.9c0,0.3,0,0.5,0,0.8c0,0.3,0,0.5-0.1,0.8s-0.1,0.6-0.2,1
				l-4.2,0c0,0.4,0,0.9,0.1,1.3c0,0.4,0,0.9,0.1,1.3c0.5,0,0.9,0,1.4-0.1s1,0,1.5,0c0.5,0,0.9,0,1.4,0c0.4,0,0.8,0,1.2,0.1
				c0,0.4-0.1,0.7-0.1,1c0,0.3,0,0.6-0.1,0.8c0,0.3,0,0.5-0.1,0.8c0,0.3-0.1,0.6-0.1,1c-0.8,0.1-1.5,0.1-2.2,0.1
				c-0.7,0-1.4,0-2.1,0.1c-0.7,0-1.4,0-2.2,0c-0.7,0-1.6,0-2.4,0.1c0-1-0.1-1.9-0.1-2.8c0-0.9,0-1.9,0-2.8c0-1.8,0-3.5,0-5.3
				s0-3.5,0.1-5.3c0.8,0,1.6-0.1,2.4-0.1c0.7,0,1.4-0.1,2.1-0.1c0.7,0,1.4-0.1,2.2-0.1c0.7,0,1.6,0,2.5-0.1c0,0.3,0,0.6,0,0.9
				c0,0.3,0,0.5,0,0.8c0,0.3,0,0.6,0,0.9c0,0.3,0,0.7,0.1,1.1l-5.3,0.1l-0.1,2.6C110.8,115.5,111.5,115.5,112.2,115.5z"/>
		</g>
	</g>
	<g>
		<g>
			<g>
				<path class="st1" d="M46.7,94.9V49.6c0-13.4,10.8-24.2,24.2-24.2s24.2,10.8,24.2,24.2V96H46.7V94.9z"/>
				<path class="st0" d="M96.4,97.3h-51V49.6c0-14.1,11.4-25.5,25.5-25.5s25.5,11.4,25.5,25.5V97.3z M48,94.8h45.9V49.6
					c0-12.7-10.3-22.9-22.9-22.9S48,36.9,48,49.6V94.8z"/>
			</g>
			<g>
				<polygon class="st2" points="57.3,69.8 46.9,85.4 46.7,96 95.1,96.1 95.1,85.4 83.5,69.8 				"/>
				<path class="st0" d="M95.1,97.3C95.1,97.3,95.1,97.3,95.1,97.3l-48.4,0c-0.3,0-0.7-0.1-0.9-0.4s-0.4-0.6-0.4-0.9l0.2-10.7
					c0-0.2,0.1-0.5,0.2-0.7l10.4-15.6c0.2-0.4,0.6-0.6,1.1-0.6h26.2c0.4,0,0.8,0.2,1,0.5l11.6,15.7c0.2,0.2,0.2,0.5,0.2,0.8v10.6
					c0,0.3-0.1,0.7-0.4,0.9S95.5,97.3,95.1,97.3z M48,94.8l45.9,0v-9L82.9,71H58l-9.8,14.7L48,94.8z"/>
			</g>
		</g>
		<g>
			<path class="st0" d="M76.2,40l12.1-14c1.1-1.3,3.5,0.1,2.9,1.7l-6.1,17.6c2.8-0.6,3.3,0.7,6-2.2c2-2.1,3.3-2.8,6.3-2.6
				c5.6,0.3,7.8-3.4,12.2-3.6c-4.4,3.2-5.1,6.5-11.3,10.4c-1.4,0.9-3.2,4.1-5,5.4c-1.2,0.9-1.6,0.8-2.8,1.7l18.1,3.5
				c1.7,0.3,1.7,3.1,0,3.4l-18.3,3.5c1.6,1.7,1.3,2.7,3.2,3.5c-1.4,2.6-3.1,5.1-4.9,7.4c-0.2-0.1-0.4-0.1-0.6-0.2
				c-1.4-0.6-1.5-0.9-2.9-1.6l1.4,4.2c-2,2.2-4.1,4.2-6.4,5.6l-4.1-4.7c-0.9,2.7-2.2,2.5-1.1,6.3c0.1,0.3,0.1,0.5,0.2,0.7
				c-1.4,0.4-2.9,0.7-4.3,0.7c-1.4,0-2.7-0.2-4-0.6c-0.5-1.3-1.1-2.7-1.2-3.8c-0.2-1.5,0.1-1.8-0.1-3.3l-4,4.6
				c-2.3-1.5-4.4-3.4-6.4-5.6l1.5-4.3c-2.1,0.5-2.9-0.2-4.3,0.8c-1.7-2.3-3.3-4.8-4.6-7.4c0.3-0.3,0.6-0.5,0.9-0.8
				c1.2-0.9,1.6-0.8,2.8-1.7l-18.2-3.5c-1.7-0.3-1.7-3.1,0-3.4l18.3-3.5c-1.9-2.1-1-3.1-4.9-4.1c-2.8-0.7-4-1.4-5.4-4.1
				c-2.5-5-6.8-5-9.3-8.7c4.9,2.2,8.2,1.2,14.7,4.6c1.5,0.8,5.1,0.7,7.2,1.6c1.4,0.6,1.5,0.9,2.8,1.6l-6.1-17.5
				c-0.6-1.6,1.8-3,2.9-1.7l12.2,14.1c0.8-2.7,2.2-2.5,1.1-6.3c-0.8-2.8-0.8-4.2,0.9-6.7c3.1-4.7,0.9-8.4,2.9-12.4
				c0.5,5.4,3.1,7.7,3.4,15c0.1,1.6,1.9,4.8,2.2,7C76.3,38.3,76.1,38.6,76.2,40L76.2,40z"/>
			<path class="st3" d="M65.1,45.6c-8.4,3.5-12,13.6-7.3,21.6l0,0c4.2,7.2,13.5,9.7,20.7,5.5l0,0c3.6-2.1,6.1-5.5,7.1-9.2
				C88.6,52.2,78.2,42,67,45C66.4,45.1,65.8,45.3,65.1,45.6L65.1,45.6z"/>
			<path class="st1" d="M58.7,50.7c-3.3,4.6-4,11-0.9,16.5l0,0c4.2,7.2,13.5,9.7,20.7,5.5l0,0c3-1.7,5.2-4.3,6.4-7.3
				c-1.2,1.7-2.8,3.1-4.7,4.2l0,0c-7.2,4.2-16.5,1.7-20.7-5.5l0,0C57,59.8,56.9,54.9,58.7,50.7L58.7,50.7z"/>
			<path class="st3" d="M77.7,42.8c1.5,0.6,3,1.5,4.3,2.5l4.3-12.5L77.7,42.8z"/>
			<path class="st1" d="M77.7,42.8c0.8,0.3,1.5,0.7,2.2,1.1l6.4-11.1L77.7,42.8z"/>
			<path class="st3" d="M68.4,41.7c1.7-0.2,3.4-0.2,5.1,0c-0.2-1-0.2-1.8-0.2-3.5c0.1-1.5-0.3-2.1-0.8-3.6c-2-5.1-1.2-4-1.3-7.6
				c-1,2.7-2.5,2.4-1.4,6c0.7,2.4,0.8,3.6,0.4,4.8C69.5,39.3,68.7,40.2,68.4,41.7z"/>
			<path class="st1" d="M68.4,41.7c0.9-0.1,1.8-0.2,2.7-0.2c0.3-2.4,1.6-4.3,0.1-7.5c-1.6-3.7-0.6-4.1-0.1-7c-1,2.7-2.5,2.4-1.4,6
				c0.7,2.4,0.8,3.6,0.4,4.8C69.5,39.3,68.7,40.2,68.4,41.7L68.4,41.7z"/>
			<path class="st3" d="M88.8,57.1c0.2,1.6,0.2,3.3,0,5l12.9-2.5L88.8,57.1L88.8,57.1z"/>
			<path class="st1" d="M88.8,57.1c0.1,0.8,0.2,1.7,0.2,2.5l12.8,0L88.8,57.1z"/>
			<path class="st3" d="M85.2,48.4c1,1.3,1.9,2.8,2.5,4.4c0.8-0.7,1.5-1.1,2.9-1.9c1.3-0.7,1.7-1.3,2.7-2.5c3.4-4.3,2.9-3.1,5.9-5
				c-2.8,0.5-3.3-1-5.9,1.8c-1.7,1.8-2.7,2.5-4,2.8C87.8,48.2,86.6,48,85.2,48.4L85.2,48.4z"/>
			<path class="st1" d="M85.2,48.4c0.6,0.7,1,1.4,1.5,2.2c2.2-1,4.5-0.8,6.6-3.7c2.3-3.3,3.2-2.5,6-3.6c-2.8,0.5-3.3-1-5.9,1.8
				c-1.7,1.8-2.7,2.5-4,2.8C87.8,48.2,86.6,48,85.2,48.4L85.2,48.4z"/>
			<path class="st3" d="M82,73.9c-1.3,1-2.8,1.9-4.3,2.5l4.9,5.6c0.6-0.5,1.2-1,1.7-1.5L82,73.9z"/>
			<path class="st1" d="M82,73.9c-0.7,0.5-1.3,1-2.1,1.4l3.5,6c0.3-0.3,0.6-0.5,0.9-0.8L82,73.9L82,73.9z"/>
			<path class="st3" d="M87.7,66.4c-0.6,1.6-1.5,3.1-2.5,4.4c1,0.4,1.7,0.7,3.1,1.6c0.9,0.5,1.5,0.7,2.3,0.9c0.5-0.7,1-1.5,1.5-2.2
				c-0.8-0.3-1.3-0.7-1.8-1.3C89.2,68.5,88.8,67.4,87.7,66.4L87.7,66.4z"/>
			<path class="st1" d="M87.7,66.4c-0.3,0.8-0.7,1.6-1.2,2.4c1.6,1.2,2.5,2.7,4.6,3.5c0.3-0.4,0.5-0.8,0.8-1.3
				c-0.8-0.3-1.3-0.7-1.8-1.3C89.2,68.5,88.8,67.4,87.7,66.4L87.7,66.4z"/>
			<path class="st3" d="M64.1,76.4c-1.5-0.6-3-1.5-4.3-2.5l-2.3,6.6c0.6,0.5,1.1,1,1.7,1.5L64.1,76.4z"/>
			<path class="st1" d="M64.1,76.4c-0.8-0.3-1.5-0.7-2.2-1.1l-3.5,6c0.3,0.2,0.6,0.5,0.8,0.7L64.1,76.4L64.1,76.4z"/>
			<path class="st3" d="M73.5,77.5c-1.7,0.2-3.4,0.2-5.1,0c0.2,1,0.2,1.8,0.2,3.5c-0.1,1.5,0.3,2.1,0.8,3.6c0.4,0.9,0.6,1.6,0.8,2.2
				c0.2,0,0.4,0,0.7,0c0.5,0,1,0,1.4-0.1c0-0.2-0.1-0.3-0.1-0.5c-0.7-2.4-0.8-3.6-0.4-4.8C72.3,79.9,73.1,79,73.5,77.5L73.5,77.5z"
				/>
			<path class="st1" d="M73.5,77.5c-0.9,0.1-1.8,0.2-2.7,0.2c-0.3,2.4-1.6,4.3-0.1,7.5c0.3,0.6,0.5,1.1,0.6,1.6c0.4,0,0.7,0,1.1-0.1
				c0-0.2-0.1-0.3-0.1-0.5c-0.7-2.4-0.8-3.6-0.4-4.8C72.3,79.9,73.1,79,73.5,77.5L73.5,77.5z"/>
			<path class="st3" d="M53,62.1c-0.2-1.6-0.2-3.3,0-5L40,59.6L53,62.1z"/>
			<path class="st1" d="M53,62.1c-0.1-0.8-0.2-1.7-0.2-2.5l-12.8,0L53,62.1z"/>
			<path class="st3" d="M56.7,70.8c-1-1.3-1.9-2.8-2.5-4.4c-0.8,0.7-1.5,1.1-2.9,1.9c-1,0.5-1.4,1-2,1.7c0.4,0.7,0.9,1.5,1.4,2.2
				c0.7-0.5,1.2-0.7,1.9-0.8C54,71,55.2,71.2,56.7,70.8z"/>
			<path class="st1" d="M56.7,70.8c-0.6-0.7-1-1.4-1.5-2.2c-1.8,0.8-3.6,0.8-5.4,2.3c0.3,0.4,0.5,0.8,0.8,1.3
				c0.7-0.5,1.2-0.7,1.9-0.8C54,71,55.2,71.2,56.7,70.8z"/>
			<path class="st3" d="M59.8,45.3c1.3-1,2.8-1.9,4.3-2.5l-8.6-10L59.8,45.3L59.8,45.3z"/>
			<path class="st1" d="M59.8,45.3c0.7-0.5,1.3-1,2.1-1.4l-6.4-11.1L59.8,45.3z"/>
			<path class="st3" d="M54.1,52.8c0.6-1.6,1.5-3.1,2.5-4.4c-1-0.4-1.7-0.7-3.1-1.6c-1.3-0.8-1.9-0.8-3.5-1.1
				c-5.5-0.8-4.1-1-7.3-2.6c1.9,2.2,0.8,3.4,4.5,4.2c2.5,0.6,3.5,1.1,4.4,2.1C52.6,50.7,53,51.8,54.1,52.8L54.1,52.8z"/>
			<path class="st1" d="M54.1,52.8c0.3-0.8,0.7-1.6,1.2-2.4c-2-1.5-2.9-3.5-6.5-3.9c-4-0.4-3.8-1.5-6.1-3.4c1.9,2.2,0.8,3.4,4.5,4.2
				c2.5,0.6,3.5,1.1,4.4,2.1C52.6,50.7,53,51.8,54.1,52.8L54.1,52.8z"/>
		</g>
		<path class="st0" d="M71.3,88C57.5,88,46.4,68.8,46,68l2.2-1.3c0.1,0.2,10.9,18.8,23.1,18.8V88z"/>
		<path class="st0" d="M70.9,88v-2.5c12.3,0,23-18.6,23.1-18.8l2.2,1.3C95.8,68.8,84.7,88,70.9,88z"/>
	</g>
</g>
</svg>
