<?xml version="1.0" encoding="utf-8"?>
<!-- Generator: Adobe Illustrator 26.5.0, SVG Export Plug-In . SVG Version: 6.00 Build 0)  -->
<svg version="1.1" id="Layer_1" xmlns="http://www.w3.org/2000/svg" xmlns:xlink="http://www.w3.org/1999/xlink" x="0px" y="0px"
	 viewBox="0 0 141.7 141.7" style="enable-background:new 0 0 141.7 141.7;" xml:space="preserve">
<style type="text/css">
	.st0{fill:#FFFFFF;}
	.st1{fill:#F57E2E;}
	.st2{fill:#233D4D;}
	.st3{fill:#579C87;}
	.st4{fill:#FCCA46;}
	.st5{fill:#579B86;}
	.st6{fill:#FCC945;}
</style>
<g>
	<g>
		<circle class="st1" cx="70.8" cy="58.6" r="32.4"/>
		<path class="st2" d="M70.8,92.1c-18.4,0-33.4-15-33.4-33.4s15-33.4,33.4-33.4s33.4,15,33.4,33.4S89.3,92.1,70.8,92.1z M70.8,27.2
			c-17.3,0-31.4,14.1-31.4,31.4s14.1,31.4,31.4,31.4s31.4-14.1,31.4-31.4S88.2,27.2,70.8,27.2z"/>
	</g>
	<g>
		<path class="st0" d="M32.6,109.3c0.1,0.4,0.2,0.8,0.3,1.4s0.2,1.2,0.3,1.9c0.1,0.7,0.3,1.4,0.4,2.1c0,0.2,0.1,0.5,0.2,0.9
			c0.1,0.4,0.1,0.8,0.2,1.2c0.1,0.4,0.1,0.8,0.2,1.2c0.1,0.4,0.1,0.7,0.2,0.9c0-0.3,0.1-0.7,0.2-1.2c0.1-0.5,0.2-1,0.3-1.5
			s0.2-1,0.3-1.4c0.1-0.4,0.2-0.7,0.2-0.9c0.2-0.7,0.3-1.3,0.5-1.9c0.1-0.6,0.3-1.1,0.4-1.6c0.1-0.5,0.3-1,0.4-1.5s0.3-0.9,0.4-1.4
			l4.1,1.1c-0.2,0.8-0.5,1.7-0.7,2.6s-0.5,1.9-0.8,2.9c-0.3,1-0.6,2-0.9,3c-0.3,1-0.6,2-0.9,3s-0.6,1.9-0.8,2.8
			c-0.3,0.9-0.5,1.7-0.7,2.5c-0.3,0-0.5,0-0.7,0h-0.5c-0.2,0-0.4,0-0.6,0s-0.3,0-0.5,0c-0.2,0-0.4,0-0.6,0c-0.2,0-0.5,0-0.8,0
			c-0.1-0.4-0.3-1.1-0.5-1.9c-0.2-0.9-0.4-2-0.6-3.3c0-0.2-0.1-0.5-0.1-0.8c-0.1-0.4-0.1-0.7-0.2-1.2c-0.1-0.4-0.1-0.9-0.2-1.4
			l-0.2-1.5c0,0.5-0.1,1-0.2,1.5c-0.1,0.5-0.1,1-0.2,1.4c-0.1,0.4-0.1,0.8-0.2,1.2c-0.1,0.4-0.1,0.6-0.1,0.9
			c-0.3,1.3-0.5,2.4-0.7,3.3c-0.2,0.8-0.3,1.5-0.5,2c-0.4,0-0.8-0.1-1.1-0.1c-0.4,0-0.7,0-1,0c-0.3,0-0.6,0-1,0h-0.3
			c-0.1,0-0.2,0-0.3,0c-0.4-1.4-0.9-2.8-1.3-4.2l-1.3-4.2c-0.4-1.4-0.8-2.8-1.3-4.2c-0.4-1.4-0.9-2.8-1.3-4.3l4.3-1.1
			c0.1,0.3,0.3,0.7,0.4,1.2c0.2,0.5,0.3,1,0.5,1.6c0.2,0.6,0.3,1.3,0.5,1.9c0.2,0.7,0.4,1.4,0.5,2.1c0.1,0.2,0.1,0.6,0.2,1.1
			c0.1,0.5,0.2,0.9,0.3,1.4c0.1,0.5,0.2,1,0.2,1.4c0.1,0.4,0.1,0.7,0.2,0.9c0-0.3,0.1-0.7,0.1-1.1c0-0.4,0.1-0.8,0.2-1.3
			c0.1-0.4,0.1-0.8,0.2-1.2c0-0.4,0.1-0.7,0.1-0.9c0.1-0.7,0.2-1.4,0.3-2c0.1-0.6,0.2-1.2,0.2-1.8c0.1-0.5,0.1-1,0.2-1.4
			c0.1-0.4,0.1-0.6,0.2-0.8l3.7,0C32.4,108.7,32.5,108.9,32.6,109.3z"/>
		<path class="st0" d="M48.7,114.6c0.8,0,1.6,0,2.4,0.1c0,0.4,0,0.7,0,1c0,0.3,0,0.6,0,0.8s0,0.6-0.1,0.9c0,0.3-0.1,0.6-0.2,1
			l-4.5,0c0,0.5,0,0.9,0.1,1.4s0,0.9,0.1,1.4c0.5,0,1-0.1,1.5-0.1c0.5,0,1.1,0,1.6,0c0.5,0,1,0,1.5,0c0.5,0,0.9,0,1.2,0.1
			c0,0.4-0.1,0.8-0.1,1.1c0,0.3,0,0.6-0.1,0.9c0,0.3,0,0.6-0.1,0.9c0,0.3-0.1,0.7-0.1,1c-0.8,0.1-1.6,0.1-2.4,0.1
			c-0.8,0-1.5,0.1-2.3,0.1c-0.8,0-1.6,0-2.4,0c-0.8,0-1.7,0-2.6,0.1c0-1-0.1-2-0.1-3.1c0-1,0-2,0-3.1c0-1.9,0-3.8,0-5.7
			c0-1.9,0.1-3.8,0.1-5.7c0.9,0,1.8-0.1,2.5-0.1c0.8,0,1.5-0.1,2.3-0.1c0.7,0,1.5-0.1,2.3-0.1c0.8,0,1.7,0,2.6-0.1c0,0.4,0,0.7,0,1
			c0,0.3,0,0.6,0,0.9c0,0.3,0,0.6,0,0.9c0,0.3,0,0.7,0.1,1.2l-5.7,0.1l-0.1,2.8C47.2,114.5,47.9,114.6,48.7,114.6z"/>
		<path class="st0" d="M58.6,107.7l0.4,13.6c0.3,0,0.6,0,0.9,0c0.3,0,0.6,0,1,0s0.7,0,1.1,0c0.4,0,0.8,0,1.3,0c0,0.5,0,0.9,0,1.2
			v1.8c0,0.3,0,0.6,0,0.9l-7.6,0l-1.3-0.1l-0.3-14.6l0-3.1L58.6,107.7z"/>
		<path class="st0" d="M69.3,107.7l0.4,13.6c0.3,0,0.6,0,0.9,0c0.3,0,0.6,0,1,0s0.7,0,1.1,0c0.4,0,0.8,0,1.3,0c0,0.5,0,0.9,0,1.2
			v1.8c0,0.3,0,0.6,0,0.9l-7.6,0l-1.3-0.1l-0.3-14.6l0-3.1L69.3,107.7z"/>
		<path class="st0" d="M79.7,118.9c0,0.9,0,1.7,0.1,2.5c0,0.8,0,1.6,0,2.3c0,0.7,0,1.2,0,1.6h-4.2l0.1-17.8h3.8
			c0.2,0.4,0.5,1,0.9,1.7c0.4,0.7,0.8,1.6,1.2,2.5c0.4,0.9,0.9,1.8,1.3,2.8c0.5,1,0.9,1.9,1.4,2.7l0.1-9.7l4,0.1c0,1,0,2,0,2.9v2.7
			c0,1,0,1.9,0,2.9c0,1,0,1.9,0,2.9c0,1,0,2-0.1,3c0,1,0,2.1-0.1,3.2c-0.3,0-0.6,0-0.8,0c-0.2,0-0.5,0-0.7,0c-0.4,0-0.8,0-1.1,0
			c-0.3,0-0.7,0-1.3,0c-0.2-0.3-0.4-0.8-0.8-1.5l-1.2-2.2c-0.4-0.8-0.9-1.7-1.4-2.6c-0.5-0.9-0.9-1.8-1.3-2.6
			C79.6,117.2,79.6,118,79.7,118.9z"/>
		<path class="st0" d="M97.1,114.6c0.8,0,1.6,0,2.4,0.1c0,0.4,0,0.7,0,1c0,0.3,0,0.6,0,0.8s0,0.6-0.1,0.9c0,0.3-0.1,0.6-0.2,1
			l-4.5,0c0,0.5,0,0.9,0.1,1.4s0,0.9,0.1,1.4c0.5,0,1-0.1,1.5-0.1c0.5,0,1.1,0,1.6,0c0.5,0,1,0,1.5,0c0.5,0,0.9,0,1.2,0.1
			c0,0.4-0.1,0.8-0.1,1.1c0,0.3,0,0.6-0.1,0.9c0,0.3,0,0.6-0.1,0.9c0,0.3-0.1,0.7-0.1,1c-0.8,0.1-1.6,0.1-2.4,0.1
			c-0.8,0-1.5,0.1-2.3,0.1c-0.8,0-1.6,0-2.4,0c-0.8,0-1.7,0-2.6,0.1c0-1-0.1-2-0.1-3.1c0-1,0-2,0-3.1c0-1.9,0-3.8,0-5.7
			c0-1.9,0.1-3.8,0.1-5.7c0.9,0,1.8-0.1,2.5-0.1c0.8,0,1.5-0.1,2.3-0.1s1.5-0.1,2.3-0.1c0.8,0,1.7,0,2.6-0.1c0,0.4,0,0.7,0,1
			c0,0.3,0,0.6,0,0.9c0,0.3,0,0.6,0,0.9c0,0.3,0,0.7,0.1,1.2l-5.7,0.1l-0.1,2.8C95.5,114.5,96.2,114.6,97.1,114.6z"/>
		<path class="st0" d="M110.9,118.4c0.2,0.6,0.3,1.2,0.3,1.8c0,0.6-0.1,1.3-0.4,1.9c-0.3,0.6-0.8,1.3-1.4,2
			c-0.4,0.3-0.8,0.5-1.2,0.7c-0.4,0.2-0.8,0.3-1.3,0.4c-0.5,0.1-1,0.1-1.7,0.1c-0.6,0-1.4,0-2.2,0h-1.1l0-3.7c0.2,0,0.5,0,0.7,0
			s0.5,0,0.8,0c0.3,0,0.6,0,0.9,0c0.3,0,0.6,0,0.9-0.1s0.5-0.2,0.7-0.3c0.2-0.1,0.4-0.3,0.5-0.6c0.1-0.3,0.1-0.5,0.1-0.7
			c0-0.3-0.1-0.7-0.2-1c-0.1-0.3-0.3-0.6-0.5-0.9c-0.2-0.3-0.4-0.5-0.7-0.8c-0.2-0.2-0.5-0.5-0.7-0.7c-0.5-0.5-0.9-1-1.2-1.5
			s-0.5-1-0.5-1.6c0-0.2,0-0.3,0-0.5s0-0.3,0-0.5c0-0.4,0-0.7,0.1-1.1c0.1-0.4,0.2-0.8,0.3-1.1c0.2-0.4,0.4-0.7,0.7-1.1
			c0.3-0.4,0.7-0.7,1.2-0.9c0.3-0.1,0.5-0.3,0.9-0.4s0.7-0.2,1.2-0.3s1-0.2,1.5-0.3c0.6-0.1,1.3-0.1,2-0.2l0.6,3.8
			c-0.4,0-0.8,0.1-1,0.2s-0.5,0.1-0.7,0.1c-0.2,0-0.5,0.1-0.7,0.2c-0.3,0.1-0.4,0.2-0.5,0.4c-0.1,0.1-0.2,0.3-0.3,0.6
			c-0.1,0.2-0.1,0.5-0.1,0.7c0,0.2,0,0.4,0.1,0.5c0.1,0.2,0.1,0.3,0.3,0.5c0.3,0.4,0.7,0.8,1,1.3c0.3,0.4,0.6,0.9,0.8,1.3
			C110.4,117.2,110.7,117.8,110.9,118.4z"/>
		<path class="st0" d="M121.5,118.4c0.2,0.6,0.3,1.2,0.3,1.8c0,0.6-0.1,1.3-0.4,1.9c-0.3,0.6-0.8,1.3-1.4,2
			c-0.4,0.3-0.8,0.5-1.2,0.7c-0.4,0.2-0.8,0.3-1.3,0.4c-0.5,0.1-1,0.1-1.7,0.1c-0.6,0-1.4,0-2.2,0h-1.1l0-3.7c0.2,0,0.5,0,0.7,0
			s0.5,0,0.8,0c0.3,0,0.6,0,0.9,0c0.3,0,0.6,0,0.9-0.1s0.5-0.2,0.7-0.3c0.2-0.1,0.4-0.3,0.5-0.6c0.1-0.3,0.1-0.5,0.1-0.7
			c0-0.3-0.1-0.7-0.2-1c-0.1-0.3-0.3-0.6-0.5-0.9c-0.2-0.3-0.4-0.5-0.7-0.8c-0.2-0.2-0.5-0.5-0.7-0.7c-0.5-0.5-0.9-1-1.2-1.5
			c-0.3-0.5-0.5-1-0.5-1.6c0-0.2,0-0.3,0-0.5s0-0.3,0-0.5c0-0.4,0-0.7,0.1-1.1c0.1-0.4,0.2-0.8,0.3-1.1c0.2-0.4,0.4-0.7,0.7-1.1
			c0.3-0.4,0.7-0.7,1.2-0.9c0.3-0.1,0.5-0.3,0.9-0.4s0.7-0.2,1.2-0.3s1-0.2,1.5-0.3c0.6-0.1,1.3-0.1,2-0.2l0.6,3.8
			c-0.4,0-0.8,0.1-1,0.2s-0.5,0.1-0.7,0.1c-0.2,0-0.5,0.1-0.7,0.2c-0.3,0.1-0.4,0.2-0.5,0.4c-0.1,0.1-0.2,0.3-0.3,0.6
			c-0.1,0.2-0.1,0.5-0.1,0.7c0,0.2,0,0.4,0.1,0.5c0.1,0.2,0.1,0.3,0.3,0.5c0.3,0.4,0.7,0.8,1,1.3s0.6,0.9,0.8,1.3
			C121,117.2,121.3,117.8,121.5,118.4z"/>
	</g>
	<g>
		<path class="st0" d="M67.2,35.8l-0.4,7.8c0,0,1.7,4.2,1.6,4.3c-0.1,0.1-2.4,2.5-2.4,2.5l-1.6,26.3l16.3-0.3l-3.8-7l4.1-15.9
			l-6.4-4.4l-1.3-3.2l2.5-3.3l-1.3-6.8l-3.7-2.2L67.2,35.8z"/>
		<polygon class="st5" points="99.2,86.2 42.7,86.3 39.6,93.6 102.6,93.6 		"/>
		<g>
			<g>
				<g>
					<g>
						<path class="st6" d="M91.5,73.2c-2.6-1.3-8.4,0.8-12.5,1.4c4.8-2.1,8.6-5.6,8.2-7c-0.7-2.7-4.6-12.5-5.4-14.8
							c0,0-7.4,4.7-16.2-1.6c-1.6,0.6-4.9,1.5-5.3,2.7c-0.5,1.6-2.4,10.9-1.8,15.5c0.2,1.7,1.5,2.4,2.5,2.3c0.8-0.1,2.2-0.6,3.6-1.1
							c-0.3,1.4-0.8,2.8-1.2,4c0,0-7.2-2.3-11.3-1.4c-3.5,1-3.8,4.5-2.8,5.6c1.3,1.5,4.6,3.3,9.1,5l-1.2,1.9c-1,1.4-1.7,3.3-1.7,3.3
							s5.4-0.2,13.9-1.8c0,0,7.5,2.2,16.9,1.8c0.4,0,0.7-0.4,0.6-0.8c-0.4-1.1-1.2-3.2-2.1-4.6c1.2-0.5,2-0.8,2-0.8
							c3.2-1.4,5.6-2.8,6.6-4C93.9,78.1,94.1,74.5,91.5,73.2z M68.4,60.9c0.4-1.2,0.9-3.1,2.3-4.1c1.7,2.3,4.7-0.6,4.9,0.2
							c0.8,4.9-5.2,7.3-5.2,7.3S68,62.2,68.4,60.9z M68.4,74.1c3.7-2.9,1.9-3.7,2.8-4.4c2.2-0.6,5.4,0.7,5.4,0.7s1.6,2.3,1.2,2.9
							C77.5,73.9,72.6,76.8,68.4,74.1z M77.7,69.5c-0.3-4.7,1.2-10.1,1.2-10.1s1.3,4.8,2.2,7.5C81.3,67.3,79.1,68.7,77.7,69.5z"/>
					</g>
				</g>
				<g>
					<path class="st2" d="M104,93.8l-3.9-8.2c-0.1-0.3-0.4-0.5-0.8-0.5H85c-0.5,0-0.9,0.4-0.9,0.9c0,0.5,0.4,0.9,0.9,0.9h13.8
						l3.1,6.4H39.8l3.1-6.4h12.8c0.5,0,0.9-0.4,0.9-0.9c0-0.5-0.4-0.9-0.9-0.9H42.4c-0.3,0-0.6,0.2-0.8,0.5l-3.9,8.2
						c-0.1,0.3-0.1,0.6,0,0.8c0.2,0.2,0.4,0.4,0.7,0.4h64.8c0.3,0,0.6-0.2,0.7-0.4C104.1,94.4,104.1,94.1,104,93.8z"/>
					<path class="st2" d="M78.5,75.7c0.2,0.4,0.6,0.7,1.1,0.5c3.3-1.2,8.8-2.1,9.8-2.1c1.2,0,2.6,1,3.1,2.2c0.2,0.5,0.4,1.3-0.2,1.9
						c-1,1.1-3.2,2.4-6.4,3.7c-0.4,0.2-0.6,0.7-0.4,1.1c0.1,0.3,0.5,0.5,0.8,0.5c0.1,0,0.2,0,0.3-0.1c2.4-1,5.5-2.6,6.9-4.2
						c0.9-1,1.1-2.4,0.5-3.8c-0.8-1.8-2.8-3.2-4.7-3.2c-1.1,0-6.8,1-10.3,2.2C78.5,74.8,78.3,75.2,78.5,75.7z"/>
					<path class="st2" d="M86,77.1c0-0.5-0.4-0.8-0.9-0.8c-4.1,0.3-8.8,2.9-12.2,4.8c-0.4,0.2-0.6,0.7-0.3,1.2
						c0.2,0.3,0.4,0.4,0.7,0.4c0.1,0,0.3,0,0.4-0.1c3.3-1.8,7.8-4.3,11.5-4.6C85.7,78,86.1,77.6,86,77.1z"/>
					<path class="st2" d="M71.7,62.4c-0.4,0.2-0.6,0.7-0.4,1.1c0.1,0.3,0.5,0.5,0.8,0.5c0.1,0,0.2,0,0.3-0.1c2.1-1,3.5-2.2,4.1-3.8
						c0.7-1.8-0.1-3.4-0.1-3.5c-0.1-0.2-0.3-0.4-0.6-0.5c-0.3,0-0.5,0-0.7,0.2c0,0-1,0.8-2.3,0.7c-0.5,0-0.9,0.3-0.9,0.8
						c0,0.5,0.3,0.9,0.8,0.9c1,0.1,1.9-0.1,2.5-0.4c0,0.3,0,0.7-0.2,1.2C74.5,60.7,73.4,61.6,71.7,62.4z"/>
					<path class="st2" d="M61.1,66.7c0.1,0.3,0.5,0.5,0.8,0.5c0.1,0,0.2,0,0.3-0.1c4.7-2,7-5.3,7.2-6.6c0.2-1.6,0.7-2.7,1.4-2.8
						c0.5-0.1,0.7-0.6,0.6-1c-0.1-0.5-0.6-0.7-1-0.6c-1.4,0.4-2.3,1.9-2.7,4.3c-0.1,0.4-0.9,1.7-2.6,3.1l-0.6-6.1
						c0-0.5-0.5-0.8-0.9-0.8c-0.5,0-0.8,0.5-0.8,0.9l0.7,7c-0.6,0.4-1.2,0.7-2,1C61.2,65.7,61,66.2,61.1,66.7z"/>
					<path class="st2" d="M66.4,87.3c-4.6,0.6-8.3,0.8-10.1,0.8c0.3-0.6,0.7-1.3,1.1-2c0.3-0.4,0.2-0.9-0.2-1.2
						c-0.4-0.3-0.9-0.2-1.2,0.2c-1,1.5-1.7,3.4-1.8,3.5c-0.1,0.3-0.1,0.5,0.1,0.8c0.2,0.2,0.4,0.4,0.7,0.4c0.1,0,0.4,0,1.1,0
						c2.2,0,7.5-0.1,14-1.4c0.2,0,0.3-0.1,0.4-0.2c7,1.4,12.7,1.6,15,1.6c0.6,0,1,0,1.1,0c0.3,0,0.5-0.2,0.7-0.4
						c0.2-0.2,0.2-0.5,0.1-0.8c-0.5-1.2-2.1-5.3-4.3-5.5c-0.9-0.1-1.9,0.1-3.1,0.4c-1.5,0.3-3.1,0.6-5,0.5c-1.2-0.1-3.6-1.4-6-2.8
						c-3.7-2.1-8.4-4.7-12.5-5c-0.5,0-0.9,0.3-0.9,0.8c0,0.5,0.3,0.9,0.8,0.9c3.7,0.3,8.2,2.8,11.8,4.8c2.9,1.6,5.1,2.8,6.7,3
						c2.1,0.1,3.9-0.2,5.4-0.5c1-0.2,1.9-0.4,2.6-0.3c0.5,0,1.5,1.3,2.4,3.2c-2.8,0-10.2-0.3-18.3-2.4c-9.6-2.5-15.8-5.6-17.5-7.5
						c-0.6-0.6-0.4-1.4-0.2-1.9c0.5-1.2,1.9-2.2,3.1-2.2c2.5,0,8,1.2,9.9,1.7c0.4,0.1,1.5,0.2,1.7-0.4c0.4-1,1.1-4.3,1.1-4.4
						c0.7-0.5,1.4-1.1,2.1-1.8c1.9-1.8,3.4-3.6,3.4-3.7c0.3-0.4,0.2-0.9-0.1-1.2c-0.4-0.3-0.9-0.2-1.2,0.1c0,0-1.4,1.8-3.3,3.5
						c-2.3,2.2-4.3,3.4-5.6,3.4c0,0,0,0,0,0c-0.4,0-1.2-0.4-1.3-1.4c-0.1-0.9,1.1-13.7,1.8-15.8c0.2-0.7,1.9-1.7,3.9-2.5
						c1.3,1.1,5.2,4.1,11,4.1c1.6,0,3.4-0.2,5.3-0.8c0.7,1.5,2,4.4,3,7.1c1.7,4.4,2.1,6.7,1.9,7.4c-0.3,1.5-4.6,2.4-6.6,2.8
						c-0.4,0.1-0.8,0.2-1.2,0.2c0,0,0,0,0,0c-1.1,0.3-1.9,0.8-2.7,1.1c-0.7,0.3-1.2,0.6-1.7,0.7c-2,0.4-3.5-0.1-4.4-0.5
						c0.7-0.4,1.4-1,2-1.8c0.3-0.4,0.2-0.9-0.2-1.2c-0.4-0.3-0.9-0.2-1.2,0.2c-0.8,1.2-2.5,1.8-2.5,1.8c-0.3,0.1-0.5,0.3-0.6,0.6
						c-0.1,0.3,0,0.6,0.2,0.8c0.1,0.1,1.9,2,5.2,2c0.6,0,1.2-0.1,1.8-0.2c0.8-0.1,1.5-0.5,2.2-0.9c0.7-0.4,1.4-0.7,2.4-1
						c0.3-0.1,0.7-0.1,1.1-0.2c2.9-0.6,7.3-1.5,7.9-4.1c0.6-2.9-4.3-14.1-5.4-16.2c-0.3-0.9-1.2-1.7-2.7-2.5
						c-0.4-0.2-0.9-0.1-1.2,0.3c-0.2,0.4-0.1,0.9,0.3,1.2c0.6,0.3,1,0.6,1.3,0.9c-6.5,1.9-11.3-0.9-13.4-2.5c0.5-0.2,1-0.3,1.5-0.4
						c0.4-0.1,0.6-0.4,0.6-0.8l0-3.1c0.8,0.4,1.5,0.6,1.9,0.6c0.4,0,1.2-0.2,2-0.7l0,3.1c0,0.4,0.3,0.7,0.6,0.8c0,0,1.3,0.4,2.9,0.9
						c0.1,0,0.2,0.1,0.3,0.1c0.3,0,0.7-0.2,0.8-0.6c0.2-0.4-0.1-0.9-0.5-1.1c-1-0.4-1.8-0.6-2.4-0.8l0-3.8c0.7-0.7,1.3-1.7,1.3-2.7
						c0-0.3,0-0.7,0-1.1c0-3.2,0-5.7-1.1-6.8c-1.5-1.5-3.8-1.5-3.9-1.5c-0.1,0-2.4,0-3.9,1.5c-1.1,1.1-1.1,3.6-1.1,6.8
						c0,0.4,0,0.8,0,1.1c0,1.1,0.6,2,1.3,2.8l0,3.7c-2,0.6-7.1,2.3-7.8,4.6c-0.8,2.3-2.1,15.5-1.9,16.5c0.2,1.8,1.8,2.9,3,2.9
						c0,0,0,0,0,0c0.8,0,1.7-0.3,2.6-0.8c-0.2,0.6-0.4,1.3-0.5,1.8c-2-0.5-7.5-1.7-10.2-1.7c-1.9,0-3.8,1.3-4.7,3.2
						c-0.6,1.4-0.4,2.8,0.5,3.8C50.5,81.9,57.8,85.1,66.4,87.3z M68.1,35.9c0.9-1,2.6-1,2.7-1c0.1,0,1.7,0,2.7,1
						c0.6,0.7,0.6,3.8,0.6,5.5c0,0.4,0,0.8,0,1.1c0,1.7-2.7,3-3.2,3c-0.5,0-3.2-1.3-3.2-3c0-0.3,0-0.7,0-1.1
						C67.5,39.8,67.5,36.6,68.1,35.9z"/>
					<path class="st2" d="M70,70.3c0.3,0.4,0.8,0.5,1.2,0.2c0.6-0.5,1.9,0,3,0.3c0.2,0.1,0.4,0.1,0.6,0.2c0.4,0.1,0.8,0.2,1.3,0.2
						c2.3,0,5-1.5,6-2.8c0.2-0.2,0.2-0.5,0.1-0.8l-2.6-7.9c0,0,0-0.1-0.1-0.1c0.2-1.2,0.3-1.9,0.3-2c0.1-0.5-0.2-0.9-0.7-1
						c-0.5-0.1-0.9,0.2-1,0.7c-0.1,0.3-1.4,8.1-1.4,12c-0.6,0.1-1.1,0.1-1.6,0c-0.2-0.1-0.3-0.1-0.5-0.2c-1.3-0.4-3.2-1-4.5-0.1
						C69.8,69.4,69.7,69.9,70,70.3z M79,63.4l1.4,4.3c-0.4,0.4-1.1,0.8-1.9,1.2C78.5,67.3,78.7,65.3,79,63.4z"/>
				</g>
			</g>
		</g>
		<path class="st2" d="M75.6,51.2c0,0,3.5,1.2,4.6,2.2v-2.1c0,0-3-1.6-4.5-2L75.6,51.2z"/>
	</g>
</g>
</svg>
