<svg xmlns="http://www.w3.org/2000/svg" width="562.899" height="116.35" viewBox="0 0 562.899 116.35">
  <g id="Group_9" data-name="Group 9" transform="translate(0 0)">
    <g id="Group_6" data-name="Group 6">
      <path id="Path_15" data-name="Path 15" d="M261.634,236.829a41.086,41.086,0,1,1-41.086-41.086A41.085,41.085,0,0,1,261.634,236.829Z" transform="translate(-105.861 -195.743)" fill="#fff"/>
      <path id="Path_16" data-name="Path 16" d="M502.361,204.306v31.576c0,20.865,16.961,39.973,37.77,41.514a40.888,40.888,0,0,0,44-40.768V204.2a8.459,8.459,0,0,0-8.458-8.459H510.925A8.562,8.562,0,0,0,502.361,204.306Z" transform="translate(-150.835 -195.743)" fill="#fff"/>
      <path id="Path_17" data-name="Path 17" d="M328.2,195.744h-31.7a8.441,8.441,0,0,0-8.441,8.441v64.837a8.488,8.488,0,0,0,8.488,8.488h32.4a40.889,40.889,0,0,0,40.769-44C368.175,212.7,349.067,195.744,328.2,195.744Z" transform="translate(-120.988 -195.743)" fill="#fff"/>
      <path id="Path_18" data-name="Path 18" d="M477.091,226.407a30.663,30.663,0,0,0-30.663-30.663H403.811a8.487,8.487,0,0,0-8.487,8.487V269.1a8.41,8.41,0,0,0,8.409,8.409H469.2a4.224,4.224,0,0,0,3.514-6.566l-11.707-17.559A30.655,30.655,0,0,0,477.091,226.407Z" transform="translate(-135.927 -195.743)" fill="#fff"/>
      <path id="Path_19" data-name="Path 19" d="M160.232,204.587a40.884,40.884,0,1,0-.061,64.128,4.279,4.279,0,0,0,.374-6.379L138.4,240.191a5.041,5.041,0,0,1,0-7.128l22.22-22.22A4.194,4.194,0,0,0,160.232,204.587Z" transform="translate(-93.951 -195.743)" fill="#fff"/>
    </g>
    <path id="Path_20" data-name="Path 20" d="M738.656,218.4a27.508,27.508,0,1,1-22.455-22.28A27.423,27.423,0,0,1,738.656,218.4Z" transform="translate(-176.14 -195.743)" fill="#c8271b"/>
    <path id="Path_21" data-name="Path 21" d="M624.73,213.624a2.808,2.808,0,0,1-2.855-3.174c1.754-10.239,11.769-14.575,23.035-14.575,12.446,0,22.989,5.533,22.989,16.982,0,13.37-9.909,17.826-23.226,17.826-3.805,0-9.038.615-9.038,6.838h27.839a3.968,3.968,0,0,1,4.029,3.9v5.1a3.968,3.968,0,0,1-4.029,3.9H625.222a4.5,4.5,0,0,1-4.57-4.429v-8.1c0-15.983,12.6-19.21,24.02-19.21,3.091,0,7.769-1.23,7.769-5.609,0-3.766-3.726-5.148-7.531-5.148s-6.51,1.1-7.565,3.773a2.932,2.932,0,0,1-2.709,1.913Z" transform="translate(-167.311 -195.761)" fill="#efaa13"/>
    <path id="Path_22" data-name="Path 22" d="M624.73,283.947a2.808,2.808,0,0,1-2.855-3.174c1.754-10.239,11.769-14.575,23.035-14.575,12.446,0,22.989,5.533,22.989,16.982,0,13.37-9.909,17.826-23.226,17.826-3.805,0-9.038.615-9.038,6.838h27.839a3.968,3.968,0,0,1,4.029,3.9v5.1a3.968,3.968,0,0,1-4.029,3.9H625.222a4.5,4.5,0,0,1-4.57-4.429v-8.1c0-15.983,12.6-19.21,24.02-19.21,3.091,0,7.769-1.23,7.769-5.609,0-3.766-3.726-5.148-7.531-5.148s-6.51,1.1-7.565,3.773a2.932,2.932,0,0,1-2.709,1.913Z" transform="translate(-167.311 -205.556)" fill="#229167"/>
    <path id="Path_23" data-name="Path 23" d="M702.295,295.928v-4.9a2.974,2.974,0,0,1,3.019-2.926h6.335c3.092,0,7.611-.691,7.769-4.457,0-2.613-2.933-4.918-7.769-4.918-3.435,0-6.76,1.014-7.819,3.575a3.1,3.1,0,0,1-2.92,1.727h-9.131a2.948,2.948,0,0,1-2.993-3.4c2.111-10.619,12.847-14.427,22.862-14.427,10.7,0,23.465,4.457,23.465,16.828a11.722,11.722,0,0,1-7.373,10.373c6.422,2.305,8.641,6.915,8.641,11.832,0,12.6-14.031,16.675-24.812,16.675-10.227,0-21.848-4.117-23.689-15.412a2.966,2.966,0,0,1,3.009-3.337h9.6a3.164,3.164,0,0,1,2.914,2.159c1.219,3.175,5.062,4.3,8.959,4.3s7.689-1.844,7.689-5.3c0-1.383-.4-5.455-7.689-5.455h-7.049A2.974,2.974,0,0,1,702.295,295.928Z" transform="translate(-176.67 -205.556)" fill="#c56a1e"/>
    <g id="Group_8" data-name="Group 8" transform="translate(8.812 95.737)">
      <g id="Group_7" data-name="Group 7">
        <path id="Path_24" data-name="Path 24" d="M108.79,319.176c0,.6.011,1.144.035,1.635s.046.991.068,1.5.043,1.047.059,1.622.022,1.24.022,1.991l-4.393-.046-.392-17.786q1.5-.022,2.7-.034t2.393-.034q1.185-.026,2.474-.046t2.92-.094l-.069,3.957-6.005.071q.046.484.07.988c.015.337.031.657.046.955s.027.569.035.806.018.425.034.564c0,.031.065.048.2.057s.3.017.507.022.441.011.7.011h.83q.964,0,2.209-.045v3.8Z" transform="translate(-104.189 -307.098)" fill="#fff"/>
        <path id="Path_25" data-name="Path 25" d="M178.245,314.766q1.254,0,2.45.113c.016.386.031.722.046,1.014s.019.578.012.861-.032.581-.07.887-.1.66-.173,1.06l-4.671.022c.032.49.052.971.059,1.438s.027.946.058,1.439c.506-.032,1.035-.054,1.587-.071s1.093-.022,1.622-.022,1.035.009,1.518.022.909.04,1.277.071c-.047.413-.081.782-.1,1.1s-.043.628-.059.92-.034.595-.057.909-.058.671-.1,1.071q-1.288.089-2.462.136t-2.359.071q-1.185.021-2.426.045t-2.669.068q-.071-1.584-.092-3.14t-.024-3.141q0-2.944.046-5.833t.07-5.831q1.4-.068,2.6-.116t2.347-.1q1.149-.059,2.381-.093l2.727-.079c0,.368.007.7.022.988s.027.586.035.887.019.62.034.966.038.764.069,1.254l-5.82.139-.094,2.9Q176.992,314.765,178.245,314.766Z" transform="translate(-113.579 -307.058)" fill="#fff"/>
        <path id="Path_26" data-name="Path 26" d="M247.772,318.659a5.3,5.3,0,0,1,.333,1.818,4.951,4.951,0,0,1-.436,1.991,7.531,7.531,0,0,1-1.449,2.081,5.266,5.266,0,0,1-1.208.714,5.813,5.813,0,0,1-1.358.368,13.686,13.686,0,0,1-1.715.139q-.966.022-2.278.023h-1.172l.046-3.8q.369-.022.714-.034c.229-.008.507-.02.828-.034.292-.015.59-.026.9-.034a4.7,4.7,0,0,0,.885-.1,2.526,2.526,0,0,0,.772-.3,1.47,1.47,0,0,0,.552-.623,2.781,2.781,0,0,0,.115-.736,2.505,2.505,0,0,0-.2-.988,4.274,4.274,0,0,0-.507-.875,7.4,7.4,0,0,0-.689-.793c-.254-.255-.495-.5-.726-.748a12.337,12.337,0,0,1-1.2-1.506,3.378,3.378,0,0,1-.529-1.622c-.016-.17-.027-.337-.034-.507s-.012-.345-.012-.529a7.263,7.263,0,0,1,.092-1.139,4.8,4.8,0,0,1,.333-1.149,4.518,4.518,0,0,1,.691-1.105,4.469,4.469,0,0,1,1.185-.98,6.052,6.052,0,0,1,.9-.424,8.121,8.121,0,0,1,1.185-.346q.679-.148,1.576-.263t2.071-.184l.667,3.889a9.99,9.99,0,0,0-1.069.161c-.285.059-.525.108-.725.139a2.611,2.611,0,0,0-.737.219,1.277,1.277,0,0,0-.552.4,2.208,2.208,0,0,0-.276.575,2.309,2.309,0,0,0-.116.736,1.948,1.948,0,0,0,.081.553,1.461,1.461,0,0,0,.265.507,16.04,16.04,0,0,1,.989,1.289q.461.666.874,1.333A10.282,10.282,0,0,1,247.772,318.659Z" transform="translate(-122.894 -306.972)" fill="#fff"/>
        <path id="Path_27" data-name="Path 27" d="M308.412,324.514c.009-.448.016-.906.022-1.382s.016-.974.024-1.5.011-1.082.011-1.679q.023-1.2.034-2.175t.022-1.886q.013-.909,0-1.852c-.007-.628-.027-1.328-.057-2.095-.26.017-.522.028-.782.034s-.544.015-.851.015H304.65c.016-.246.022-.47.022-.669v-.623c0-.382,0-.73-.011-1.045s-.011-.626-.011-.931v-.461c0-.153.009-.314.022-.481q1.381-.048,2.59-.071c.8-.014,1.591-.022,2.358-.022.552,0,1.1,0,1.634.011s1.089.011,1.657.011,1.154.006,1.76.011,1.245.012,1.921.012c.015.232.027.442.034.634s.012.387.012.586c0,.4-.008.815-.023,1.254s-.022,1.023-.022,1.758c-.353,0-.671.006-.955.011s-.564.015-.841.015H313c.016,1.133.016,2.178,0,3.126s-.022,1.912-.022,2.877,0,2.106.011,3.418,0,2.8-.035,4.474l-4.578-.046Q308.4,325.181,308.412,324.514Z" transform="translate(-132.109 -307.072)" fill="#fff"/>
        <path id="Path_28" data-name="Path 28" d="M374.029,311.3c.009-.521.016-1.067.022-1.634s.028-1.28.059-2.141c.184-.015.352-.026.507-.034s.306-.011.459-.011c.354,0,.695.011,1.025.034s.739.036,1.23.036h.461c.169,0,.352-.009.552-.025q.092,3.8.115,7.363t.024,7.249v3.727L374.04,326c-.015-1.6-.022-3.1-.022-4.511v-8.513Q374.018,312.082,374.029,311.3Z" transform="translate(-141.771 -307.043)" fill="#fff"/>
        <path id="Path_29" data-name="Path 29" d="M448.66,313.054q-.609,2.085-1.219,4.154t-1.231,4.2q-.622,2.128-1.221,4.428l-4.9.114-5.682-17.025,1.909-.62c.323-.108.584-.19.783-.244l.563-.151c.176-.045.364-.088.564-.124s.467-.1.806-.173c.2.584.441,1.348.725,2.3s.582,1.977.9,3.073.633,2.217.955,3.358.62,2.206.9,3.186q.391-1.5.782-3.208t.736-3.359q.345-1.644.656-3.05c.207-.934.388-1.687.541-2.253l4.649,1.127Q449.27,310.973,448.66,313.054Z" transform="translate(-150.182 -307.061)" fill="#fff"/>
        <path id="Path_30" data-name="Path 30" d="M512.1,307.625c.214.009.5.011.851.011h.575c.215,0,.453-.009.714-.022q.714,2.022,1.277,4.129t1.1,4.349q.54,2.243,1.093,4.681t1.241,5.131l-4.6.022q-.115-.527-.172-.837c-.039-.207-.077-.4-.115-.575s-.08-.366-.126-.566-.114-.459-.208-.782c-.229,0-.494.005-.793.011s-.6.011-.909.011-.606.006-.9.011-.544.011-.759.011l-.691,2.716h-2.209c-.321,0-.67,0-1.046-.011s-.833-.011-1.369-.011l4.165-17.257.207-.988a7.272,7.272,0,0,1,.874-.046h1.219C511.691,307.614,511.883,307.617,512.1,307.625Zm-1.035,11.825c.153.009.344.011.575.011h.736c.261,0,.49-.009.689-.022l-.137-1.059c-.047-.306-.092-.623-.139-.955s-.092-.64-.138-.932c-.062-.354-.134-.747-.219-1.184s-.164-.841-.241-1.209l-.275-1.289c-.063.355-.131.759-.208,1.22s-.153.935-.23,1.424-.15.974-.218,1.45-.134.9-.2,1.277-.116.679-.162.909l-.046.345Z" transform="translate(-160.022 -307.061)" fill="#fff"/>
        <path id="Path_31" data-name="Path 31" d="M580.767,307.671l.415,13.966c.322,0,.64.009.955.023s.64.028.977.034.7.017,1.093.022.825.006,1.3-.011q.047.74.047,1.266v1.888c0,.275.016.6.047.966l-7.825.046-1.289-.094-.275-15.045-.024-3.2Z" transform="translate(-169.929 -307.05)" fill="#fff"/>
      </g>
    </g>
  </g>
</svg>
