<svg id="Group_5" data-name="Group 5" xmlns="http://www.w3.org/2000/svg" width="285.148" height="69.314" viewBox="0 0 285.148 69.314">
  <g id="Group_4" data-name="Group 4">
    <g id="Group_3" data-name="Group 3">
      <path id="Path_1" data-name="Path 1" d="M270.834,417.433c-4.744.2-8.144-18.142-8.359-23.325-.4-9.75,1.579-21.36,5.789-30.159,1.051-2.243,3.594-2.437,3.723.638.058,1.406.2,2.632-1.184,3.3a91.651,91.651,0,0,0-1.86,23.045l.222,3.247c13.555.053,25.81-12.069,25.221-26.3-.306-7.38-5.509-14.027-13.327-13.7-12.738.528-23.584,21.217-23.115,32.549a.867.867,0,0,1-.845.827c-1.319.055-1.738-3.712-1.777-4.678-.561-13.528,9.322-34.09,25.046-34.741,11.6-.481,19.675,9.744,20.126,20.637.638,15.373-13.615,34.531-30.455,31.621C270.58,402.837,275.577,417.236,270.834,417.433Z" transform="translate(-255.3 -348.12)" fill="#fff"/>
      <path id="Path_2" data-name="Path 2" d="M312.833,403.256c.891-1.885,1.876-9.933,4.424-10.039,1.318-.055,1.8,1.069,1.848,2.123.182,4.392-1.485,8.773-1.3,13.166.055,1.318,2.034,6.6-.25,6.7-2.811.116-4.326-4.573-4.852-6.662-1.146,2.07-3.421,6.652-6.148,6.677-12.579.083-4.545-33.25,9.477-32.511,5.2.225,6.762,10.28,3.686,10.407-1.756.073-1.43-4.78-3.03-5.155-7.729-1.79-12.759,21.209-8.88,23.512A35.365,35.365,0,0,0,312.833,403.256Z" transform="translate(-261.566 -352.936)" fill="#fff"/>
      <path id="Path_3" data-name="Path 3" d="M330.848,410.443c-4.041.168-5.234-5.238-5.358-8.225-.265-6.413,5.73-23.117,13.021-23.419a9.581,9.581,0,0,1,2.3.257c2.329-5.376,2.956-11.473,5.2-16.846.876-2.237,3.116-1.274,3.188.483.168,4.041-1.14,10.7-1.488,15.022-.661,7.418-.966,14.91-1.271,22.4-.092,2.027.793,8.5-2.018,8.619-3.865.16-4.42-8.969-4.792-11.593C338.18,400.548,334.888,410.276,330.848,410.443Zm.073-4.579c3.035-3.206,6.838-17.619,8.479-22.615C336.281,382.323,328.36,401.394,330.921,405.864Z" transform="translate(-265.075 -349.901)" fill="#fff"/>
      <path id="Path_4" data-name="Path 4" d="M368.92,386.095c.461-1.6.978-4,3-4.084,1.845-.076,3.579,1.436,3.3,3.208a96.845,96.845,0,0,0-1,11.92c-.047,3.082,1.9,18.313-2.664,18.5-4.217.175-5.178-8.145-5.3-11.132-1.943,1.929-4.681,5.914-7.57,6.3-4.465.537-4.955-4.9-5.075-7.8-.117-2.811,1.749-17.232,5.527-17.388a1.639,1.639,0,0,1,1.732,1.424c.043,1.054-1.428,1.644-1.721,3.063-1.451,5.34-2.548,17.09-.387,16.12C362.372,404.319,367.942,390.1,368.92,386.095Z" transform="translate(-268.991 -352.84)" fill="#fff"/>
      <path id="Path_5" data-name="Path 5" d="M397.769,377.581c2.459-.1,4.062,2.471,2.111,4.224a37.664,37.664,0,0,0-8.974,12.779c-4.094,9.5-2.166,15.665-5.593,15.808s-3.4-5.667-3.5-7.95c-.226-5.447.694-10.852.471-16.212-.04-.966-1.43-4.78.416-4.856,2.9-.208,3.154,6.028,3.479,7.511C388.306,384.925,392.675,377.792,397.769,377.581Z" transform="translate(-272.912 -352.223)" fill="#fff"/>
      <path id="Path_6" data-name="Path 6" d="M409.206,405.9c2.2-.091,5.506-5.157,7.087-5.222,1.141-.047,1.716,1.073,1.757,2.039.164,3.953-5.416,9.464-9.194,9.62-6.236.259-8.233-7.578-8.346-12.413-.338-8.169,3.072-21.422,10.275-21.721,3.25-.134,4.945,2.523,5.064,5.422.219,5.272-3.893,10.1-8.853,11.455C406.554,399.235,407.185,405.984,409.206,405.9Zm-1.746-14.535c2.225-1.5,4.8-5.3,4.064-8.088C409.58,383.094,407.109,389.268,407.46,391.365Z" transform="translate(-275.521 -352.309)" fill="#fff"/>
      <path id="Path_7" data-name="Path 7" d="M434.088,398.229c.89-1.885,1.875-9.934,4.423-10.039,1.318-.055,1.8,1.069,1.848,2.123.182,4.392-1.484,8.773-1.3,13.166.055,1.318,2.034,6.6-.25,6.7-2.811.116-4.325-4.573-4.851-6.663-1.146,2.071-3.421,6.653-6.148,6.678-12.579.083-4.545-33.25,9.477-32.511,5.2.225,6.762,10.28,3.686,10.407-1.756.073-1.43-4.78-3.03-5.155-7.729-1.791-12.759,21.209-8.88,23.511A35.4,35.4,0,0,0,434.088,398.229Z" transform="translate(-278.455 -352.236)" fill="#fff"/>
      <path id="Path_8" data-name="Path 8" d="M492.72,396.645c.138,5.451-5.474,10.171-10.921,10.4-8.521.354-13.769-7.348-13.792-16.411.077-13.026,5.148-24.412,10.155-24.619a1.622,1.622,0,0,1,1.643,1.428c.026.615-1.263,1.372-1.666,2.268-1.943,4.04-4.054,10.465-4.044,14.952,5.9.019,15.064-10.217,14.94-17.427-.035-5.1-3.526-8.653-8.358-8.452-8.872.368-16.41,9.567-16.05,18.264.091,2.2,1.228,4.173,1.316,6.281a1.525,1.525,0,0,1-1.435,1.468c-3.513.146-4.844-6.487-4.95-9.035-.455-10.98,9.049-21.582,20.118-22.041,7.817-.324,15.539,5.516,15.874,13.6.375,9.049-6.017,14.065-12.416,18.906C487.451,386.305,492.673,389.168,492.72,396.645Zm-11.22,5.305a5.409,5.409,0,0,0,5.144-5.4c-.175-4.217-5.847-7.326-9.625-7.169a9.059,9.059,0,0,0-3.053.655C474.489,394.146,475.7,402.192,481.5,401.951Z" transform="translate(-283.747 -348.898)" fill="#fff"/>
      <path id="Path_9" data-name="Path 9" d="M506.982,378.725c2.883-.472,1.382,3.638,1.18,5.143-.535,4.069-1.319,8.5-1.148,12.631.044,1.054.164,6.065-1.762,6.321-4.114.522-4.815-7.9-4.891-9.741C500.259,390.619,500.425,379.788,506.982,378.725Zm4.656-23.511a2.214,2.214,0,0,1,2.122,2.376,3.742,3.742,0,0,1-.135.973c-1.029,2.77-2.395,16.555-4.941,16.661-1.665.156-1.819-3.533-1.869-4.763C506.69,367.474,507.421,355.388,511.638,355.214Z" transform="translate(-289.43 -349.108)" fill="#fff"/>
      <path id="Path_10" data-name="Path 10" d="M525.3,398.618c.17,4.128-1.74,8.96-6.4,9.153-3.25.134-7.6-2.853-7.74-6.279-.051-1.229.325-2.741,1.819-2.8s3.008,2.515,4.766,2.442a2.277,2.277,0,0,0,2.116-2.024c-.021-6.863-5.793-8.119-5.893-14.8-.069-3.78,2.165-9.329,6.557-9.512,1.493-.062,4.088.975,4.161,2.731.022.528-.442,2.043-.985,1.714-1.987-1.238-5.391-.568-4.891,5.131C519.257,388.661,524.985,390.976,525.3,398.618Z" transform="translate(-290.936 -351.835)" fill="#fff"/>
      <path id="Path_11" data-name="Path 11" d="M533.39,374.214c1.824-.6,1.6-5.962,4.061-6.065,2.635-.109,2.079,3.434,1.975,5.2,1.863.363,6.04,1.334,6.138,3.705.106,2.548-4.3.354-6.322.35a90.242,90.242,0,0,0,.009,12.935c.12,2.9,2.452,18.818-1.852,19-4.481.186-5.744-11.2-5.875-14.364-.23-5.534.687-11.028,1.344-16.423-.776.384-6.458,3.436-6.556,1.063C526.231,377.679,531.652,374.726,533.39,374.214Z" transform="translate(-293.046 -350.909)" fill="#fff"/>
      <path id="Path_12" data-name="Path 12" d="M563.022,370.227c2.459-.1,4.062,2.471,2.111,4.224a37.667,37.667,0,0,0-8.974,12.779c-4.094,9.5-2.167,15.665-5.593,15.807s-3.4-5.667-3.5-7.95c-.226-5.446.694-10.852.472-16.212-.041-.966-1.431-4.78.415-4.856,2.9-.208,3.154,6.028,3.479,7.511C553.559,377.57,557.928,370.437,563.022,370.227Z" transform="translate(-295.928 -351.199)" fill="#fff"/>
      <path id="Path_13" data-name="Path 13" d="M574.742,391.895c.891-1.886,1.877-9.934,4.424-10.039,1.318-.054,1.8,1.069,1.849,2.122.182,4.392-1.485,8.773-1.3,13.166.055,1.317,2.034,6.6-.25,6.7-2.811.117-4.326-4.573-4.852-6.662-1.146,2.071-3.42,6.652-6.147,6.677-12.58.083-4.546-33.25,9.476-32.511,5.2.225,6.762,10.28,3.687,10.408-1.757.072-1.43-4.781-3.03-5.156-7.729-1.79-12.76,21.209-8.881,23.512A35.347,35.347,0,0,0,574.742,391.895Z" transform="translate(-298.045 -351.353)" fill="#fff"/>
    </g>
  </g>
  <path id="Path_14" data-name="Path 14" d="M317.575,379.08a12.667,12.667,0,0,1-6.262-1.677,1.691,1.691,0,0,1,1.793-2.868,8.858,8.858,0,0,0,8.752-.025,1.691,1.691,0,1,1,1.7,2.922A11.742,11.742,0,0,1,317.575,379.08Z" transform="translate(-262.991 -351.764)" fill="#fff"/>
</svg>
