<?xml version="1.0" encoding="UTF-8" standalone="no"?>
<svg
   xmlns:dc="http://purl.org/dc/elements/1.1/"
   xmlns:cc="http://creativecommons.org/ns#"
   xmlns:rdf="http://www.w3.org/1999/02/22-rdf-syntax-ns#"
   xmlns:svg="http://www.w3.org/2000/svg"
   xmlns="http://www.w3.org/2000/svg"
   viewBox="0 0 631.20001 130.69333"
   height="130.69333"
   width="631.20001"
   xml:space="preserve"
   id="svg2"
   version="1.1"><metadata
     id="metadata8"><rdf:RDF><cc:Work
         rdf:about=""><dc:format>image/svg+xml</dc:format><dc:type
           rdf:resource="http://purl.org/dc/dcmitype/StillImage" /></cc:Work></rdf:RDF></metadata><defs
     id="defs6" /><g
     transform="matrix(1.3333333,0,0,-1.3333333,0,130.69333)"
     id="g10"><g
       transform="scale(0.1)"
       id="g12"><path
         id="path14"
         style="fill:#100f0d;fill-opacity:1;fill-rule:nonzero;stroke:none"
         d="m 3528.3,838.016 c -11.99,-73.426 -26.98,-99.653 -94.41,-99.653 -47.95,0 -73.43,9.746 -73.43,35.219 0,17.981 12.74,43.453 38.21,77.926 l 80.17,107.144 c 12.75,16.481 29.23,18.735 45.71,14.989 19.48,-4.5 23.98,-14.989 20.98,-33.719 L 3528.3,838.016" /><path
         id="path16"
         style="fill:#100f0d;fill-opacity:1;fill-rule:nonzero;stroke:none"
         d="m 3661.92,356.277 c -28.99,3.411 -40.92,17.899 -36.66,53.703 40.06,338.403 313.69,242.086 313.69,367.391 0,20.457 -7.67,56.25 -94.62,56.25 -47.74,0 -74.16,-3.402 -133.83,-21.305 -21.31,-6.824 -47.74,-6.824 -58.81,41.774 l -4.26,18.75 c -2.57,11.933 -4.27,22.164 -4.27,30.683 0,32.391 17.05,41.774 34.95,47.739 44.33,15.34 121.04,28.98 178.15,28.98 125.31,0 261.69,-29.836 261.69,-212.25 0,-219.922 -270.21,-147.469 -299.2,-271.922 22.17,0 45.19,0.856 71.61,0.856 69.89,0.851 129.57,1.707 167.93,4.262 32.39,2.554 46.88,-2.555 54.55,-40.915 l 10.23,-50.293 c 6.81,-34.953 -10.23,-49.445 -39.21,-53.703 -44.33,-5.968 -116.78,-6.816 -193.5,-6.816 -89.5,0 -177.3,0.848 -228.44,6.816" /><path
         id="path18"
         style="fill:#100f0d;fill-opacity:1;fill-rule:nonzero;stroke:none"
         d="m 4649.68,956.371 c 0,-6.816 -3.41,-16.195 -11.93,-27.273 L 4397.37,592.395 h 88.65 l -0.86,44.324 c -1.7,51.144 -0.85,54.554 98.03,54.554 76.72,0 80.13,-1.707 78.43,-88.652 v -5.965 l 19.6,1.707 c 32.4,2.555 35.8,-13.64 51.15,-91.207 6.81,-34.097 -8.53,-48.59 -36.66,-52 -11.08,-1.707 -23.02,-2.554 -36.65,-3.414 -0.86,-92.054 -8.53,-93.762 -98.03,-93.762 -65.63,0 -69.9,5.122 -69.9,90.36 h -69.04 c -84.4,0 -166.22,0.848 -213.1,6.816 -29.84,3.41 -41.77,17.903 -35.81,52 3.42,17.903 10.23,44.324 29.84,74.16 l 238.67,347.782 c 32.39,46.882 36.66,49.437 132.12,49.437 47.74,0 75.87,-3.41 75.87,-22.164" /><path
         id="path20"
         style="fill:#100f0d;fill-opacity:1;fill-rule:nonzero;stroke:none"
         d="m 1167.82,672.227 c 0,-170.114 -137.91,-308.012 -308.023,-308.012 -170.109,0 -308.016,137.898 -308.016,308.012 0,170.117 137.907,308.015 308.016,308.015 170.113,0 308.023,-137.898 308.023,-308.015" /><path
         id="path22"
         style="fill:#100f0d;fill-opacity:1;fill-rule:nonzero;stroke:none"
         d="M 2635.36,916.055 V 679.336 c 0,-156.422 127.15,-299.672 283.16,-311.231 179.83,-13.312 329.84,128.641 329.84,305.637 v 243.074 c 0,35.032 -28.39,63.426 -63.41,63.426 h -485.39 c -35.46,0 -64.2,-28.738 -64.2,-64.187" /><path
         id="path24"
         style="fill:#100f0d;fill-opacity:1;fill-rule:nonzero;stroke:none"
         d="m 1553.46,980.242 h -237.62 c -34.95,0 -63.28,-28.332 -63.28,-63.285 V 430.879 c 0,-35.145 28.48,-63.641 63.63,-63.641 h 242.87 c 176.99,0 318.95,150.028 305.64,329.848 -11.56,156.004 -154.81,283.156 -311.24,283.156" /><path
         id="path26"
         style="fill:#100f0d;fill-opacity:1;fill-rule:nonzero;stroke:none"
         d="m 2557.68,750.363 c 0,126.961 -102.92,229.879 -229.88,229.879 h -0.01 -319.48 c -35.14,0 -63.63,-28.484 -63.63,-63.629 V 597.117 430.281 c 0,-34.812 28.23,-63.043 63.04,-63.043 h 490.81 c 25.28,0 40.37,28.18 26.34,49.223 l -87.76,131.641 c 71.81,38.882 120.57,114.882 120.57,202.261" /><path
         id="path28"
         style="fill:#100f0d;fill-opacity:1;fill-rule:nonzero;stroke:none"
         d="M 496.906,913.945 C 438.637,960.191 363.16,985.684 281.629,979.262 131.254,967.41 10.1914,844.289 0.636719,693.742 -10.6875,515.41 130.605,367.238 306.5,367.238 c 71.738,0 137.727,24.657 189.945,65.942 15.039,11.89 16.356,34.269 2.801,47.824 L 333.223,647.027 c -14.758,14.75 -14.758,38.68 0,53.442 l 166.59,166.582 c 13.312,13.312 11.843,35.183 -2.907,46.894" /><path
         id="path30"
         style="fill:#100f0d;fill-opacity:1;fill-rule:nonzero;stroke:none"
         d="M 68.2227,78.1602 V 34.7969 c 0,-31.48831 -2.2149,-32.03518 -31.7774,-32.03518 -21.8125,0 -23.4648,1.65234 -23.4648,32.03518 v 74.3051 c 0,17.675 -1.9453,65.734 -1.9453,74.851 0,16.57 0.289,17.676 30.9492,17.676 h 96.3866 c 12.984,0 16.852,-1.383 15.465,-16.848 l -1.098,-11.609 c -1.383,-13.531 -8.847,-14.637 -16.293,-14.637 H 69.0469 C 68.7617,145.828 68.2227,134.23 68.2227,121.246 h 59.1053 c 12.985,0 16.852,-1.375 15.469,-16.848 L 141.68,92.8008 C 140.313,79.2656 132.852,78.1602 125.387,78.1602 H 68.2227" /><path
         id="path32"
         style="fill:#100f0d;fill-opacity:1;fill-rule:nonzero;stroke:none"
         d="m 692.16,2.76172 c -21.812,0 -23.469,1.65234 -23.469,32.03518 v 74.3051 c 0,17.675 -1.941,65.734 -1.941,74.851 0,16.012 0.559,17.399 28.18,17.676 h 96.386 c 12.985,0 16.848,-1.383 15.485,-16.848 l -1.117,-11.609 c -1.383,-13.531 -8.829,-14.637 -16.293,-14.637 h -64.629 l -0.824,-34.519 h 59.105 c 12.984,0 16.852,-1.383 15.465,-16.848 L 797.395,95.5703 C 796.027,82.0273 788.566,80.9219 781.102,80.9219 H 723.938 V 45.8477 h 67.378 c 12.985,0 16.848,-1.375 15.485,-16.8516 L 805.684,17.3984 C 804.301,3.86719 796.855,2.76172 789.391,2.76172 H 692.16" /><path
         id="path34"
         style="fill:#100f0d;fill-opacity:1;fill-rule:nonzero;stroke:none"
         d="m 1413.91,58.8281 c 0,35.6367 -90.6,7.4571 -90.6,83.4139 0,53.578 45.01,62.149 80.92,62.149 20.45,0 38.13,-2.762 52.48,-6.36 6.63,-1.652 10.77,-3.039 10.77,-9.113 0,-1.934 -0.54,-4.695 -1.37,-7.734 l -4.69,-17.399 c -1.95,-8.289 -4.43,-10.222 -15.76,-8.289 -5.52,0.836 -19.88,3.598 -36.45,3.598 -27.08,0 -30.94,-8.293 -30.94,-14.371 0,-28.996 90.59,-7.172 90.59,-81.1996 C 1468.86,9.11719 1420.25,0 1386.56,0 c -22.64,0 -46.13,4.14453 -57.73,8.55859 -7.73,3.03911 -12.98,7.18361 -9.94,17.39841 l 3.86,12.9844 c 2.22,7.7344 3.04,11.8789 9.39,11.8789 2.21,0 4.98,-0.5508 8.56,-1.3867 15.2,-3.8672 35.64,-6.8945 47.51,-6.8945 10.77,0 25.7,1.6523 25.7,16.289" /><path
         id="path36"
         style="fill:#100f0d;fill-opacity:1;fill-rule:nonzero;stroke:none"
         d="m 2087.03,158.535 c -0.29,-16.57 -0.85,-31.488 -0.85,-49.433 V 34.7969 c 0,-31.48831 -2.19,-32.03518 -31.75,-32.03518 -21.82,0 -23.47,1.65234 -23.47,32.03518 v 74.3051 c 0,10.492 -0.83,32.035 -1.39,49.433 h -37.83 c -7.46,0 -14.93,1.106 -16.31,14.637 l -1.1,11.609 c -1.38,15.465 2.48,16.848 15.47,16.848 h 136.16 c 12.98,0 16.85,-1.383 15.47,-16.848 l -1.1,-11.609 c -1.39,-13.531 -8.85,-14.637 -16.29,-14.637 h -37.01" /><path
         id="path38"
         style="fill:#100f0d;fill-opacity:1;fill-rule:nonzero;stroke:none"
         d="M 2709.89,109.102 V 34.7969 c 0,-31.48831 -2.21,-32.03518 -31.78,-32.03518 -21.81,0 -23.46,1.65234 -23.46,32.03518 v 74.3051 c 0,17.675 -1.95,65.734 -1.95,74.851 0,16.84 0.29,17.676 32.32,17.676 25.14,0 25.97,-0.559 25.97,-28.727 0,-22.648 -1.1,-40.605 -1.1,-63.8" /><path
         id="path40"
         style="fill:#100f0d;fill-opacity:1;fill-rule:nonzero;stroke:none"
         d="m 3341.31,179.809 c 0.27,21.261 0.56,21.82 25.14,21.82 30.1,0 32.85,-0.836 32.85,-21.551 0,-69.871 -29.81,-133.4022 -51.64,-160.746 -12.43,-15.74216 -21.55,-16.57028 -35.63,-16.57028 -14.09,0 -22.65,0.82812 -35.08,15.74218 -20.99,25.4102 -52.2,90.5981 -52.2,161.5741 0,20.715 2.77,21.551 25.96,21.551 30.93,0 31.22,-1.383 32.05,-21.82 2.48,-70.438 24.85,-120.1527 29.27,-120.1527 4.7,0 28.16,55.2417 29.28,120.1527" /><path
         id="path42"
         style="fill:#100f0d;fill-opacity:1;fill-rule:nonzero;stroke:none"
         d="m 3959.49,85.8945 h 54.13 c -9.94,35.0825 -24.29,60.2145 -27.33,60.2145 -3.04,0 -17.14,-24.863 -26.8,-60.2145 z m 62.15,-41.1523 h -70.17 c -0.54,-6.9063 -1.09,-13.5313 -1.09,-20.4375 -0.27,-20.16017 -0.27,-21.54298 -29.57,-21.54298 -24.85,0 -27.06,0.82812 -27.06,21.82028 0,70.7071 31.22,129.539 58.84,161.305 12.15,14.078 16.02,15.742 32.87,15.742 17.95,0 22.37,-1.383 35.07,-16.301 26.52,-31.207 58.28,-89.7577 58.28,-160.746 0,-20.99216 -2.21,-21.82028 -31.49,-21.82028 -24.02,0 -24.31,0.54687 -24.58,21.54298 0,6.9062 -0.56,13.5312 -1.1,20.4375" /><path
         id="path44"
         style="fill:#100f0d;fill-opacity:1;fill-rule:nonzero;stroke:none"
         d="m 4617.96,2.76172 c -21.81,0 -23.47,1.65234 -23.47,32.03518 v 74.3051 c 0,17.675 -1.94,65.734 -1.94,74.851 0,16.84 0.29,17.676 32.32,17.676 25.13,0 25.96,-0.559 25.96,-28.727 0,-22.648 -1.1,-40.605 -1.1,-63.8 V 45.8477 h 65.73 c 12.98,0 16.85,-1.375 15.47,-16.8516 l -1.1,-11.5977 C 4728.44,3.86719 4720.98,2.76172 4713.54,2.76172 h -95.58" /></g></g></svg>