<?xml version="1.0" encoding="UTF-8"?>
<svg id="Layer_2" data-name="Layer 2" xmlns="http://www.w3.org/2000/svg" viewBox="0 0 631.2 130.7">
  <defs>
    <style>
      .cls-1 {
        fill: #fff;
        stroke-width: 0px;
      }
    </style>
  </defs>
  <g id="svg2">
    <g id="g10">
      <g id="g12">
        <path id="path14" class="cls-1" d="m470.44,18.96c-1.6,9.79-3.6,13.29-12.59,13.29-6.39,0-9.79-1.3-9.79-4.7,0-2.4,1.7-5.79,5.09-10.39l10.69-14.29c1.7-2.2,3.9-2.5,6.09-2,2.6.6,3.2,2,2.8,4.5l-2.3,13.59"/>
        <path id="path16" class="cls-1" d="m488.26,83.2c-3.87-.45-5.46-2.39-4.89-7.16,5.34-45.12,41.83-32.28,41.83-48.99,0-2.73-1.02-7.5-12.62-7.5-6.37,0-9.89.45-17.84,2.84-2.84.91-6.37.91-7.84-5.57l-.57-2.5c-.34-1.59-.57-2.96-.57-4.09,0-4.32,2.27-5.57,4.66-6.37C496.33,1.82,506.55,0,514.17,0c16.71,0,34.89,3.98,34.89,28.3,0,29.32-36.03,19.66-39.89,36.26,2.96,0,6.03-.11,9.55-.11,9.32-.11,17.28-.23,22.39-.57,4.32-.34,6.25.34,7.27,5.46l1.36,6.71c.91,4.66-1.36,6.59-5.23,7.16-5.91.8-15.57.91-25.8.91-11.93,0-23.64-.11-30.46-.91"/>
        <path id="path18" class="cls-1" d="m619.96,3.18c0,.91-.45,2.16-1.59,3.64l-32.05,44.89h11.82l-.11-5.91c-.23-6.82-.11-7.27,13.07-7.27,10.23,0,10.68.23,10.46,11.82v.8l2.61-.23c4.32-.34,4.77,1.82,6.82,12.16.91,4.55-1.14,6.48-4.89,6.93-1.48.23-3.07.34-4.89.46-.11,12.27-1.14,12.5-13.07,12.5-8.75,0-9.32-.68-9.32-12.05h-9.21c-11.25,0-22.16-.11-28.41-.91-3.98-.45-5.57-2.39-4.77-6.93.46-2.39,1.36-5.91,3.98-9.89l31.82-46.37c4.32-6.25,4.89-6.59,17.62-6.59,6.37,0,10.12.45,10.12,2.96"/>
        <path id="path20" class="cls-1" d="m155.71,41.07c0,22.68-18.39,41.07-41.07,41.07s-41.07-18.39-41.07-41.07S91.96,0,114.64,0s41.07,18.39,41.07,41.07"/>
        <path id="path22" class="cls-1" d="m351.38,8.56v31.56c0,20.86,16.95,39.96,37.75,41.5,23.98,1.77,43.98-17.15,43.98-40.75V8.46C433.11,3.79,429.33,0,424.66,0h-64.72c-4.73,0-8.56,3.83-8.56,8.56"/>
        <path id="path24" class="cls-1" d="m207.13,0h-31.68c-4.66,0-8.44,3.78-8.44,8.44v64.81c0,4.69,3.8,8.49,8.48,8.49h32.38c23.6,0,42.53-20,40.75-43.98C247.09,16.95,227.99,0,207.13,0"/>
        <path id="path26" class="cls-1" d="m341.02,30.65C341.02,13.72,327.3,0,310.37,0h-42.6c-4.69,0-8.48,3.8-8.48,8.48v64.84c0,4.64,3.76,8.41,8.41,8.41h65.44c3.37,0,5.38-3.76,3.51-6.56l-11.7-17.55c9.57-5.18,16.08-15.32,16.08-26.97"/>
        <path id="path28" class="cls-1" d="m66.25,8.84C58.48,2.67,48.42-.73,37.55.13,17.5,1.71,1.36,18.13.08,38.2c-1.51,23.78,17.33,43.53,40.78,43.53,9.57,0,18.36-3.29,25.33-8.79,2.01-1.59,2.18-4.57.37-6.38l-22.14-22.14c-1.97-1.97-1.97-5.16,0-7.13l22.21-22.21c1.77-1.77,1.58-4.69-.39-6.25"/>
        <path id="path30" class="cls-1" d="m9.1,120.28v5.78c0,4.2-.3,4.27-4.24,4.27-2.91,0-3.13-.22-3.13-4.27v-9.91c0-2.36-.26-8.76-.26-9.98,0-2.21.04-2.36,4.13-2.36h12.85c1.73,0,2.25.18,2.06,2.25l-.15,1.55c-.18,1.8-1.18,1.95-2.17,1.95h-8.99c-.04,1.69-.11,3.24-.11,4.97h7.88c1.73,0,2.25.18,2.06,2.25l-.15,1.55c-.18,1.8-1.18,1.95-2.17,1.95h-7.62"/>
        <path id="path32" class="cls-1" d="m92.29,130.33c-2.91,0-3.13-.22-3.13-4.27v-9.91c0-2.36-.26-8.76-.26-9.98,0-2.13.07-2.32,3.76-2.36h12.85c1.73,0,2.25.18,2.06,2.25l-.15,1.55c-.18,1.8-1.18,1.95-2.17,1.95h-8.62l-.11,4.6h7.88c1.73,0,2.25.18,2.06,2.25l-.15,1.55c-.18,1.81-1.18,1.95-2.17,1.95h-7.62v4.68h8.98c1.73,0,2.25.18,2.06,2.25l-.15,1.55c-.18,1.8-1.18,1.95-2.17,1.95h-12.96"/>
        <path id="path34" class="cls-1" d="m188.52,122.86c0-4.75-12.08-.99-12.08-11.12,0-7.14,6-8.29,10.79-8.29,2.73,0,5.08.37,7,.85.88.22,1.44.41,1.44,1.22,0,.26-.07.63-.18,1.03l-.63,2.32c-.26,1.11-.59,1.36-2.1,1.11-.74-.11-2.65-.48-4.86-.48-3.61,0-4.13,1.11-4.13,1.92,0,3.87,12.08.96,12.08,10.83,0,7.25-6.48,8.47-10.97,8.47-3.02,0-6.15-.55-7.7-1.14-1.03-.41-1.73-.96-1.33-2.32l.51-1.73c.3-1.03.41-1.58,1.25-1.58.29,0,.66.07,1.14.18,2.03.52,4.75.92,6.33.92,1.44,0,3.43-.22,3.43-2.17"/>
        <path id="path36" class="cls-1" d="m278.27,109.56c-.04,2.21-.11,4.2-.11,6.59v9.91c0,4.2-.29,4.27-4.23,4.27-2.91,0-3.13-.22-3.13-4.27v-9.91c0-1.4-.11-4.27-.19-6.59h-5.04c-.99,0-1.99-.15-2.17-1.95l-.15-1.55c-.18-2.06.33-2.25,2.06-2.25h18.15c1.73,0,2.25.18,2.06,2.25l-.15,1.55c-.19,1.8-1.18,1.95-2.17,1.95h-4.93"/>
        <path id="path38" class="cls-1" d="m361.32,116.15v9.91c0,4.2-.29,4.27-4.24,4.27-2.91,0-3.13-.22-3.13-4.27v-9.91c0-2.36-.26-8.76-.26-9.98,0-2.25.04-2.36,4.31-2.36,3.35,0,3.46.07,3.46,3.83,0,3.02-.15,5.41-.15,8.51"/>
        <path id="path40" class="cls-1" d="m445.51,106.72c.04-2.83.07-2.91,3.35-2.91,4.01,0,4.38.11,4.38,2.87,0,9.32-3.97,17.79-6.89,21.43-1.66,2.1-2.87,2.21-4.75,2.21s-3.02-.11-4.68-2.1c-2.8-3.39-6.96-12.08-6.96-21.54,0-2.76.37-2.87,3.46-2.87,4.12,0,4.16.18,4.27,2.91.33,9.39,3.31,16.02,3.9,16.02.63,0,3.75-7.37,3.9-16.02"/>
        <path id="path42" class="cls-1" d="m527.93,119.25h7.22c-1.33-4.68-3.24-8.03-3.64-8.03s-2.29,3.32-3.57,8.03h0Zm8.29,5.49h-9.36c-.07.92-.15,1.8-.15,2.72-.04,2.69-.04,2.87-3.94,2.87-3.31,0-3.61-.11-3.61-2.91,0-9.43,4.16-17.27,7.85-21.51,1.62-1.88,2.14-2.1,4.38-2.1,2.39,0,2.98.18,4.68,2.17,3.54,4.16,7.77,11.97,7.77,21.43,0,2.8-.29,2.91-4.2,2.91-3.2,0-3.24-.07-3.28-2.87,0-.92-.07-1.8-.15-2.73"/>
        <path id="path44" class="cls-1" d="m615.73,130.33c-2.91,0-3.13-.22-3.13-4.27v-9.91c0-2.36-.26-8.76-.26-9.98,0-2.25.04-2.36,4.31-2.36,3.35,0,3.46.07,3.46,3.83,0,3.02-.15,5.41-.15,8.51v8.43h8.76c1.73,0,2.25.18,2.06,2.25l-.15,1.55c-.19,1.8-1.18,1.95-2.17,1.95h-12.74"/>
      </g>
    </g>
  </g>
</svg>