<?xml version="1.0" encoding="utf-8"?>
<!-- Generator: Adobe Illustrator 26.3.1, SVG Export Plug-In . SVG Version: 6.00 Build 0)  -->
<svg version="1.1" id="Layer_1" xmlns="http://www.w3.org/2000/svg" xmlns:xlink="http://www.w3.org/1999/xlink" x="0px" y="0px"
	 viewBox="0 0 141.7 141.7" style="enable-background:new 0 0 141.7 141.7;" xml:space="preserve">
<style type="text/css">
	.st0{fill:#233D4D;}
	.st1{fill:#F57E2E;}
	.st2{fill:#579C87;}
	.st3{fill:#FCCA46;}
	.st4{fill:#A1C181;}
	.st5{fill:#8C9AA9;}
	.st6{fill:#ffffff;}
</style>
<g>
	<g>
		<g transform="translate(0, 4)">
			<path class="st6" d="M41.8,121c0-1.4,0-2.8,0.1-4.1c0-1.4,0-2.7,0-4.1c0-1.4,0-2.7,0-4.1c0-1.4,0-2.8,0.1-4.3h2.2
				c0.7,0,1.4,0,2,0c0.6,0,1.1,0.1,1.6,0.1c0.4,0,0.7,0.1,0.9,0.2c0.4,0.2,0.8,0.4,1.1,0.7c0.3,0.3,0.5,0.6,0.7,1
				c0.1,0.3,0.2,0.8,0.3,1.4c0.1,0.6,0.1,1.3,0.1,1.9c0,0.7,0,1.4-0.1,2.1s-0.2,1.2-0.3,1.6c-0.2,0.4-0.3,0.7-0.5,0.9
				c-0.2,0.2-0.4,0.3-0.6,0.4c-0.2,0.1-0.4,0.2-0.6,0.2c-0.2,0-0.5,0.1-0.8,0.1c-0.2,0.1-0.5,0.1-0.7,0.1c-0.3,0-0.5,0-0.7,0
				c-0.3,0-0.5,0-0.8,0v5.8L41.8,121z M46.9,111.8c0.2-0.1,0.4-0.3,0.5-0.5c0.1-0.1,0.2-0.3,0.2-0.6c0-0.3,0.1-0.7,0.1-1.1
				c0-0.5,0-0.8-0.1-1.2c-0.1-0.3-0.3-0.6-0.7-0.7c-0.1,0-0.2,0-0.3,0c-0.2,0-0.5,0-1-0.1l0.2,4.3C46.3,111.9,46.7,111.9,46.9,111.8
				z"/>
			<path class="st6" d="M57.5,111c0.8,0,1.5,0,2.2,0.1c0,0.3,0,0.7,0,0.9c0,0.3,0,0.5,0,0.8c0,0.3,0,0.5-0.1,0.8
				c0,0.3-0.1,0.6-0.2,1l-4.2,0c0,0.4,0,0.9,0.1,1.3s0,0.9,0.1,1.3c0.5,0,0.9,0,1.4-0.1c0.5,0,1,0,1.5,0s0.9,0,1.4,0
				c0.4,0,0.8,0,1.2,0.1c0,0.4-0.1,0.7-0.1,1c0,0.3,0,0.6-0.1,0.8c0,0.3,0,0.5-0.1,0.8s-0.1,0.6-0.1,1c-0.8,0.1-1.5,0.1-2.2,0.1
				c-0.7,0-1.4,0-2.1,0.1c-0.7,0-1.4,0-2.2,0c-0.7,0-1.6,0-2.4,0.1c0-1-0.1-1.9-0.1-2.8c0-0.9,0-1.9,0-2.8c0-1.8,0-3.5,0-5.3
				c0-1.7,0-3.5,0.1-5.3c0.8,0,1.6-0.1,2.4-0.1c0.7,0,1.4-0.1,2.1-0.1c0.7,0,1.4-0.1,2.2-0.1c0.7,0,1.6,0,2.5-0.1c0,0.3,0,0.6,0,0.9
				c0,0.3,0,0.5,0,0.8s0,0.6,0,0.9c0,0.3,0,0.7,0.1,1.1l-5.3,0.1l-0.1,2.6C56.1,110.9,56.8,111,57.5,111z"/>
			<path class="st6" d="M79.7,109.4c-0.4,1.3-0.7,2.5-1.1,3.8c-0.4,1.2-0.7,2.5-1.1,3.8c-0.4,1.3-0.7,2.6-1.1,4l-4.4,0.1l-5.1-15.4
				l1.7-0.6c0.3-0.1,0.5-0.2,0.7-0.2c0.2,0,0.3-0.1,0.5-0.1c0.2,0,0.3-0.1,0.5-0.1c0.2,0,0.4-0.1,0.7-0.2c0.2,0.5,0.4,1.2,0.7,2.1
				c0.3,0.9,0.5,1.8,0.8,2.8s0.6,2,0.9,3c0.3,1,0.6,2,0.8,2.9c0.2-0.9,0.5-1.9,0.7-2.9c0.2-1,0.5-2,0.7-3s0.4-1.9,0.6-2.8
				s0.3-1.5,0.5-2l4.2,1C80.5,106.9,80.1,108.2,79.7,109.4z"/>
			<path class="st6" d="M85.6,104.5c0.2,0,0.5,0,0.8,0h0.5c0.2,0,0.4,0,0.6,0c0.4,1.2,0.8,2.5,1.2,3.7s0.7,2.6,1,3.9s0.7,2.8,1,4.2
				c0.3,1.5,0.7,3,1.1,4.6l-4.2,0c-0.1-0.3-0.1-0.6-0.2-0.8c0-0.2-0.1-0.4-0.1-0.5c0-0.2-0.1-0.3-0.1-0.5c0-0.2-0.1-0.4-0.2-0.7
				c-0.2,0-0.4,0-0.7,0c-0.3,0-0.5,0-0.8,0s-0.5,0-0.8,0c-0.3,0-0.5,0-0.7,0l-0.6,2.5h-2c-0.3,0-0.6,0-0.9,0c-0.3,0-0.8,0-1.2,0
				l3.8-15.6l0.2-0.9c0.2,0,0.5,0,0.8,0h1.1C85.2,104.5,85.4,104.5,85.6,104.5z M84.6,115.2c0.1,0,0.3,0,0.5,0h0.7
				c0.2,0,0.4,0,0.6,0l-0.1-1c0-0.3-0.1-0.6-0.1-0.9c0-0.3-0.1-0.6-0.1-0.8c-0.1-0.3-0.1-0.7-0.2-1.1s-0.1-0.8-0.2-1.1l-0.2-1.2
				c-0.1,0.3-0.1,0.7-0.2,1.1s-0.1,0.8-0.2,1.3c-0.1,0.4-0.1,0.9-0.2,1.3s-0.1,0.8-0.2,1.2s-0.1,0.6-0.1,0.8l0,0.3
				C84.4,115.2,84.5,115.2,84.6,115.2z"/>
			<path class="st6" d="M96.1,104.6l0.4,12.6c0.3,0,0.6,0,0.9,0c0.3,0,0.6,0,0.9,0c0.3,0,0.6,0,1,0s0.7,0,1.2,0c0,0.4,0,0.8,0,1.1
				v1.7c0,0.2,0,0.5,0,0.9l-7.1,0l-1.2-0.1L92,107.3l0-2.9L96.1,104.6z"/>
		</g>
	</g>
	<g>
		<g>
			<path class="st0" d="M94.9,28.4l-0.1-0.1c-2.9-2.6-6.1-4.7-9.7-6.2c-4.4-1.9-9.1-2.9-13.9-2.9C51.8,19.3,36,35.1,36,54.5
				c0,1.9,0.2,3.8,0.5,5.7c1.3,8.2,5.5,15.6,11.8,21c6.4,5.5,14.5,8.5,22.9,8.5c19.4,0,35.2-15.8,35.2-35.2
				C106.4,44.6,102.2,35.1,94.9,28.4z"/>
		</g>
		<path class="st2" d="M92.7,30.6C92.7,30.6,92.7,30.6,92.7,30.6c-2.6-2.3-5.6-4.3-8.8-5.7c1.9,3.8,3,8.2,3,12.8
			c0,15.9-12.9,28.8-28.8,28.8c-7.1,0-13.6-2.6-18.6-6.8C42,74.9,55.2,86.6,71.2,86.6c17.7,0,32.1-14.4,32.1-32.1
			C103.3,45,99.2,36.5,92.7,30.6z"/>
		<g>
			<g>
				<path class="st0" d="M82.4,56.6c-7,9.3-13,11.2-13,11.2s9.2-0.2,14.8-7.1c5.6-6.9,7.5,6.7-10.6,14.3c0,0,17.7-0.8,22.4-19.2
					c0,0,3.3,4.1-2.9,12.4c-6.2,8.3-29.9,19.3-48.3,4.7c5.8,8.2,15.4,13.6,26.3,13.6c17.7,0,32.1-14.4,32.1-32.1
					c0-9.5-4.1-18-10.6-23.8C85.5,35.6,89.3,47.3,82.4,56.6z"/>
			</g>
			<g>
				<path class="st0" d="M44.9,72.9c0.1,0.1,15.4,7.7,21.1,3.4c1.9-1.4-5.9,0.3-15.7-4.3c-4.9-2.3-9-8.1-10.7-11.6
					C40.5,65.1,42.3,69.3,44.9,72.9z"/>
			</g>
		</g>
		<g>
			<path class="st1" d="M86.8,37.7c0-4.6-1.1-8.9-3-12.8c-3.9-1.7-8.2-2.6-12.7-2.6c-17.7,0-32.1,14.4-32.1,32.1
				c0,1.8,0.1,3.5,0.4,5.2c5,4.3,11.5,6.8,18.6,6.8C74,66.5,86.8,53.6,86.8,37.7z"/>
		</g>
		<path class="st3" d="M64.4,44.4c-7.4,0-13.4,6-13.4,13.4c0,3.2,1.1,6.1,2.9,8.3c1.4,0.2,2.8,0.3,4.2,0.3c7.6,0,14.5-3,19.7-7.8
			c0-0.3,0-0.6,0-0.9C77.8,50.4,71.8,44.4,64.4,44.4z"/>
		<g>
			<path class="st3" d="M68.2,66.1c-4.1,1.3-9.2,1.5-11.8,1.6c-0.3,0-0.3,0.4-0.1,0.5c2.6,0.6,7.8,1.3,12.2-1.3
				C68.8,66.5,68.6,65.9,68.2,66.1z"/>
			<path class="st3" d="M55.9,70.8c2.9,1.6,5.6,2.4,8,2.7c0.3,0,0.3,0.4,0,0.4l0,0c-0.3,0-0.3,0.4,0,0.5c5,1,9-0.8,10.9-1.9
				c0.2-0.1,0.1-0.5-0.2-0.4c-0.4,0.1-1,0.2-1.6,0.4c-0.3,0.1-0.4-0.3-0.1-0.4c2.2-1,3.9-2.3,5-3.3c0.4-0.4,0-1-0.5-0.8
				c-3.8,1.5-12,3.9-21.2,2.1C55.7,69.9,55.5,70.5,55.9,70.8z"/>
			<path class="st3" d="M76.9,76c-1.7,0.4-4.7,1.1-8.7,1.5c-0.3,0-0.3,0.4,0,0.5c4,0.7,7.2-0.6,8.9-1.6C77.3,76.3,77.2,75.9,76.9,76
				z"/>
		</g>
	</g>
</g>
</svg>
