<?xml version="1.0" encoding="utf-8"?>
<!-- Generator: Adobe Illustrator 26.5.0, SVG Export Plug-In . SVG Version: 6.00 Build 0)  -->
<svg version="1.1" id="uuid-73222b1a-2597-4043-ae55-354c87ac5137"
	 xmlns="http://www.w3.org/2000/svg" xmlns:xlink="http://www.w3.org/1999/xlink" x="0px" y="0px" viewBox="0 0 141.7 141.7"
	 style="enable-background:new 0 0 141.7 141.7;" xml:space="preserve">
<style type="text/css">
	.st0{fill:#F47E30;}
	.st1{fill:#233D4D;}
	.st2{fill:#579B86;}
	.st3{fill:#FCC945;}
	.st4{fill:none;}
	.st5{fill:#ABC27B;}
	.st6{fill:#FFFFFF;}
</style>
<g>
	<g>
		<polygon class="st0" points="97,67.9 107.8,57.1 97,46.3 97,31 81.7,31 70.8,20.2 60,31 44.7,31 44.7,46.3 33.9,57.1 44.7,67.9 
			44.7,83.2 60,83.2 70.8,94 81.7,83.2 97,83.2 		"/>
		<path class="st1" d="M70.8,95.3c-0.3,0-0.7-0.1-0.9-0.4L59.5,84.5H44.7c-0.7,0-1.3-0.6-1.3-1.3V68.5L33,58
			c-0.2-0.2-0.4-0.6-0.4-0.9s0.1-0.7,0.4-0.9l10.4-10.4V31c0-0.7,0.6-1.3,1.3-1.3h14.8l10.4-10.4c0.5-0.5,1.4-0.5,1.8,0l10.4,10.4
			h14.8c0.7,0,1.3,0.6,1.3,1.3v14.8l10.4,10.4c0.5,0.5,0.5,1.3,0,1.8L98.3,68.5v14.8c0,0.7-0.6,1.3-1.3,1.3H82.2L71.8,94.9
			C71.5,95.2,71.2,95.3,70.8,95.3L70.8,95.3z M46,81.9h14c0.3,0,0.7,0.1,0.9,0.4l9.9,9.9l9.9-9.9c0.2-0.2,0.6-0.4,0.9-0.4h14v-14
			c0-0.3,0.1-0.7,0.4-0.9l9.9-9.9L96,47.2c-0.2-0.2-0.4-0.6-0.4-0.9v-14h-14c-0.3,0-0.7-0.1-0.9-0.4L70.9,22L61,31.9
			c-0.2,0.2-0.6,0.4-0.9,0.4h-14v14c0,0.3-0.1,0.7-0.4,0.9l-9.9,9.9l9.9,9.9c0.2,0.2,0.4,0.6,0.4,0.9C46.1,67.9,46.1,81.9,46,81.9z"
			/>
	</g>
	<g>
		<g>
			<path class="st2" d="M75.6,66.9h-5.3c1.8,2.4,4.3,4.4,7.9,5.3C92,76,99.3,59.9,101.5,51.6c1-3.8,1.5-6.7,1.6-8.6
				c0.1-2.1-1.3-1.5-4.1-1c-2,0.3-6.7,0.8-12.5-0.8c-5.8-1.6-9.7-4.3-11.3-5.6c-2.2-1.8-3.1-3.1-4.1-1.2c-0.6,1.2-1.2,2.8-1.9,5h6.4
				v18.9c1.4-0.3,3.2-0.3,5.2,0.3c6.7,1.9,7.6,7.4,7.6,7.4l-12.8-3.6L75.6,66.9L75.6,66.9L75.6,66.9z M90.4,53.9c-3.7-1-4-4.8-4-4.8
				l9.8,2.6C96.2,51.8,94,54.9,90.4,53.9z"/>
			<path class="st1" d="M82.2,73.5c-1.4,0-2.8-0.2-4.2-0.6c-3.5-0.9-6.3-2.8-8.3-5.6l-0.8-1.1h6v-4.8l12.4,3.5
				c-0.6-1.6-2.4-4.5-6.8-5.7c-1.7-0.5-3.3-0.6-4.9-0.3l-0.8,0.2V40h-6.7l0.3-0.9c0.6-2,1.3-3.7,2-5.1c0.2-0.5,0.6-1.2,1.4-1.3
				c0.9-0.2,1.7,0.5,2.9,1.6c0.2,0.2,0.5,0.5,0.8,0.7c1,0.9,4.9,3.8,11,5.5c6.1,1.7,10.9,1,12.2,0.8c0.4-0.1,0.7-0.1,1.1-0.2
				c1.5-0.3,2.6-0.5,3.3,0.1c0.6,0.5,0.6,1.3,0.6,1.8c-0.1,1.3-0.4,4.2-1.6,8.8c-1.9,7-6.2,15.9-12.8,19.7
				C87.1,72.8,84.7,73.5,82.2,73.5L82.2,73.5z M71.7,67.6c1.7,1.9,4,3.3,6.7,4c3.7,1,7.2,0.6,10.3-1.2c6.2-3.6,10.3-12.1,12.2-18.9
				c1.2-4.4,1.5-7.2,1.6-8.5c0-0.6-0.1-0.7-0.1-0.7c-0.2-0.2-1.3,0-2.1,0.2c-0.3,0.1-0.7,0.1-1.1,0.2c-1.4,0.2-6.4,0.9-12.8-0.8
				c-6.4-1.7-10.4-4.8-11.5-5.7c-0.3-0.2-0.6-0.5-0.8-0.7c-0.7-0.6-1.5-1.3-1.8-1.2c0,0-0.2,0-0.4,0.6c-0.4,0.8-0.9,2-1.6,4h6.1
				v18.8c1.5-0.2,3.1,0,4.7,0.4c7,2,8.1,7.7,8.1,7.9l0.2,1.1l-13-3.7v4.4L71.7,67.6L71.7,67.6z M91.8,54.8c-0.5,0-1-0.1-1.6-0.2l0,0
				c-3.3-0.9-4.4-3.9-4.5-5.4l-0.1-1l11.7,3.1l-0.6,0.8C96.7,52.3,94.9,54.8,91.8,54.8L91.8,54.8z M90.6,53.2
				c2.1,0.5,3.6-0.4,4.4-1.1l-7.6-2C87.7,51.2,88.5,52.7,90.6,53.2L90.6,53.2L90.6,53.2z"/>
		</g>
		<g>
			<path class="st3" d="M34.8,40.9c0.2,2.4,0.8,6.2,2.1,11.2c2.9,10.8,12.4,31.6,30.3,26.8S82.9,51.3,80,40.5
				c-1.3-5-2.7-8.5-3.8-10.8c-1.2-2.5-2.5-0.8-5.3,1.5c-2,1.7-7,5.2-14.6,7.2s-13.7,1.5-16.2,1C36.5,38.9,34.6,38.1,34.8,40.9
				L34.8,40.9z M63.3,52.1c0,0,0.4-5.3,5.2-6.7c4.8-1.4,7.6,3,7.6,3S63.3,52.1,63.3,52.1z M51.5,65.4L74.1,59c0,0-1.3,6.7-9.7,9.2
				C56,70.6,51.5,65.3,51.5,65.4z M43.6,58.1c0,0,0.4-5.3,5.2-6.7s7.6,3,7.6,3S43.6,58.1,43.6,58.1z"/>
			<path class="st1" d="M62.1,80.3c-6,0-11.5-2.9-16.2-8.5c-6.1-7.2-8.9-16.8-9.7-19.5c-1.6-5.8-2-9.6-2.1-11.3c0-0.7,0-1.6,0.6-2.2
				c0.8-0.7,2.2-0.5,4.1-0.1c0.4,0.1,0.9,0.2,1.4,0.3c1.7,0.3,8,1.1,16-1c8-2.1,13-6,14.3-7.1c0.4-0.3,0.7-0.6,1.1-0.9
				c1.5-1.3,2.5-2.2,3.6-2c0.9,0.2,1.4,1,1.7,1.6c0.8,1.5,2.3,5,3.8,10.9c0.9,3.4,8.3,33.5-13.3,39.2C65.5,80.1,63.8,80.3,62.1,80.3
				L62.1,80.3z M36.2,39.7c-0.3,0-0.5,0-0.6,0.1c-0.2,0.1-0.2,0.5-0.2,1.1l0,0c0.1,1.7,0.5,5.3,2.1,11.1c0.7,2.7,3.5,12,9.4,19
				c5.8,6.9,12.5,9.4,20.1,7.3C87.3,72.8,80.2,44,79.3,40.7c-1.5-5.7-3-9.1-3.8-10.6c-0.2-0.5-0.5-0.8-0.7-0.9
				c-0.4-0.1-1.4,0.8-2.4,1.7c-0.3,0.3-0.7,0.6-1.1,0.9C70,33,64.8,37,56.5,39.2c-8.2,2.2-14.7,1.3-16.5,1c-0.5-0.1-1-0.2-1.4-0.3
				C37.7,39.8,36.8,39.7,36.2,39.7L36.2,39.7z M60.1,69.5c-5.8,0-9-3.5-9.1-3.7L50.2,65l1-0.3l0.4-0.2l0,0L75,58.1l-0.2,1.1
				c-0.1,0.3-1.5,7.1-10.2,9.7C62.9,69.3,61.5,69.5,60.1,69.5z M52.8,65.7c1.6,1.3,5.5,3.6,11.3,1.9c5.9-1.7,8.1-5.6,8.9-7.5
				L52.8,65.7z M42.9,59l0.1-1c0-0.1,0.5-5.8,5.7-7.3c5.2-1.5,8.3,3.3,8.4,3.3l0.5,0.8L42.9,59L42.9,59z M50.6,51.8
				c-0.5,0-1.1,0.1-1.6,0.2c-3,0.9-4.1,3.5-4.5,5l10.7-3C54.4,53.2,52.8,51.8,50.6,51.8z M62.5,53.1l0.1-1c0-0.1,0.5-5.8,5.7-7.3
				c5.2-1.5,8.3,3.3,8.4,3.3l0.5,0.8L62.5,53.1L62.5,53.1z M70.3,45.9c-0.5,0-1.1,0.1-1.6,0.2c-3.1,0.9-4.1,3.5-4.5,5l10.7-3
				C74.1,47.3,72.5,45.9,70.3,45.9z"/>
		</g>
		<g>
			<g>
				<g>
					<line class="st4" x1="43.1" y1="29.5" x2="43.2" y2="33.9"/>
					<path class="st5" d="M43.2,34.6c-0.4,0-0.7-0.3-0.7-0.7l-0.2-4.4c0-0.4,0.3-0.7,0.7-0.7c0.4,0,0.7,0.3,0.7,0.7l0.2,4.4
						C43.9,34.3,43.6,34.6,43.2,34.6C43.3,34.6,43.2,34.6,43.2,34.6L43.2,34.6z"/>
				</g>
				<g>
					<line class="st4" x1="45.4" y1="31.6" x2="41" y2="31.8"/>
					<path class="st5" d="M40.9,32.5c-0.4,0-0.7-0.3-0.7-0.7c0-0.4,0.3-0.7,0.7-0.7l4.4-0.2c0.4,0,0.7,0.3,0.7,0.7
						c0,0.4-0.3,0.7-0.7,0.7L40.9,32.5C41,32.5,40.9,32.5,40.9,32.5L40.9,32.5z"/>
				</g>
			</g>
			<g>
				<g>
					<line class="st4" x1="96.4" y1="33.5" x2="96.5" y2="36.3"/>
					<path class="st5" d="M96.5,37c-0.4,0-0.7-0.3-0.7-0.7l-0.1-2.9c0-0.4,0.3-0.7,0.7-0.7c0.4,0,0.7,0.3,0.7,0.7l0.1,2.9
						C97.2,36.7,96.9,37,96.5,37C96.5,37,96.5,37,96.5,37L96.5,37z"/>
				</g>
				<g>
					<line class="st4" x1="97.9" y1="34.9" x2="95" y2="34.9"/>
					<path class="st5" d="M95,35.6c-0.4,0-0.7-0.3-0.7-0.7c0-0.4,0.3-0.7,0.7-0.7l2.9-0.1c0.4,0,0.7,0.3,0.7,0.7
						c0,0.4-0.3,0.7-0.7,0.7L95,35.6C95,35.6,95,35.6,95,35.6L95,35.6z"/>
				</g>
			</g>
			<path class="st5" d="M61.2,31.2c-0.2,0-0.3-0.1-0.5-0.2c-2.9-2.9-7.7-2.9-10.6,0c-0.3,0.3-0.7,0.3-1,0s-0.3-0.7,0-1
				c3.5-3.5,9-3.5,12.5,0c0.3,0.3,0.3,0.7,0,1C61.6,31.1,61.4,31.2,61.2,31.2L61.2,31.2z"/>
			<path class="st5" d="M48.3,79.7c-2.2,0-4.4-0.8-6-2.4c-1.7-1.6-2.7-3.8-2.8-6.2c0-0.4,0.3-0.7,0.7-0.7c0.4,0,0.7,0.3,0.7,0.7
				c0,2,0.9,3.9,2.3,5.2c1.4,1.4,3.3,2.1,5.3,2c0.4,0,0.7,0.3,0.7,0.7s-0.3,0.7-0.7,0.7C48.5,79.7,48.4,79.7,48.3,79.7z"/>
			<path class="st5" d="M84.6,78.6c-0.3,0-0.6,0-0.9-0.1c-2.3-0.2-4.5-1.4-5.9-3.2c-0.2-0.3-0.2-0.7,0.1-1s0.7-0.2,1,0.1
				c1.3,1.6,3,2.5,5,2.7c2,0.2,3.9-0.4,5.4-1.6c0.3-0.2,0.7-0.2,1,0.1c0.2,0.3,0.2,0.7-0.1,1C88.5,77.9,86.6,78.6,84.6,78.6
				L84.6,78.6z"/>
		</g>
	</g>
</g>
<g>
	<path class="st6" d="M40.8,125c0-0.4,0-0.9,0-1.3c0-0.4,0-0.9,0-1.4c0-0.5,0-1,0-1.6c0-0.8,0-1.5,0-2.1s0-1.2,0-1.8
		c0-0.6,0-1.2,0-1.8s0-1.3,0-2c-0.2,0-0.5,0-0.8,0s-0.5,0-0.8,0h-2.1c0-0.2,0-0.4,0-0.6v-0.6c0-0.4,0-0.7,0-1c0-0.3,0-0.6,0-0.9
		v-0.4c0-0.2,0-0.3,0-0.5c0.9,0,1.7-0.1,2.5-0.1c0.8,0,1.5,0,2.2,0c0.5,0,1,0,1.6,0c0.5,0,1,0,1.6,0s1.1,0,1.7,0c0.6,0,1.2,0,1.8,0
		c0,0.2,0,0.4,0,0.6s0,0.4,0,0.6c0,0.4,0,0.8,0,1.2s0,1,0,1.7c-0.3,0-0.6,0-0.9,0c-0.3,0-0.5,0-0.8,0h-1.7c0,1.1,0,2.1,0,3
		c0,0.9,0,1.8,0,2.8s0,2,0,3.3c0,1.2,0,2.7,0,4.3l-4.4,0C40.8,125.8,40.8,125.4,40.8,125L40.8,125z"/>
	<path class="st6" d="M55.3,115.7c0.8,0,1.6,0,2.3,0.1c0,0.4,0,0.7,0,1c0,0.3,0,0.6,0,0.8c0,0.3,0,0.6-0.1,0.8c0,0.3-0.1,0.6-0.2,1
		l-4.5,0c0,0.5,0,0.9,0.1,1.4c0,0.4,0,0.9,0,1.4c0.5,0,1-0.1,1.5-0.1c0.5,0,1,0,1.5,0s1,0,1.5,0s0.9,0,1.2,0.1
		c0,0.4-0.1,0.8-0.1,1.1c0,0.3,0,0.6,0,0.9s0,0.6,0,0.9s-0.1,0.6-0.1,1c-0.8,0.1-1.6,0.1-2.3,0.1s-1.5,0.1-2.2,0.1
		c-0.8,0-1.5,0-2.3,0s-1.6,0-2.5,0.1c0-1-0.1-2-0.1-3c0-1,0-2,0-3c0-1.9,0-3.7,0-5.6s0-3.7,0.1-5.6c0.9,0,1.7-0.1,2.5-0.1
		s1.5-0.1,2.2-0.1c0.7,0,1.5-0.1,2.3-0.1c0.8,0,1.7-0.1,2.6-0.1c0,0.3,0,0.7,0,0.9c0,0.3,0,0.6,0,0.8s0,0.6,0,0.9
		c0,0.3,0,0.7,0.1,1.2l-5.6,0.1l-0.1,2.8C53.8,115.7,54.5,115.7,55.3,115.7L55.3,115.7z"/>
	<path class="st6" d="M65.1,108.8c0.2,0,0.5,0,0.8,0h0.6c0.2,0,0.4,0,0.7,0c0.4,1.3,0.9,2.6,1.2,3.9s0.7,2.7,1.1,4.2
		c0.3,1.4,0.7,2.9,1.1,4.5c0.3,1.6,0.8,3.2,1.2,4.9l-4.4,0c-0.1-0.3-0.1-0.6-0.2-0.8c0-0.2-0.1-0.4-0.1-0.6c0-0.2-0.1-0.3-0.1-0.5
		s-0.1-0.4-0.2-0.8c-0.2,0-0.5,0-0.8,0c-0.3,0-0.6,0-0.9,0s-0.6,0-0.9,0c-0.3,0-0.5,0-0.7,0l-0.7,2.6h-2.1c-0.3,0-0.6,0-1,0
		c-0.4,0-0.8,0-1.3,0l4-16.5l0.2-0.9c0.2,0,0.5,0,0.8,0h1.2C64.7,108.8,64.9,108.8,65.1,108.8L65.1,108.8z M64.1,120.1
		c0.2,0,0.3,0,0.6,0h0.7c0.2,0,0.5,0,0.7,0l-0.1-1c0-0.3-0.1-0.6-0.1-0.9s-0.1-0.6-0.1-0.9c-0.1-0.3-0.1-0.7-0.2-1.1
		s-0.2-0.8-0.2-1.2l-0.3-1.2c-0.1,0.3-0.1,0.7-0.2,1.2c-0.1,0.4-0.2,0.9-0.2,1.4c-0.1,0.5-0.1,0.9-0.2,1.4c-0.1,0.4-0.1,0.9-0.2,1.2
		s-0.1,0.7-0.2,0.9l0,0.3C63.9,120.1,64,120.1,64.1,120.1L64.1,120.1z"/>
	<path class="st6" d="M73.3,125c0-0.4,0-0.9,0-1.3c0-0.4,0-0.9,0-1.4c0-0.5,0-1,0-1.6c0-0.8,0-1.5,0-2.1s0-1.2,0-1.8
		c0-0.6,0-1.2,0-1.8s0-1.3-0.1-2c-0.2,0-0.5,0-0.8,0s-0.5,0-0.8,0h-2.1c0-0.2,0-0.4,0-0.6v-0.6c0-0.4,0-0.7,0-1c0-0.3,0-0.6,0-0.9
		v-0.4c0-0.2,0-0.3,0-0.5c0.9,0,1.7-0.1,2.5-0.1c0.8,0,1.5,0,2.2,0c0.5,0,1.1,0,1.6,0c0.5,0,1,0,1.6,0s1.1,0,1.7,0
		c0.6,0,1.2,0,1.8,0c0,0.2,0,0.4,0,0.6s0,0.4,0,0.6c0,0.4,0,0.8,0,1.2s0,1,0,1.7c-0.3,0-0.6,0-0.9,0c-0.3,0-0.5,0-0.8,0h-1.7
		c0,1.1,0,2.1,0,3c0,0.9,0,1.8,0,2.8s0,2,0,3.3c0,1.2,0,2.7,0,4.3l-4.4,0C73.3,125.8,73.3,125.4,73.3,125L73.3,125z"/>
	<path class="st6" d="M89,125c-0.3-0.6-0.6-1.2-0.8-1.7s-0.5-1-0.7-1.5c-0.2-0.5-0.4-1-0.6-1.5h-1.2c0,1.1,0,2,0,2.9
		c0,0.4,0,0.7,0,1.1c0,0.3,0,0.7,0,1v1h-0.8c-0.2,0-0.4,0-0.5,0c-0.2,0-0.3,0-0.4,0h-0.4c-0.2,0-0.4,0-0.7,0c-0.3,0-0.6,0-1.1,0
		c0-2.2,0-4.2-0.1-6.2s0-4,0-6c0-1.7,0-3.4,0.1-5.3c0.4,0,0.7,0,1.1,0h1.5c0.4,0,0.9,0,1.5,0c0.6,0,1.1,0.1,1.7,0.2s1.1,0.2,1.5,0.4
		s0.8,0.4,1.1,0.7c0.6,0.8,1,1.5,1.2,2.3c0.2,0.8,0.3,1.6,0.3,2.5c0,0.6,0,1.2-0.1,1.8s-0.2,1.2-0.4,1.8l-0.9,1l3.3,5.8l-3.3,1.9
		C89.7,126.3,89.3,125.6,89,125L89,125z M86.6,117.3c0.2,0,0.4-0.1,0.5-0.2c0.1-0.1,0.2-0.2,0.2-0.4c0.2-0.9,0.3-1.7,0.2-2.4
		c0-0.7-0.2-1.2-0.3-1.6c-0.1-0.2-0.2-0.3-0.4-0.4c-0.2-0.1-0.3-0.1-0.5-0.1c-0.2,0-0.3,0-0.5,0c-0.2,0-0.2,0-0.2,0s0,0.2,0,0.6
		c0,0.4,0,0.8,0,1.3s0,1.1,0.1,1.6c0,0.6,0,1,0.1,1.4C86.1,117.3,86.3,117.3,86.6,117.3L86.6,117.3z"/>
	<path class="st6" d="M104.4,111.6v5.5c0,0.7,0,1.3,0,2.1s-0.1,1.4-0.1,2.1c-0.1,0.7-0.1,1.2-0.2,1.7s-0.2,0.9-0.3,1.1
		c-0.3,0.5-0.6,0.8-0.9,1.1c-0.3,0.3-0.7,0.5-1,0.7c-0.4,0.2-0.8,0.3-1.2,0.3s-0.8,0.1-1.3,0.2c-1,0-1.9-0.1-2.6-0.2
		s-1.3-0.4-1.7-0.8c-0.4-0.3-0.8-0.8-1-1.3s-0.4-1.2-0.5-2c0-0.3-0.1-0.6-0.1-1c0-0.3,0-0.7,0-1v-0.7c0-0.2,0-0.4,0-0.6
		c0-0.8-0.1-1.6-0.1-2.3s0-1.7,0-2.6c0-0.7,0-1.5,0-2.3c0-0.8,0.1-1.7,0.1-2.6l4.1,0.2l0,9.8c0,0.5,0,1,0,1.4c0,0.5,0.1,0.9,0.2,1.2
		c0.1,0.3,0.2,0.6,0.4,0.8s0.4,0.3,0.8,0.3c0.3,0,0.5-0.1,0.7-0.3s0.3-0.5,0.4-0.8c0.1-0.3,0.2-0.7,0.2-1.1c0-0.4,0.1-0.8,0.1-1.3
		l0.1-10l4.2,0C104.4,109.9,104.4,110.8,104.4,111.6L104.4,111.6z"/>
</g>
</svg>
