<?xml version="1.0" encoding="UTF-8"?><svg xmlns="http://www.w3.org/2000/svg" viewBox="0 0 141.73 141.73"><defs><style>.cls-1{fill:#fff;}.cls-2{fill:#233d4d;}.cls-3{fill:#fcca46;}.cls-4{mix-blend-mode:multiply;opacity:.2;}.cls-5{isolation:isolate;}.cls-6{fill:#f57e30;}</style></defs><g class="cls-5"><g id="Layer_1"><g><polygon class="cls-1" points="13.28 92.39 8.7 101.48 7.53 106.1 10.4 110.53 27.89 110.53 32.76 101.86 22.1 86.88 13.28 92.39"/><g><g><g><path class="cls-1" d="M96.9,22.41l13.41-13.41c3.02-3.02,7.11-4.72,11.39-4.72h11.24c.74,0,1.35,.6,1.35,1.35v3.94c0,.74-.6,1.35-1.35,1.35h-8.49c-4.27,0-8.37,1.7-11.39,4.72l-6.79,6.79"/><path class="cls-2" d="M107.16,23.31l-1.77-1.77,6.79-6.79c3.28-3.28,7.64-5.08,12.27-5.08h8.49c.05,0,.1-.04,.1-.1v-3.94c0-.05-.04-.1-.1-.1h-11.24c-3.97,0-7.69,1.54-10.5,4.35l-13.41,13.41-1.77-1.77,13.41-13.41c3.28-3.28,7.64-5.08,12.27-5.08h11.24c1.43,0,2.6,1.17,2.6,2.6v3.94c0,1.43-1.17,2.6-2.6,2.6h-8.49c-3.97,0-7.7,1.54-10.5,4.35l-6.79,6.79Z"/></g><g><line class="cls-1" x1="105.08" y1="13.34" x2="110.34" y2="18.56"/><rect class="cls-2" x="106.45" y="12.25" width="2.5" height="7.41" transform="translate(20.52 81.17) rotate(-45.22)"/></g><g><line class="cls-1" x1="109.08" y1="9.34" x2="114.34" y2="14.56"/><rect class="cls-2" x="110.46" y="8.24" width="2.5" height="7.41" transform="translate(24.55 82.83) rotate(-45.22)"/></g><g><g><path class="cls-6" d="M111.17,103.49h-28.01c-2.76,0-5.08-2.08-5.37-4.82l-6.99-64.2h52.73l-6.99,64.2c-.3,2.74-2.62,4.82-5.37,4.82Z"/><path class="cls-2" d="M111.17,104.74h-28.01c-3.41,0-6.25-2.55-6.62-5.94l-7.14-65.59h55.52l-7.14,65.59c-.37,3.39-3.21,5.94-6.62,5.94ZM72.19,35.72l6.83,62.82c.23,2.11,2.01,3.71,4.13,3.71h28.01c2.13,0,3.9-1.59,4.13-3.71l6.83-62.82h-49.94Z"/></g><g><path class="cls-1" d="M126.81,34.51h-59.3c-1.24,0-2.16-1.17-1.86-2.37l1.19-4.82c.73-2.95,3.38-5.03,6.42-5.03h47.79c3.04,0,5.69,2.07,6.42,5.03l1.19,4.82c.3,1.21-.61,2.37-1.86,2.37Z"/><path class="cls-2" d="M126.81,35.76h-59.3c-.98,0-1.89-.44-2.49-1.21-.6-.77-.82-1.76-.58-2.71l1.19-4.82c.87-3.52,4.01-5.98,7.64-5.98h47.79c3.62,0,6.76,2.46,7.64,5.98l1.19,4.82c.24,.95,.02,1.94-.58,2.71-.6,.77-1.51,1.21-2.49,1.21Zm-53.54-12.22c-2.47,0-4.61,1.68-5.21,4.07l-1.19,4.82c-.07,.27,.05,.47,.12,.57,.07,.1,.24,.25,.52,.25h59.3c.28,0,.45-.16,.52-.25,.07-.09,.19-.29,.12-.57l-1.19-4.82c-.59-2.4-2.73-4.07-5.21-4.07h-47.79Z"/></g><g><circle class="cls-1" cx="97.62" cy="63.87" r="14.02"/><path class="cls-2" d="M97.62,79.14c-8.42,0-15.27-6.85-15.27-15.27s6.85-15.27,15.27-15.27,15.27,6.85,15.27,15.27-6.85,15.27-15.27,15.27Zm0-28.04c-7.04,0-12.77,5.73-12.77,12.77s5.73,12.77,12.77,12.77,12.77-5.73,12.77-12.77-5.73-12.77-12.77-12.77Z"/></g></g></g><g class="cls-4"><path class="cls-2" d="M71.56,54.01s15.26,9.27,19.89,50.69l-9.68,.16-8.06-32-2.16-18.85Z"/></g><g><g><path class="cls-1" d="M72.79,110.53h8.6c3.55,0,6.36-3.02,6.09-6.56-2.03-26.31-16.13-49.22-36.76-63.24-2.95-2-6.98-1.07-8.75,2.03l-4.25,7.46c20.94,11.95,35.07,34.48,35.07,60.32Z"/><path class="cls-2" d="M81.39,111.78h-9.85v-1.25c0-24.41-13.2-47.11-34.44-59.23l-1.09-.62,4.87-8.55c1.01-1.78,2.74-3.06,4.73-3.52,2-.46,4.11-.07,5.81,1.08,21.7,14.75,35.3,38.14,37.31,64.18,.16,2.03-.55,4.05-1.94,5.55-1.39,1.5-3.36,2.36-5.4,2.36Zm-7.36-2.5h7.36c1.37,0,2.64-.55,3.57-1.56,.93-1,1.38-2.3,1.28-3.66-1.95-25.28-15.15-47.99-36.22-62.3-1.14-.77-2.5-1.03-3.84-.72-1.33,.31-2.44,1.14-3.12,2.32l-3.63,6.38c21.03,12.5,34.18,35.11,34.61,59.53Z"/></g><path class="cls-2" d="M28.64,111.78H13.12c-2.49,0-4.73-1.29-5.98-3.44-1.25-2.16-1.26-4.74-.03-6.9l7.59-13.33h.73c8.53,.05,15.47,7.02,15.47,15.55,0,2.61-.66,5.19-1.91,7.47l-.36,.65Zm-12.5-21.14l-6.86,12.04c-.79,1.38-.78,3.03,.02,4.4s2.23,2.2,3.82,2.2h14.01c.83-1.75,1.27-3.67,1.27-5.62,0-6.92-5.44-12.61-12.26-13.02Z"/><path class="cls-2" d="M77.91,94.56c-.57,0-1.08-.39-1.22-.97-1.23-5.3-3.05-10.49-5.4-15.42-.3-.62-.03-1.37,.59-1.67,.62-.3,1.37-.03,1.67,.59,2.43,5.09,4.31,10.45,5.58,15.93,.16,.67-.26,1.35-.94,1.5-.1,.02-.19,.03-.28,.03Z"/><path class="cls-2" d="M68.71,72.03c-.42,0-.83-.21-1.07-.6-5.38-8.84-12.38-16.35-20.79-22.32-.56-.4-.7-1.18-.3-1.74,.4-.56,1.18-.7,1.74-.3,8.69,6.17,15.92,13.92,21.48,23.06,.36,.59,.17,1.36-.42,1.72-.2,.12-.43,.18-.65,.18Z"/><g><path class="cls-3" d="M37.72,50.21L15.42,89.36c7.86,.04,14.23,6.42,14.23,14.3,0,2.49-.64,4.83-1.76,6.87h5.76c1.56,0,2.83,1.27,2.83,2.83v11.04c0,2.21,1.65,4.18,3.86,4.3,2.35,.12,4.29-1.75,4.29-4.07v-14.5c.21-2.49,2.38-4.43,4.97-4.22,2.45,.19,4.26,2.4,4.26,4.86v21.81c0,2.5,1.87,4.74,4.37,4.87,2.66,.14,4.86-1.98,4.86-4.61v-19.48c0-1.56,1.27-2.83,2.83-2.83h6.88c0-25.84-14.13-48.37-35.07-60.32Z"/><path class="cls-2" d="M58.48,138.7c-.11,0-.21,0-.32,0-3.11-.16-5.55-2.85-5.55-6.12v-21.81c0-1.89-1.36-3.47-3.1-3.61-1.85-.15-3.47,1.24-3.63,3.08v14.39c0,1.45-.6,2.86-1.65,3.86-1.07,1.02-2.47,1.53-3.95,1.46-2.83-.15-5.04-2.59-5.04-5.55v-11.04c0-.87-.71-1.57-1.57-1.57h-7.88l1.02-1.85c1.05-1.91,1.6-4.08,1.6-6.27,0-7.16-5.82-13.01-12.98-13.04h-2.14l23.98-42.11,1.09,.62c22.02,12.57,35.7,36.1,35.7,61.41v1.25h-8.13c-.87,0-1.57,.71-1.57,1.57v19.48c0,1.6-.67,3.15-1.83,4.26-1.1,1.05-2.52,1.61-4.03,1.61Zm-9.24-34.06c.15,0,.31,0,.47,.02,3.03,.24,5.41,2.92,5.41,6.11v21.81c0,1.9,1.43,3.53,3.18,3.62,.94,.05,1.82-.28,2.5-.92,.68-.64,1.05-1.51,1.05-2.44v-19.48c0-2.25,1.83-4.08,4.08-4.08h5.62c-.43-23.52-13.1-45.29-33.35-57.35l-20.69,36.33c7.56,1.05,13.41,7.57,13.41,15.4,0,1.92-.36,3.83-1.05,5.62h3.8c2.25,0,4.08,1.83,4.08,4.08v11.04c0,1.6,1.2,2.97,2.67,3.05,.78,.04,1.53-.23,2.1-.77,.57-.54,.88-1.27,.88-2.05v-14.5c.27-3.16,2.85-5.49,5.86-5.49Z"/></g><g><circle class="cls-1" cx="44.6" cy="72.27" r="6.65"/><path class="cls-2" d="M44.6,80.17c-4.36,0-7.9-3.55-7.9-7.9s3.55-7.9,7.9-7.9,7.9,3.54,7.9,7.9-3.55,7.9-7.9,7.9Zm0-13.3c-2.98,0-5.4,2.42-5.4,5.4s2.42,5.4,5.4,5.4,5.4-2.42,5.4-5.4-2.42-5.4-5.4-5.4Z"/></g><g><circle class="cls-1" cx="63.62" cy="98.73" r="3.94"/><path class="cls-2" d="M63.62,103.93c-2.87,0-5.2-2.33-5.2-5.2s2.33-5.2,5.2-5.2,5.2,2.33,5.2,5.2-2.33,5.2-5.2,5.2Zm0-7.89c-1.48,0-2.69,1.21-2.69,2.69s1.21,2.69,2.69,2.69,2.69-1.21,2.69-2.69-1.21-2.69-2.69-2.69Z"/></g><g><circle class="cls-1" cx="44.6" cy="72.27" r="1.28"/><path class="cls-2" d="M44.6,74.8c-1.4,0-2.53-1.13-2.53-2.53s1.13-2.53,2.53-2.53,2.53,1.13,2.53,2.53-1.13,2.53-2.53,2.53Zm0-2.56l.03,.03s-.01-.03-.03-.03Z"/></g><g><circle class="cls-1" cx="44.13" cy="94.42" r="2.54"/><path class="cls-2" d="M44.13,98.21c-2.09,0-3.79-1.7-3.79-3.79s1.7-3.79,3.79-3.79,3.79,1.7,3.79,3.79-1.7,3.79-3.79,3.79Zm0-5.08c-.71,0-1.29,.58-1.29,1.29s.58,1.29,1.29,1.29,1.29-.58,1.29-1.29-.58-1.29-1.29-1.29Z"/></g><g><circle class="cls-1" cx="30.67" cy="86.88" r="3.34"/><path class="cls-2" d="M30.67,91.47c-2.53,0-4.59-2.06-4.59-4.59s2.06-4.59,4.59-4.59,4.59,2.06,4.59,4.59-2.06,4.59-4.59,4.59Zm0-6.68c-1.15,0-2.09,.94-2.09,2.09s.94,2.09,2.09,2.09,2.09-.94,2.09-2.09-.94-2.09-2.09-2.09Z"/></g></g></g></g></g></g></svg>