<?xml version="1.0" encoding="UTF-8"?><svg id="Layer_1" xmlns="http://www.w3.org/2000/svg" viewBox="0 0 141.73 141.73"><defs><style>.cls-1{fill:#fff;}.cls-2{fill:#233d4d;}.cls-3{fill:#fcca46;}.cls-4{fill:#f57e30;}.cls-5{fill:#f1584b;}.cls-6{fill:#579c87;}.cls-7{fill:#310e31;}</style></defs><g><g><path class="cls-1" d="M40.67,59.51l-9.64-9.64c-2.17-2.17-5.11-3.39-8.18-3.39H14.77c-.54,0-.97,.43-.97,.97v2.83c0,.54,.43,.97,.97,.97h6.1c3.07,0,6.01,1.22,8.18,3.39l4.88,4.88"/><path class="cls-2" d="M33.3,60.16l1.27-1.27-4.88-4.88c-2.36-2.36-5.49-3.65-8.82-3.65h-6.1s-.07-.03-.07-.07v-2.83s.03-.07,.07-.07h8.08c2.85,0,5.53,1.11,7.54,3.13l9.64,9.64,1.27-1.27-9.64-9.64c-2.36-2.36-5.49-3.65-8.82-3.65H14.77c-1.03,0-1.87,.84-1.87,1.87v2.83c0,1.03,.84,1.87,1.87,1.87h6.1c2.85,0,5.53,1.11,7.55,3.12l4.88,4.88Z"/></g><g><line class="cls-1" x1="34.8" y1="53" x2="31.02" y2="56.75"/><rect class="cls-2" x="30.24" y="53.97" width="5.32" height="1.8" transform="translate(-29.1 39.1) rotate(-44.78)"/></g><g><line class="cls-1" x1="31.92" y1="50.12" x2="28.14" y2="53.87"/><rect class="cls-2" x="27.36" y="51.09" width="5.33" height="1.8" transform="translate(-27.91 36.23) rotate(-44.78)"/></g><g><g><path class="cls-4" d="M30.42,117.77h20.12c1.98,0,3.65-1.49,3.86-3.46l5.02-46.13H21.54l5.02,46.13c.21,1.97,1.88,3.46,3.86,3.46Z"/><path class="cls-2" d="M25.66,114.41l-5.13-47.13H60.43l-5.13,47.13c-.26,2.43-2.31,4.27-4.76,4.27H30.42c-2.45,0-4.49-1.83-4.76-4.27Zm-3.12-45.33l4.91,45.14c.17,1.52,1.44,2.66,2.97,2.66h20.12c1.53,0,2.8-1.14,2.97-2.66l4.91-45.14H22.54Z"/></g><g><path class="cls-1" d="M19.18,68.2H61.79c.89,0,1.55-.84,1.34-1.71l-.86-3.47c-.53-2.12-2.43-3.61-4.61-3.61H23.31c-2.19,0-4.09,1.49-4.61,3.61l-.86,3.47c-.21,.87,.44,1.71,1.34,1.71Z"/><path class="cls-2" d="M17.39,68.23c-.43-.56-.59-1.27-.42-1.95l.86-3.47c.63-2.53,2.88-4.29,5.49-4.29H57.65c2.6,0,4.86,1.77,5.49,4.29l.86,3.47c.17,.68,.02,1.39-.42,1.95-.43,.55-1.09,.87-1.79,.87H19.18c-.7,0-1.36-.32-1.79-.87Zm5.93-7.91c-1.78,0-3.31,1.2-3.74,2.93l-.86,3.47c-.05,.2,.03,.34,.09,.41,.05,.07,.17,.18,.37,.18H61.79c.2,0,.32-.11,.37-.18,.05-.07,.14-.21,.09-.41l-.86-3.47c-.43-1.72-1.96-2.93-3.74-2.93H23.31Z"/></g><g><circle class="cls-1" cx="40.15" cy="89.3" r="10.07"/><path class="cls-2" d="M29.18,89.3c0-6.05,4.92-10.97,10.97-10.97,6.05,0,10.97,4.92,10.97,10.97,0,6.05-4.92,10.97-10.97,10.97-6.05,0-10.97-4.92-10.97-10.97Zm1.8,0c0,5.06,4.12,9.18,9.18,9.18,5.06,0,9.18-4.12,9.18-9.18,0-5.06-4.12-9.18-9.18-9.18-5.06,0-9.18,4.12-9.18,9.18Z"/></g></g></g><g><path class="cls-1" d="M87.73,27.52c-.11,.27-.17,.57-.17,.89,0,1.31,1.07,2.38,2.38,2.38s2.38-1.07,2.38-2.38c0-.31-.06-.61-.17-.89,1.01-.27,1.76-1.19,1.76-2.29,0-1.31-1.07-2.38-2.38-2.38-.61,0-1.17,.24-1.59,.62-.42-.38-.97-.62-1.59-.62-1.31,0-2.38,1.07-2.38,2.38,0,1.1,.75,2.02,1.76,2.29Z"/><path class="cls-2" d="M89.94,31.58c-1.75,0-3.17-1.42-3.17-3.17,0-.14,0-.28,.03-.42-.98-.55-1.62-1.6-1.62-2.76,0-1.75,1.42-3.17,3.17-3.17,.56,0,1.11,.15,1.59,.43,.48-.28,1.03-.43,1.59-.43,1.75,0,3.17,1.42,3.17,3.17,0,1.16-.64,2.2-1.62,2.76,.02,.14,.03,.28,.03,.42,0,1.75-1.42,3.17-3.17,3.17Zm-1.59-7.94c-.88,0-1.59,.71-1.59,1.59,0,.71,.48,1.34,1.18,1.52,.22,.06,.4,.21,.5,.41,.1,.2,.11,.44,.03,.65-.08,.19-.12,.39-.12,.59,0,.88,.71,1.59,1.59,1.59s1.59-.71,1.59-1.59c0-.2-.04-.4-.12-.59-.08-.21-.08-.45,.03-.65,.1-.2,.28-.35,.5-.41,.69-.19,1.18-.81,1.18-1.52,0-.88-.71-1.59-1.59-1.59-.39,0-.76,.15-1.05,.41-.3,.27-.76,.27-1.06,0-.29-.27-.67-.41-1.05-.41Z"/></g><circle class="cls-1" cx="84.38" cy="27.61" r="3.17"/><path class="cls-2" d="M84.31,31.58c-2.15,0-3.9-1.78-3.9-3.97s1.75-3.97,3.9-3.97,3.9,1.78,3.9,3.97-1.75,3.97-3.9,3.97Zm0-6.35c-1.29,0-2.34,1.07-2.34,2.38s1.05,2.38,2.34,2.38,2.34-1.07,2.34-2.38-1.05-2.38-2.34-2.38Z"/><circle class="cls-1" cx="112.95" cy="37.13" r="3.17"/><path class="cls-2" d="M112.95,41.1c-2.19,0-3.97-1.78-3.97-3.97s1.78-3.97,3.97-3.97,3.97,1.78,3.97,3.97-1.78,3.97-3.97,3.97Zm0-6.35c-1.31,0-2.38,1.07-2.38,2.38s1.07,2.38,2.38,2.38,2.38-1.07,2.38-2.38-1.07-2.38-2.38-2.38Z"/><g><path class="cls-1" d="M101.84,29.2c0-1.75-1.42-3.17-3.17-3.17-.59,0-1.15,.17-1.62,.46-.16-1.15-1.15-2.05-2.35-2.05-1.31,0-2.38,1.07-2.38,2.38,0,.39,.1,.76,.27,1.09-1.1,.5-1.86,1.6-1.86,2.88,0,1.75,1.42,3.17,3.17,3.17,.83,0,1.59-.33,2.15-.86,.44,.52,1.08,.86,1.81,.86,1.19,0,2.16-.87,2.34-2.01,.97-.54,1.63-1.57,1.63-2.75Z"/><path class="cls-2" d="M97.87,34.75c-.67,0-1.32-.22-1.86-.61-.63,.4-1.36,.61-2.11,.61-2.19,0-3.97-1.78-3.97-3.97,0-1.29,.64-2.5,1.68-3.23-.06-.24-.09-.49-.09-.74,0-1.75,1.42-3.17,3.17-3.17,1.22,0,2.31,.71,2.83,1.76,.37-.11,.75-.17,1.14-.17,2.19,0,3.97,1.78,3.97,3.97,0,1.3-.65,2.51-1.72,3.25-.38,1.36-1.61,2.31-3.05,2.31Zm-1.81-2.44s.03,0,.05,0c.22,.01,.42,.11,.56,.28,.31,.36,.75,.57,1.21,.57,.78,0,1.44-.56,1.56-1.34,.04-.24,.18-.45,.39-.57,.75-.42,1.22-1.22,1.22-2.06,0-1.31-1.07-2.38-2.38-2.38-.42,0-.83,.12-1.21,.35-.23,.14-.51,.15-.75,.04-.24-.11-.41-.34-.44-.6-.11-.78-.78-1.36-1.56-1.36-.88,0-1.59,.71-1.59,1.59,0,.24,.06,.48,.18,.72,.1,.19,.12,.42,.05,.62-.07,.2-.22,.37-.42,.46-.85,.39-1.4,1.24-1.4,2.16,0,1.31,1.07,2.38,2.38,2.38,.59,0,1.17-.23,1.61-.64,.15-.14,.34-.21,.54-.21Z"/></g><path class="cls-1" d="M78.05,32.23s-.01,.09-.01,.14c0,1.75,1.42,3.17,3.17,3.17s3.17-1.42,3.17-3.17c0-.83-.33-1.59-.86-2.15,.52-.44,.86-1.08,.86-1.81,0-1.31-1.07-2.38-2.38-2.38-1.1,0-2.02,.75-2.29,1.76-.27-.11-.57-.17-.89-.17-1.31,0-2.38,1.07-2.38,2.38,0,1.04,.67,1.92,1.6,2.24Z"/><path class="cls-2" d="M81.21,36.34c-2.06,0-3.77-1.58-3.95-3.6-.98-.56-1.6-1.6-1.6-2.75,0-1.89,1.73-3.4,3.59-3.15,.55-.98,1.6-1.62,2.76-1.62,1.75,0,3.17,1.42,3.17,3.17,0,.67-.22,1.32-.61,1.86,.4,.63,.61,1.36,.61,2.11,0,2.19-1.78,3.97-3.97,3.97Zm-2.38-7.94c-.88,0-1.59,.71-1.59,1.59,0,.67,.43,1.27,1.07,1.49,.33,.11,.54,.43,.53,.78,0,.03-.01,.12-.01,.15,0,1.28,1.07,2.34,2.38,2.34s2.38-1.07,2.38-2.38c0-.59-.23-1.17-.64-1.62-.15-.16-.22-.37-.21-.59s.11-.42,.28-.56c.37-.31,.57-.74,.57-1.21,0-.88-.71-1.59-1.59-1.59-.71,0-1.34,.48-1.52,1.17-.06,.22-.21,.4-.41,.5-.2,.1-.44,.11-.65,.03-.19-.08-.39-.12-.59-.12Z"/><g><path class="cls-1" d="M77.24,38.72c1.31,0,2.38-1.07,2.38-2.38,0-1.1-.75-2.02-1.76-2.29,.11-.27,.17-.57,.17-.89s-.06-.61-.17-.89c1.01-.27,1.76-1.19,1.76-2.29,0-1.31-1.07-2.38-2.38-2.38-.31,0-.61,.06-.89,.17-.27-1.01-1.19-1.76-2.29-1.76s-1.97,.72-2.27,1.7c-.98,.29-1.7,1.19-1.7,2.27,0,.61,.24,1.17,.62,1.59-.38,.42-.62,.97-.62,1.59,0,1.1,.75,2.02,1.76,2.29-.11,.27-.17,.57-.17,.89,0,1.31,1.07,2.38,2.38,2.38,.61,0,1.17-.24,1.59-.62,.42,.38,.97,.62,1.59,.62Z"/><path class="cls-2" d="M77.24,39.52c-.56,0-1.11-.15-1.59-.43-.48,.28-1.03,.43-1.59,.43-1.75,0-3.17-1.42-3.17-3.17,0-.14,0-.28,.03-.42-.98-.55-1.62-1.6-1.62-2.76,0-.56,.15-1.11,.43-1.59-.28-.48-.43-1.03-.43-1.59,0-1.27,.74-2.38,1.88-2.89,.51-1.14,1.62-1.88,2.89-1.88,1.16,0,2.2,.64,2.76,1.62,1.86-.26,3.59,1.26,3.59,3.15,0,1.16-.64,2.2-1.62,2.76,.02,.14,.03,.28,.03,.42s0,.28-.03,.42c.98,.55,1.62,1.6,1.62,2.76,0,1.75-1.42,3.17-3.17,3.17Zm-1.59-2.21c.19,0,.38,.07,.53,.2,.29,.27,.67,.41,1.05,.41,.88,0,1.59-.71,1.59-1.59,0-.71-.48-1.34-1.18-1.52-.22-.06-.4-.21-.5-.41-.1-.2-.11-.44-.03-.65,.08-.19,.12-.39,.12-.59s-.04-.4-.12-.59c-.08-.21-.08-.45,.03-.65,.1-.2,.28-.35,.5-.41,.69-.19,1.18-.81,1.18-1.52,0-1.08-1.14-1.89-2.18-1.47-.21,.09-.45,.08-.65-.03-.2-.1-.35-.28-.41-.5-.19-.69-.81-1.17-1.52-1.17s-1.31,.46-1.51,1.13c-.08,.25-.28,.45-.53,.53-.68,.2-1.13,.81-1.13,1.51,0,.38,.15,.76,.41,1.06,.27,.3,.27,.76,0,1.06-.27,.3-.41,.67-.41,1.06,0,.71,.48,1.34,1.18,1.52,.22,.06,.4,.21,.5,.41,.1,.2,.11,.44,.03,.65-.08,.19-.12,.39-.12,.59,0,.88,.71,1.59,1.59,1.59,.39,0,.76-.15,1.05-.41,.15-.14,.34-.2,.53-.2Z"/></g><g><path class="cls-1" d="M105.81,32.37c-.4,0-.77,.08-1.13,.18-.52-1.05-1.59-1.77-2.83-1.77-1.75,0-3.17,1.42-3.17,3.17s1.42,3.17,3.17,3.17c.03,0,.05,0,.08,0,.36,1.82,1.97,3.18,3.89,3.18,2.19,0,3.97-1.78,3.97-3.97s-1.78-3.97-3.97-3.97Z"/><path class="cls-2" d="M105.81,41.1c-2.05,0-3.86-1.32-4.51-3.23-1.96-.28-3.43-1.93-3.43-3.92,0-2.19,1.78-3.97,3.97-3.97,1.29,0,2.47,.62,3.21,1.66,.26-.05,.51-.07,.75-.07,2.63,0,4.76,2.14,4.76,4.76s-2.14,4.76-4.76,4.76Zm-3.97-9.52c-1.31,0-2.38,1.07-2.38,2.38s1.07,2.38,2.38,2.38c.38,0,.78,.26,.86,.63,.3,1.47,1.61,2.55,3.11,2.55,1.75,0,3.17-1.42,3.17-3.17s-1.42-3.17-3.17-3.17c-.28,0-.56,.05-.91,.15-.37,.11-.77-.06-.94-.41-.41-.82-1.22-1.33-2.12-1.33Z"/></g><g><path class="cls-1" d="M76.27,37.23c.11-.27,.17-.57,.17-.89,0-1.31-1.07-2.38-2.38-2.38s-2.38,1.07-2.38,2.38c0,.31,.06,.61,.17,.89-1.01,.27-1.76,1.19-1.76,2.29,0,1.31,1.07,2.38,2.38,2.38,.61,0,1.17-.24,1.59-.62,.42,.38,.97,.62,1.59,.62,1.31,0,2.38-1.07,2.38-2.38,0-1.1-.75-2.02-1.76-2.29Z"/><path class="cls-2" d="M75.65,42.69c-.56,0-1.11-.15-1.59-.43-.48,.28-1.03,.43-1.59,.43-1.75,0-3.17-1.42-3.17-3.17,0-1.16,.64-2.2,1.62-2.76-.02-.14-.03-.28-.03-.42,0-1.75,1.42-3.17,3.17-3.17s3.17,1.42,3.17,3.17c0,.14,0,.28-.03,.42,.98,.55,1.62,1.6,1.62,2.76,0,1.75-1.42,3.17-3.17,3.17Zm-1.59-2.21c.19,0,.38,.07,.53,.2,.29,.27,.67,.41,1.05,.41,.88,0,1.59-.71,1.59-1.59,0-.71-.48-1.34-1.18-1.52-.22-.06-.4-.21-.5-.41-.1-.2-.11-.44-.03-.65,.08-.19,.12-.39,.12-.59,0-.88-.71-1.59-1.59-1.59s-1.59,.71-1.59,1.59c0,.2,.04,.4,.12,.59,.08,.21,.08,.45-.03,.65-.1,.2-.28,.35-.5,.41-.69,.19-1.18,.81-1.18,1.52,0,.88,.71,1.59,1.59,1.59,.39,0,.76-.15,1.05-.41,.15-.14,.34-.2,.53-.2Z"/></g><g><path class="cls-1" d="M93.91,36.34c0-1.29-.63-2.43-1.59-3.16v-.02c0-1.31-1.06-2.38-2.38-2.38-.73,0-1.38,.34-1.81,.86-.57-.53-1.32-.86-2.15-.86-1.75,0-3.17,1.42-3.17,3.17,0,.66,.2,1.27,.54,1.78-1.24,.43-2.13,1.6-2.13,2.98,0,1.75,1.42,3.17,3.17,3.17,.83,0,1.59-.33,2.15-.86,.44,.52,1.08,.86,1.81,.86,1.06,0,1.95-.7,2.26-1.65,1.87-.32,3.3-1.94,3.3-3.9Z"/><path class="cls-2" d="M88.35,42.69c-.67,0-1.32-.22-1.86-.61-.63,.4-1.36,.61-2.11,.61-2.19,0-3.97-1.78-3.97-3.97,0-1.37,.72-2.62,1.85-3.34-.17-.45-.26-.93-.26-1.42,0-2.19,1.78-3.97,3.97-3.97,.75,0,1.48,.21,2.11,.61,.54-.4,1.19-.61,1.86-.61,1.62,0,2.97,1.22,3.15,2.8,1.03,.91,1.61,2.18,1.61,3.55,0,2.17-1.45,4.03-3.52,4.59-.53,1.07-1.62,1.76-2.83,1.76Zm-1.81-2.44s.03,0,.05,0c.22,.01,.42,.11,.56,.28,.76,.9,2.35,.57,2.71-.53,.09-.28,.33-.49,.62-.54,1.53-.26,2.64-1.57,2.64-3.12,0-.99-.46-1.91-1.27-2.52-.2-.15-.32-.38-.32-.63,0-.89-.71-1.6-1.59-1.6-.46,0-.9,.21-1.21,.57-.14,.17-.34,.27-.56,.28-.22,.02-.43-.06-.59-.21-.45-.42-1.02-.64-1.61-.64-1.31,0-2.38,1.07-2.38,2.38,0,.48,.14,.94,.41,1.33,.14,.2,.17,.46,.1,.69-.08,.23-.26,.42-.49,.5-.96,.34-1.6,1.24-1.6,2.24,0,1.31,1.07,2.38,2.38,2.38,.59,0,1.17-.23,1.61-.64,.15-.14,.34-.21,.54-.21Z"/></g><path class="cls-1" d="M100.24,37.28s.01-.09,.01-.14c0-1.75-1.42-3.17-3.17-3.17s-3.17,1.42-3.17,3.17c0,.83,.33,1.59,.86,2.15-.52,.44-.86,1.08-.86,1.81,0,1.31,1.07,2.38,2.38,2.38,1.1,0,2.02-.75,2.29-1.76,.27,.11,.57,.17,.89,.17,1.31,0,2.38-1.07,2.38-2.38,0-1.04-.67-1.92-1.6-2.24Z"/><path class="cls-2" d="M96.29,44.28c-1.75,0-3.17-1.42-3.17-3.17,0-.67,.22-1.32,.61-1.86-.4-.63-.61-1.36-.61-2.11,0-2.19,1.78-3.97,3.97-3.97,2.06,0,3.77,1.58,3.95,3.6,.98,.56,1.6,1.6,1.6,2.75,0,1.89-1.73,3.39-3.59,3.15-.55,.98-1.6,1.62-2.76,1.62Zm.79-9.52c-1.31,0-2.38,1.07-2.38,2.38,0,.59,.23,1.17,.64,1.62,.15,.16,.22,.37,.21,.59-.01,.22-.11,.42-.28,.56-.37,.31-.57,.74-.57,1.21,0,.88,.71,1.59,1.59,1.59,.71,0,1.34-.48,1.52-1.17,.06-.22,.21-.4,.41-.5,.2-.1,.44-.11,.65-.03,1.04,.42,2.18-.4,2.18-1.47,0-.67-.43-1.27-1.07-1.49-.33-.11-.54-.43-.53-.77,0-.03,.01-.12,.01-.15,0-1.28-1.07-2.34-2.38-2.34Z"/><path class="cls-1" d="M119.3,42.69c0-2.19-1.78-3.97-3.97-3.97s-3.97,1.78-3.97,3.97c0,.65,.17,1.25,.45,1.79-.28,.39-.45,.86-.45,1.38,0,1.31,1.07,2.38,2.38,2.38,1.06,0,1.95-.7,2.26-1.65,1.87-.32,3.3-1.94,3.3-3.9Z"/><path class="cls-2" d="M113.75,49.04c-1.75,0-3.17-1.42-3.17-3.17,0-.5,.12-.99,.35-1.43-.23-.57-.35-1.15-.35-1.74,0-2.63,2.14-4.76,4.76-4.76s4.76,2.14,4.76,4.76c0,2.17-1.45,4.03-3.52,4.59-.53,1.07-1.62,1.76-2.83,1.76Zm1.59-9.52c-1.75,0-3.17,1.42-3.17,3.17,0,.48,.12,.96,.36,1.43,.13,.26,.11,.58-.06,.82-.2,.27-.3,.59-.3,.92,0,.88,.71,1.59,1.59,1.59,.69,0,1.29-.44,1.5-1.11,.09-.28,.33-.49,.62-.54,1.53-.26,2.64-1.57,2.64-3.12,0-1.75-1.42-3.17-3.17-3.17Z"/><path class="cls-1" d="M93.91,45.86c0-2.19-1.78-3.97-3.97-3.97s-3.97,1.78-3.97,3.97c0,.65,.17,1.25,.45,1.79-.28,.39-.45,.86-.45,1.38,0,1.31,1.07,2.38,2.38,2.38,1.06,0,1.95-.7,2.26-1.65,1.87-.32,3.3-1.94,3.3-3.9Z"/><path class="cls-7" d="M88.35,52.21c-1.75,0-3.17-1.42-3.17-3.17,0-.5,.12-.99,.35-1.43-.23-.57-.35-1.15-.35-1.74,0-2.63,2.14-4.76,4.76-4.76s4.76,2.14,4.76,4.76c0,2.17-1.45,4.03-3.52,4.59-.53,1.07-1.62,1.76-2.83,1.76Zm1.59-9.52c-1.75,0-3.17,1.42-3.17,3.17,0,.48,.12,.96,.36,1.43,.13,.26,.11,.58-.06,.82-.2,.27-.3,.59-.3,.92,0,.88,.71,1.59,1.59,1.59,.69,0,1.29-.44,1.5-1.11,.09-.28,.33-.49,.62-.54,1.53-.26,2.64-1.57,2.64-3.12,0-1.75-1.42-3.17-3.17-3.17Z"/><path class="cls-1" d="M62.16,39.52c0,2.19,1.78,3.97,3.97,3.97s3.97-1.78,3.97-3.97c0-.65-.17-1.25-.45-1.79,.28-.39,.45-.86,.45-1.38,0-1.31-1.07-2.38-2.38-2.38-1.06,0-1.95,.7-2.26,1.65-1.87,.32-3.3,1.94-3.3,3.9Z"/><path class="cls-2" d="M66.13,44.28c-2.63,0-4.76-2.14-4.76-4.76,0-2.17,1.45-4.03,3.52-4.59,.53-1.07,1.62-1.76,2.83-1.76,1.75,0,3.17,1.42,3.17,3.17,0,.5-.12,.99-.35,1.43,.23,.57,.35,1.15,.35,1.74,0,2.63-2.14,4.76-4.76,4.76Zm1.59-9.52c-.69,0-1.29,.44-1.5,1.11-.09,.28-.33,.49-.62,.54-1.53,.26-2.64,1.57-2.64,3.12,0,1.75,1.42,3.17,3.17,3.17s3.17-1.42,3.17-3.17c0-.48-.12-.96-.36-1.43-.13-.26-.11-.58,.06-.82,.2-.27,.3-.59,.3-.92,0-.88-.71-1.59-1.59-1.59Z"/><g><path class="cls-1" d="M94.7,40.31c-.4,0-.77,.08-1.13,.18-.52-1.05-1.59-1.77-2.83-1.77-1.75,0-3.17,1.42-3.17,3.17s1.42,3.17,3.17,3.17c.03,0,.05,0,.08,0,.36,1.82,1.97,3.18,3.89,3.18,2.19,0,3.97-1.78,3.97-3.97s-1.78-3.97-3.97-3.97Z"/><path class="cls-2" d="M94.7,49.04c-2.05,0-3.86-1.32-4.51-3.23-1.96-.28-3.43-1.93-3.43-3.92,0-2.19,1.78-3.97,3.97-3.97,1.29,0,2.47,.62,3.21,1.66,.26-.05,.51-.07,.75-.07,2.63,0,4.76,2.14,4.76,4.76s-2.14,4.76-4.76,4.76Zm-3.97-9.52c-1.31,0-2.38,1.07-2.38,2.38s1.07,2.38,2.38,2.38c.38,0,.78,.26,.86,.63,.3,1.47,1.61,2.55,3.11,2.55,1.75,0,3.17-1.42,3.17-3.17s-1.42-3.17-3.17-3.17c-.28,0-.56,.05-.91,.15-.37,.11-.77-.06-.94-.41-.41-.82-1.22-1.33-2.12-1.33Z"/></g><g><path class="cls-1" d="M111.37,41.1c0-1.31-1.07-2.38-2.38-2.38-1.1,0-2.02,.75-2.29,1.76-.27-.11-.57-.17-.89-.17s-.61,.06-.89,.17c-.27-1.01-1.19-1.76-2.29-1.76-1.31,0-2.38,1.07-2.38,2.38,0,.31,.06,.61,.17,.89-1.01,.27-1.76,1.19-1.76,2.29s.72,1.97,1.7,2.27c.29,.98,1.19,1.7,2.27,1.7,.61,0,1.17-.24,1.59-.62,.42,.38,.97,.62,1.59,.62,1.1,0,2.02-.75,2.29-1.76,.27,.11,.57,.17,.89,.17,1.31,0,2.38-1.07,2.38-2.38,0-.61-.24-1.17-.62-1.59,.38-.42,.62-.97,.62-1.59Z"/><path class="cls-2" d="M105.81,49.04c-.56,0-1.11-.15-1.59-.43-.48,.28-1.03,.43-1.59,.43-1.27,0-2.38-.74-2.89-1.88-1.14-.51-1.88-1.62-1.88-2.89,0-1.16,.64-2.2,1.62-2.76-.02-.14-.03-.28-.03-.42,0-1.75,1.42-3.17,3.17-3.17,1.16,0,2.2,.64,2.76,1.62,.28-.04,.56-.04,.84,0,.55-.98,1.6-1.62,2.76-1.62,1.75,0,3.17,1.42,3.17,3.17,0,.56-.15,1.11-.43,1.59,.28,.48,.43,1.03,.43,1.59,0,1.89-1.72,3.4-3.59,3.15-.55,.98-1.6,1.62-2.76,1.62Zm-1.59-2.21c.19,0,.38,.07,.53,.2,.84,.76,2.29,.31,2.58-.76,.06-.22,.21-.4,.41-.5,.2-.1,.44-.11,.65-.03,1.04,.42,2.18-.4,2.18-1.47,0-.38-.15-.76-.41-1.06-.27-.3-.27-.76,0-1.06,.27-.3,.41-.67,.41-1.06,0-.88-.71-1.59-1.59-1.59-.71,0-1.34,.48-1.52,1.17-.06,.22-.21,.4-.41,.5-.2,.1-.44,.11-.65,.03-.38-.15-.79-.15-1.18,0-.21,.09-.45,.08-.65-.03-.2-.1-.35-.28-.41-.5-.19-.69-.81-1.17-1.52-1.17-.88,0-1.59,.71-1.59,1.59,0,.2,.04,.4,.12,.59,.08,.21,.08,.45-.03,.65-.1,.2-.28,.35-.5,.41-.69,.19-1.18,.81-1.18,1.52s.45,1.31,1.13,1.51c.25,.08,.45,.28,.53,.53,.32,1.05,1.74,1.47,2.57,.72,.15-.14,.34-.2,.53-.2Z"/></g><g><path class="cls-1" d="M76.44,45.86c0,1.31,1.07,2.38,2.38,2.38,1.1,0,2.02-.75,2.29-1.76,.27,.11,.57,.17,.89,.17s.61-.06,.89-.17c.27,1.01,1.19,1.76,2.29,1.76,1.31,0,2.38-1.07,2.38-2.38,0-.31-.06-.61-.17-.89,1.01-.27,1.76-1.19,1.76-2.29s-.72-1.97-1.7-2.27c-.29-.98-1.19-1.7-2.27-1.7-.61,0-1.17,.24-1.59,.62-.42-.38-.97-.62-1.59-.62-1.1,0-2.02,.75-2.29,1.76-.27-.11-.57-.17-.89-.17-1.31,0-2.38,1.07-2.38,2.38,0,.61,.24,1.17,.62,1.59-.38,.42-.62,.97-.62,1.59Z"/><path class="cls-2" d="M85.18,49.04c-1.16,0-2.2-.64-2.76-1.62-.28,.04-.56,.04-.84,0-.55,.98-1.6,1.62-2.76,1.62-1.75,0-3.17-1.42-3.17-3.17,0-.56,.15-1.11,.43-1.59-.28-.48-.43-1.03-.43-1.59,0-1.89,1.73-3.39,3.59-3.15,.82-1.45,2.87-2.05,4.34-1.18,.48-.28,1.03-.43,1.59-.43,1.27,0,2.38,.74,2.89,1.88,1.14,.51,1.88,1.62,1.88,2.89,0,1.16-.64,2.2-1.62,2.76,.02,.14,.03,.28,.03,.42,0,1.75-1.42,3.17-3.17,3.17Zm-2.29-3.35c.12,0,.24,.03,.35,.08,.2,.1,.35,.28,.41,.5,.19,.69,.81,1.17,1.52,1.17,.88,0,1.59-.71,1.59-1.59,0-.2-.04-.4-.12-.59-.08-.21-.08-.45,.03-.65,.1-.2,.28-.35,.5-.41,.69-.19,1.18-.81,1.18-1.52s-.46-1.31-1.13-1.51c-.25-.08-.45-.28-.53-.53-.32-1.05-1.73-1.47-2.56-.72-.3,.27-.76,.27-1.06,0-.84-.76-2.29-.31-2.58,.76-.06,.22-.21,.4-.41,.5-.2,.1-.44,.11-.65,.03-1.03-.42-2.18,.4-2.18,1.47,0,.38,.15,.76,.41,1.06,.27,.3,.27,.76,0,1.06-.27,.3-.41,.67-.41,1.06,0,.88,.71,1.59,1.59,1.59,.71,0,1.34-.48,1.52-1.17,.06-.22,.21-.4,.41-.5,.2-.1,.44-.11,.65-.03,.38,.15,.79,.15,1.18,0,.1-.04,.2-.06,.3-.06Z"/></g><path class="cls-1" d="M64.94,41.1c-1.46,0-2.72,.88-3.27,2.14-.43-.57-1.12-.95-1.89-.95-1.31,0-2.38,1.07-2.38,2.38s1.07,2.38,2.38,2.38c.77,0,1.46-.38,1.89-.95,.55,1.26,1.81,2.14,3.27,2.14,1.97,0,3.57-1.6,3.57-3.57s-1.6-3.57-3.57-3.57Z"/><path class="cls-2" d="M64.94,49.04c-1.37,0-2.63-.64-3.45-1.69-.5,.33-1.09,.5-1.71,.5-1.75,0-3.17-1.42-3.17-3.17s1.42-3.17,3.17-3.17c.62,0,1.21,.18,1.71,.5,.81-1.05,2.08-1.69,3.45-1.69,2.41,0,4.37,1.96,4.37,4.37s-1.96,4.37-4.37,4.37Zm-3.27-3.73s.06,0,.09,0c.28,.03,.52,.21,.63,.47,.44,1.01,1.44,1.66,2.54,1.66,1.53,0,2.78-1.25,2.78-2.78s-1.25-2.78-2.78-2.78c-1.1,0-2.1,.65-2.54,1.66-.11,.26-.35,.44-.63,.47-.28,.04-.56-.08-.73-.31-.31-.4-.76-.63-1.26-.63-.88,0-1.59,.71-1.59,1.59s.71,1.59,1.59,1.59c.49,0,.95-.23,1.26-.63,.15-.2,.39-.31,.63-.31Z"/><g><path class="cls-1" d="M78.03,45.07c0-1.75-1.42-3.17-3.17-3.17-.59,0-1.15,.17-1.62,.46-.16-1.15-1.15-2.05-2.35-2.05-1.31,0-2.38,1.07-2.38,2.38,0,.39,.1,.76,.27,1.09-1.1,.5-1.86,1.6-1.86,2.88,0,1.75,1.42,3.17,3.17,3.17,.83,0,1.59-.33,2.15-.86,.44,.52,1.08,.86,1.81,.86,1.19,0,2.16-.87,2.34-2.01,.97-.54,1.63-1.57,1.63-2.75Z"/><path class="cls-2" d="M74.06,50.63c-.67,0-1.32-.22-1.86-.61-.63,.4-1.36,.61-2.11,.61-2.19,0-3.97-1.78-3.97-3.97,0-1.29,.64-2.5,1.68-3.23-.06-.24-.09-.49-.09-.74,0-1.75,1.42-3.17,3.17-3.17,1.22,0,2.31,.71,2.83,1.76,.37-.11,.75-.17,1.14-.17,2.19,0,3.97,1.78,3.97,3.97,0,1.3-.65,2.51-1.72,3.25-.38,1.36-1.61,2.31-3.05,2.31Zm-1.81-2.44s.03,0,.05,0c.22,.01,.42,.11,.56,.28,.31,.36,.75,.57,1.21,.57,.78,0,1.44-.56,1.56-1.34,.04-.24,.18-.45,.39-.57,.75-.42,1.22-1.22,1.22-2.06,0-1.31-1.07-2.38-2.38-2.38-.42,0-.83,.12-1.21,.35-.23,.14-.51,.15-.75,.04-.24-.11-.41-.34-.44-.6-.11-.78-.78-1.36-1.56-1.36-.88,0-1.59,.71-1.59,1.59,0,.24,.06,.48,.18,.72,.1,.19,.12,.42,.05,.62-.07,.2-.22,.37-.42,.46-.85,.39-1.4,1.24-1.4,2.16,0,1.31,1.07,2.38,2.38,2.38,.59,0,1.17-.23,1.61-.64,.15-.14,.34-.21,.54-.21Z"/></g><polygon class="cls-1" points="82.48 118.09 72.32 118.09 68.51 54.6 81.21 54.6 82.48 118.09"/><polygon class="cls-1" points="102.8 118.09 92.64 118.09 93.91 54.6 106.61 54.6 102.8 118.09"/><polygon class="cls-5" points="112.95 118.09 102.8 118.09 106.61 54.6 119.3 54.6 112.95 118.09"/><polygon class="cls-3" points="72.32 118.09 62.16 118.09 55.81 54.6 68.51 54.6 72.32 118.09"/><polygon class="cls-3" points="92.64 118.09 82.48 118.09 81.21 54.6 93.91 54.6 92.64 118.09"/><g><path class="cls-1" d="M119.3,54.6H55.81c-1.75,0-3.17-1.42-3.17-3.17h0c0-1.75,1.42-3.17,3.17-3.17h63.5c1.75,0,3.17,1.42,3.17,3.17h0c0,1.75-1.42,3.17-3.17,3.17Z"/><path class="cls-2" d="M124.07,51.42c0-2.63-2.14-4.76-4.76-4.76H55.81c-2.63,0-4.76,2.14-4.76,4.76,0,2.11,1.39,3.89,3.3,4.51l6.23,62.32c.08,.81,.76,1.43,1.58,1.43h50.8c.82,0,1.5-.62,1.58-1.43l6.23-62.32c1.91-.62,3.3-2.4,3.3-4.51Zm-12.55,65.08H63.59l-6.03-60.32h59.99l-6.03,60.32Zm7.79-63.5H55.81c-.88,0-1.59-.71-1.59-1.59s.71-1.59,1.59-1.59h63.5c.88,0,1.59,.71,1.59,1.59s-.71,1.59-1.59,1.59Z"/></g><polygon class="cls-3" points="102.89 116.5 111.52 116.5 117.39 57.77 117.55 56.18 106.51 56.18 102.89 116.5"/><circle class="cls-1" cx="79.62" cy="37.13" r="3.17"/><path class="cls-2" d="M79.62,41.1c-2.19,0-3.97-1.78-3.97-3.97s1.78-3.97,3.97-3.97,3.97,1.78,3.97,3.97-1.78,3.97-3.97,3.97Zm0-6.35c-1.31,0-2.38,1.07-2.38,2.38s1.07,2.38,2.38,2.38,2.38-1.07,2.38-2.38-1.07-2.38-2.38-2.38Z"/><g><path class="cls-1" d="M124.07,116.5h0c-1.04,0-2.07,.24-3.01,.71l-.75,.37c-.66,.33-1.39,.5-2.13,.5h-18.34c-1.71,0-3.29-.92-4.13-2.4l-3.4-5.96c-.97-1.7-2.79-2.76-4.75-2.76h0c-1.96,0-3.78,1.05-4.75,2.76l-3.4,5.96c-.85,1.48-2.43,2.4-4.13,2.4h-18.34c-.74,0-1.47-.17-2.13-.5l-.75-.37c-.93-.47-1.96-.71-3.01-.71h0c-1.75,0-3.17-1.42-3.17-3.17v-20.64c0-1.75,1.42-3.17,3.17-3.17H124.07c1.75,0,3.17,1.42,3.17,3.17v20.64c0,1.75-1.42,3.17-3.17,3.17Z"/><path class="cls-6" d="M73.96,111.74h-18.15c-.88,0-1.59-.71-1.59-1.59v-12.7c0-.88,.71-1.59,1.59-1.59h22.22c.88,0,1.59,.71,1.59,1.59v5.91c0,.29-.08,.57-.23,.82l-4.07,6.79c-.29,.48-.8,.77-1.36,.77Z"/><path class="cls-4" d="M101.15,111.74h18.15c.88,0,1.59-.71,1.59-1.59v-12.7c0-.88-.71-1.59-1.59-1.59h-22.22c-.88,0-1.59,.71-1.59,1.59v5.91c0,.29,.08,.57,.23,.82l4.07,6.79c.29,.48,.8,.77,1.36,.77Z"/><path class="cls-2" d="M118.18,119.68h-18.34c-2.27,0-4.39-1.23-5.51-3.2l-3.4-5.96c-.69-1.21-1.98-1.96-3.37-1.96s-2.68,.75-3.37,1.96l-3.4,5.96c-1.13,1.97-3.24,3.2-5.51,3.2h-18.34c-.98,0-1.96-.23-2.84-.67l-.75-.38c-.71-.35-1.5-.54-2.3-.54-2.63,0-4.76-2.14-4.76-4.76v-20.64c0-2.63,2.14-4.76,4.76-4.76H124.07c2.63,0,4.76,2.14,4.76,4.76v20.64c0,2.63-2.14,4.76-4.76,4.76-.79,0-1.59,.19-2.3,.54l-.75,.38c-.88,.44-1.86,.67-2.84,.67Zm-30.62-14.29c2.53,0,4.87,1.36,6.13,3.56l3.4,5.96c.56,.99,1.62,1.6,2.76,1.6h18.34c.49,0,.98-.12,1.42-.33l.75-.38c1.15-.57,2.44-.88,3.72-.88,.88,0,1.59-.71,1.59-1.59v-20.64c0-.88-.71-1.59-1.59-1.59H51.05c-.88,0-1.59,.71-1.59,1.59v20.64c0,.88,.71,1.59,1.59,1.59,1.28,0,2.57,.3,3.72,.88l.75,.38c.44,.22,.93,.33,1.42,.33h18.34c1.14,0,2.19-.61,2.76-1.6l3.4-5.96c1.25-2.19,3.6-3.56,6.13-3.56Z"/><path class="cls-2" d="M73.96,113.33h-18.15c-1.75,0-3.17-1.42-3.17-3.17v-12.7c0-1.75,1.42-3.17,3.17-3.17h22.22c1.75,0,3.17,1.42,3.17,3.17v5.91c0,.58-.16,1.14-.45,1.63l-4.07,6.79c-.57,.95-1.62,1.54-2.72,1.54Zm-18.15-15.87v12.7h18.15l4.07-6.79v-5.91h-22.22Z"/><path class="cls-2" d="M119.3,113.33h-18.15c-1.11,0-2.15-.59-2.72-1.54l-4.07-6.79c-.3-.49-.45-1.06-.45-1.63v-5.91c0-1.75,1.42-3.17,3.17-3.17h22.22c1.75,0,3.17,1.42,3.17,3.17v12.7c0,1.75-1.42,3.17-3.17,3.17Zm-22.22-15.87v5.91l4.07,6.79h18.15v-12.7h-22.22Z"/></g></svg>