<?xml version="1.0" encoding="UTF-8"?><svg id="Layer_1" xmlns="http://www.w3.org/2000/svg" viewBox="0 0 141.73 141.73"><defs><style>.cls-1{fill:#233d4d;}.cls-2{fill:#fcca46;}.cls-3{fill:#f57e30;}.cls-4{fill:#579c87;}</style></defs><g><path class="cls-4" d="M82,92.61h-8.9c2.95,4.1,7.21,7.31,13.24,8.93,23.1,6.22,35.32-20.54,39.01-34.44,1.71-6.41,2.46-11.27,2.65-14.4,.23-3.55-2.21-2.53-6.88-1.72-3.29,.57-11.19,1.27-20.95-1.36-9.76-2.63-16.25-7.21-18.82-9.35-3.65-3.05-5.25-5.16-6.82-1.97-.95,1.93-2.07,4.7-3.24,8.3h10.7v31.55c2.38-.46,5.27-.47,8.65,.49,11.15,3.16,12.73,12.34,12.73,12.34l-21.37-6.06v7.69h0Zm24.71-21.7c-6.15-1.62-6.63-7.94-6.63-7.94l16.41,4.32s-3.63,5.23-9.78,3.61Z"/><path class="cls-1" d="M93.04,103.61c-2.28,0-4.61-.32-7-.96-5.86-1.58-10.53-4.73-13.88-9.37l-1.31-1.82h10v-8.06l20.81,5.9c-1.07-2.67-3.96-7.47-11.33-9.56-2.83-.8-5.57-.96-8.12-.47l-1.37,.26v-31.8h-11.13l.49-1.5c1.08-3.32,2.22-6.25,3.3-8.45,.4-.82,1.08-1.93,2.3-2.18,1.55-.31,2.88,.85,4.91,2.61,.42,.37,.88,.76,1.37,1.17,1.73,1.44,8.16,6.37,18.38,9.12,10.23,2.76,18.25,1.73,20.46,1.34,.63-.11,1.23-.22,1.78-.33,2.53-.48,4.36-.83,5.54,.21,.94,.83,.97,2.14,.91,3.05-.14,2.22-.68,7.07-2.69,14.62-3.13,11.75-10.39,26.57-21.38,32.92-3.79,2.19-7.82,3.29-12.04,3.29Zm-17.55-9.86c2.88,3.22,6.62,5.46,11.15,6.68,6.18,1.66,12,.96,17.29-2.1,10.39-6,17.31-20.22,20.31-31.52,1.96-7.36,2.48-12.04,2.62-14.18,.06-.99-.14-1.18-.14-1.18-.34-.3-2.14,.05-3.59,.33-.56,.11-1.17,.22-1.82,.34-2.33,.4-10.76,1.5-21.44-1.39-10.67-2.88-17.44-8.06-19.26-9.58-.51-.42-.97-.83-1.4-1.2-1.12-.97-2.5-2.16-2.95-2.09,0,0-.27,.06-.7,.94-.63,1.28-1.57,3.42-2.68,6.65h10.26v31.37c2.5-.28,5.12-.04,7.81,.72,11.71,3.32,13.47,12.84,13.54,13.25l.31,1.8-21.67-6.14v7.32h-7.66Zm33.59-21.38c-.83,0-1.72-.11-2.66-.36h0c-5.49-1.45-7.3-6.49-7.48-8.96l-.12-1.61,19.56,5.15-.93,1.35c-.14,.21-3.14,4.42-8.35,4.42Zm-2.08-2.58c3.42,.9,5.97-.65,7.36-1.88l-12.77-3.36c.56,1.74,1.97,4.33,5.41,5.24h0Z"/></g><g><path class="cls-2" d="M13.73,49.17c.27,4.07,1.25,10.39,3.48,18.73,4.84,18.07,20.76,52.89,50.68,44.88,29.92-8.02,26.3-46.14,21.46-64.21-2.23-8.34-4.54-14.3-6.35-17.96-2.04-4.15-4.12-1.41-8.83,2.54-3.33,2.79-11.72,8.71-24.37,12.1-12.65,3.39-22.88,2.46-27.15,1.71-6.06-1.06-9.23-2.4-8.92,2.21Zm47.7,18.79s.62-8.85,8.62-11.12c8-2.27,12.71,5.06,12.71,5.06l-21.33,6.06Zm-19.74,22.07l37.79-10.56s-2.17,11.22-16.24,15.34c-13.92,4.07-21.55-4.77-21.55-4.77Zm-13.14-12.2s.63-8.85,8.62-11.12c8-2.28,12.7,5.05,12.7,5.05l-21.33,6.07Z"/><path class="cls-1" d="M59.39,115.08c-10.01,0-19.26-4.82-27.12-14.23-10.13-12.12-14.93-28.06-16.16-32.66-2.62-9.77-3.33-16.07-3.52-18.95-.07-1.11-.04-2.7,1.06-3.68,1.41-1.24,3.59-.82,6.89-.17,.71,.14,1.48,.29,2.31,.43,2.89,.51,13.34,1.88,26.66-1.69,13.31-3.57,21.68-9.99,23.93-11.87,.64-.54,1.23-1.05,1.78-1.53,2.54-2.21,4.22-3.66,6.06-3.3,1.45,.29,2.27,1.66,2.76,2.66,1.27,2.59,3.8,8.39,6.42,18.17,1.53,5.7,13.86,55.93-22.27,65.61-2.98,.8-5.92,1.2-8.79,1.2ZM16.15,47.06c-.46,0-.8,.06-.98,.22-.25,.22-.35,.87-.29,1.8h0c.18,2.8,.88,8.92,3.45,18.51,1.2,4.48,5.88,20.02,15.71,31.78,9.64,11.54,20.93,15.67,33.56,12.28,33.98-9.11,22.12-57.33,20.65-62.8-2.57-9.6-5.03-15.24-6.27-17.75-.41-.84-.83-1.35-1.15-1.42-.72-.16-2.37,1.27-4.1,2.78-.56,.49-1.16,1.01-1.81,1.55-2.34,1.96-11.05,8.64-24.81,12.33-13.77,3.69-24.64,2.26-27.65,1.73-.84-.15-1.62-.3-2.35-.44-1.53-.3-2.99-.58-3.96-.58Zm39.97,49.96c-9.65,0-15.01-5.92-15.28-6.23l-1.21-1.37,1.71-.48,.69-.26,.05,.05,38.88-10.87-.35,1.82c-.09,.49-2.47,11.95-17.04,16.22-2.71,.79-5.2,1.11-7.45,1.11Zm-12.14-6.44c2.7,2.17,9.17,5.97,18.94,3.12,9.89-2.9,13.58-9.34,14.84-12.56l-33.78,9.45Zm-16.68-11.21l.12-1.63c0-.1,.79-9.68,9.46-12.15,8.72-2.48,13.93,5.45,13.98,5.53l.84,1.3-24.39,6.95Zm12.94-11.97c-.86,0-1.77,.12-2.74,.4-5.1,1.45-6.89,5.94-7.49,8.41l17.92-5.1c-1.34-1.47-3.98-3.71-7.69-3.71Zm19.94,2.09l.11-1.63c0-.1,.78-9.68,9.45-12.14,8.71-2.48,13.94,5.46,13.99,5.54l.84,1.3-24.4,6.93Zm12.93-11.96c-.85,0-1.77,.12-2.73,.39-5.15,1.46-6.92,5.94-7.51,8.42l17.94-5.1c-1.34-1.47-3.99-3.71-7.7-3.71Z"/></g><g><g><line class="cls-3" x1="27.65" y1="30.11" x2="27.92" y2="37.5"/><path class="cls-3" d="M27.92,38.65c-.61,0-1.12-.49-1.15-1.11l-.27-7.4c-.02-.63,.47-1.17,1.11-1.19,.64-.03,1.17,.47,1.19,1.11l.27,7.4c.02,.63-.47,1.17-1.11,1.19h-.04Z"/></g><g><line class="cls-3" x1="31.48" y1="33.67" x2="24.08" y2="33.94"/><path class="cls-3" d="M24.08,35.09c-.61,0-1.12-.49-1.15-1.11-.02-.63,.47-1.17,1.11-1.19l7.4-.27c.63-.02,1.17,.47,1.19,1.11,.02,.63-.47,1.17-1.11,1.19l-7.4,.27h-.04Z"/></g></g><g><g><line class="cls-3" x1="116.83" y1="36.72" x2="116.95" y2="41.53"/><path class="cls-3" d="M116.95,42.68c-.62,0-1.13-.49-1.15-1.12l-.13-4.81c-.02-.63,.48-1.16,1.12-1.18,.61-.05,1.16,.48,1.18,1.12l.13,4.81c.02,.63-.48,1.16-1.12,1.18h-.03Z"/></g><g><line class="cls-3" x1="119.3" y1="39.06" x2="114.49" y2="39.19"/><path class="cls-3" d="M114.48,40.33c-.62,0-1.13-.49-1.15-1.12-.02-.63,.48-1.16,1.12-1.18l4.81-.13c.63-.04,1.16,.48,1.18,1.12,.02,.63-.48,1.16-1.12,1.18l-4.81,.13h-.03Z"/></g></g><path class="cls-3" d="M58.03,32.94c-.29,0-.59-.11-.81-.34-4.87-4.87-12.79-4.87-17.65,0-.45,.45-1.17,.45-1.62,0s-.45-1.17,0-1.62c5.76-5.76,15.14-5.76,20.9,0,.45,.45,.45,1.17,0,1.62-.22,.22-.52,.34-.81,.34Z"/><path class="cls-3" d="M36.41,113.94c-3.75,0-7.3-1.41-10.04-4-2.87-2.71-4.5-6.38-4.61-10.34-.02-.63,.48-1.16,1.12-1.18,.61,0,1.16,.48,1.18,1.12,.09,3.35,1.47,6.45,3.89,8.73,2.4,2.27,5.53,3.47,8.85,3.36,.63-.01,1.16,.48,1.18,1.11,.02,.63-.48,1.16-1.11,1.18-.15,0-.3,0-.45,0Z"/><path class="cls-3" d="M97.01,112.17c-.51,0-1.02-.03-1.53-.08-3.92-.41-7.45-2.32-9.95-5.4-.4-.49-.32-1.22,.17-1.61,.49-.4,1.22-.32,1.61,.17,2.11,2.6,5.09,4.22,8.4,4.56,3.29,.34,6.51-.62,9.07-2.71,.49-.4,1.22-.33,1.62,.16,.4,.49,.33,1.21-.16,1.61-2.64,2.15-5.87,3.3-9.22,3.3Z"/></svg>