<?xml version="1.0" encoding="UTF-8" standalone="no"?>
<!-- Generator: Adobe Illustrator 21.0.2, SVG Export Plug-In . SVG Version: 6.00 Build 0)  -->

<svg
   xmlns:dc="http://purl.org/dc/elements/1.1/"
   xmlns:cc="http://creativecommons.org/ns#"
   xmlns:rdf="http://www.w3.org/1999/02/22-rdf-syntax-ns#"
   xmlns:svg="http://www.w3.org/2000/svg"
   xmlns="http://www.w3.org/2000/svg"
   xmlns:sodipodi="http://sodipodi.sourceforge.net/DTD/sodipodi-0.dtd"
   xmlns:inkscape="http://www.inkscape.org/namespaces/inkscape"
   version="1.1"
   id="Capa_1"
   x="0px"
   y="0px"
   viewBox="0 0 22 22"
   xml:space="preserve"
   sodipodi:docname="icon.svg"
   width="22"
   height="22"
   inkscape:version="0.92.2 (unknown)"><metadata
     id="metadata23"><rdf:RDF><cc:Work
         rdf:about=""><dc:format>image/svg+xml</dc:format><dc:type
           rdf:resource="http://purl.org/dc/dcmitype/StillImage" /><dc:title></dc:title></cc:Work></rdf:RDF></metadata><defs
     id="defs21" /><sodipodi:namedview
     pagecolor="#ffffff"
     bordercolor="#666666"
     borderopacity="1"
     objecttolerance="10"
     gridtolerance="10"
     guidetolerance="10"
     inkscape:pageopacity="0"
     inkscape:pageshadow="2"
     inkscape:window-width="1920"
     inkscape:window-height="1056"
     id="namedview19"
     showgrid="false"
     inkscape:zoom="41.7193"
     inkscape:cx="10.811008"
     inkscape:cy="10.255008"
     inkscape:window-x="1366"
     inkscape:window-y="24"
     inkscape:window-maximized="1"
     inkscape:current-layer="Capa_1" /><style
     type="text/css"
     id="style2">
	.st0{fill:none;stroke:#C2363A;stroke-miterlimit:10;}
	.st1{fill:#C2363A;}
</style><line
     class="st0"
     x1="8.1741285"
     y1="3.1046028"
     x2="8.1741285"
     y2="19.104603"
     id="line4"
     style="fill:none;stroke:#c2363a;stroke-miterlimit:10" /><line
     class="st0"
     x1="13.510445"
     y1="3.1367977"
     x2="13.510445"
     y2="19.136799"
     id="line6"
     style="fill:none;stroke:#c2363a;stroke-miterlimit:10" /><line
     class="st0"
     x1="3.4864407"
     y1="8.6813564"
     x2="8.4864407"
     y2="8.6813564"
     id="line8"
     style="fill:none;stroke:#c2363a;stroke-miterlimit:10" /><line
     class="st0"
     x1="13.650847"
     y1="10.986441"
     x2="18.750847"
     y2="10.986441"
     id="line10"
     style="fill:none;stroke:#c2363a;stroke-miterlimit:10" /><line
     class="st0"
     x1="8.3734236"
     y1="13.849153"
     x2="13.373424"
     y2="13.849153"
     id="line12"
     style="fill:none;stroke:#c2363a;stroke-miterlimit:10" /><g
     id="g16"
     transform="translate(2.779661,3.0847458)"><path
       class="st1"
       d="M 13.7,1 C 14.4,1 15,1.6 15,2.3 V 13.7 C 15,14.4 14.4,15 13.7,15 H 2.3 C 1.6,15 1,14.4 1,13.7 V 2.3 C 1,1.6 1.6,1 2.3,1 h 11.4 m 0,-1 H 2.3 C 1,0 0,1 0,2.3 V 13.7 C 0,15 1,16 2.3,16 H 13.7 C 15,16 16,15 16,13.7 V 2.3 C 16,1 15,0 13.7,0 Z"
       id="path14"
       inkscape:connector-curvature="0"
       style="fill:#c2363a" /></g></svg>